<svg width="473" height="459" viewBox="0 0 473 459" fill="none" xmlns="http://www.w3.org/2000/svg">
<g clip-path="url(#clip0_204_2)">
<path d="M345.19 170.905C345.19 194.343 325.063 213.875 300.909 213.875H172.092C147.938 213.875 127.811 194.343 127.811 170.905V42.9699C127.811 19.5316 147.938 0 172.092 0H300.908C325.062 0 345.189 19.5316 345.189 42.9699L345.19 170.905Z" fill="#F16D6E"/>
<path d="M188.194 170.905C187.187 170.905 185.175 170.905 184.168 169.928C179.137 167.975 177.123 162.115 179.137 157.232L227.443 49.8064C229.455 45.8997 232.475 43.9468 236.5 43.9468C240.526 43.9468 244.551 45.8997 245.558 49.8064L293.864 157.232C295.877 162.114 293.864 167.974 288.833 169.928C283.801 171.881 277.763 169.928 275.749 165.045L236.5 78.1283L197.252 165.045C195.238 168.951 192.219 170.905 188.194 170.905Z" fill="white"/>
<path d="M269.711 138.677H204.297C198.258 138.677 194.232 133.794 194.232 128.911C194.232 123.051 199.264 119.144 204.297 119.144H269.711C275.749 119.144 279.775 124.027 279.775 128.911C279.774 134.77 274.743 138.677 269.711 138.677Z" fill="white"/>
<path d="M217.379 416.03C217.379 439.468 197.251 459 173.098 459H44.2806C20.1274 459 0 439.468 0 416.03V288.096C0 264.658 20.1274 245.126 44.2806 245.126H173.097C197.251 245.126 217.378 264.658 217.378 288.096L217.379 416.03Z" fill="#60C3AB"/>
<path d="M473 416.03C473 439.468 452.873 459 428.719 459H299.903C275.749 459 255.622 439.468 255.622 416.03V288.096C255.622 264.658 275.749 245.126 299.903 245.126H428.719C452.873 245.126 473 264.658 473 288.096V416.03Z" fill="#FEC656"/>
<path d="M369.343 421.89C336.132 421.89 308.96 390.639 308.96 351.575C308.96 312.511 336.132 281.26 369.343 281.26C389.47 281.26 407.585 292.002 418.656 311.535C421.675 316.417 419.663 322.277 414.63 325.207C409.599 328.136 403.56 326.184 400.541 321.3C392.491 308.604 381.42 300.791 368.337 300.791C346.197 300.791 328.082 323.253 328.082 350.598C328.082 377.943 346.197 400.404 368.337 400.404C380.414 400.404 391.484 393.568 399.536 381.849C402.555 376.966 408.593 375.989 413.625 378.919C418.656 381.849 419.663 387.708 416.644 392.591C405.573 412.123 388.464 421.89 369.343 421.89Z" fill="white"/>
<path d="M110.702 419.937H66.4213C60.383 419.937 56.3572 415.054 56.3572 410.17V347.668C56.3572 341.808 61.3888 337.902 66.4213 337.902H110.702C138.881 337.902 161.021 356.457 161.021 378.919C161.021 401.38 138.881 419.937 110.702 419.937ZM76.4855 400.404H110.703C126.805 400.404 140.894 390.638 140.894 378.919C140.894 367.2 126.805 357.433 110.703 357.433H76.4855V400.404Z" fill="white"/>
<path d="M104.664 357.434H66.4213C60.383 357.434 56.3572 352.552 56.3572 347.668V293.955C56.3572 288.095 61.3888 284.189 66.4213 284.189H105.67C130.83 284.189 150.958 300.79 150.958 321.299C150.958 341.807 129.823 357.434 104.664 357.434ZM76.4855 337.903H104.665C117.748 337.903 129.824 330.09 129.824 320.324C129.824 310.558 118.755 302.745 104.665 302.745H76.4855V337.903Z" fill="white"/>
</g>
<defs>
<clipPath id="clip0_204_2">
<rect width="473" height="459" fill="white"/>
</clipPath>
</defs>
</svg>
