<svg width="288" height="299" viewBox="0 0 288 299" fill="none" xmlns="http://www.w3.org/2000/svg">
<path fill-rule="evenodd" clip-rule="evenodd" d="M0 0H288V299H0V0Z" fill="white" fill-opacity="0.01"/>
<mask id="mask0_2_458" style="mask-type:alpha" maskUnits="userSpaceOnUse" x="0" y="0" width="288" height="299">
<path fill-rule="evenodd" clip-rule="evenodd" d="M0 0H288V299H0V0Z" fill="white"/>
</mask>
<g mask="url(#mask0_2_458)">
<mask id="mask1_2_458" style="mask-type:alpha" maskUnits="userSpaceOnUse" x="-36" y="-3" width="360" height="302">
<path fill-rule="evenodd" clip-rule="evenodd" d="M-36 -3H324V299H-36V-3Z" fill="white"/>
</mask>
<g mask="url(#mask1_2_458)">
<path d="M23.9326 31.7084L26.5652 -21H265.865L270.918 23.8806C271.257 26.8892 271.503 29.0838 271.552 30.8208C271.6 32.547 271.448 33.7243 271.049 34.7145C270.301 36.569 268.957 38.1218 267.229 39.1276C266.306 39.6647 265.163 39.9837 263.448 40.1833C261.722 40.3841 259.514 40.455 256.488 40.5512L39.3903 47.4491C36.3607 47.5454 34.1507 47.6147 32.4134 47.5238C30.687 47.4333 29.5246 47.1871 28.569 46.7089C26.7794 45.8134 25.3393 44.3469 24.4763 42.5413C24.0156 41.5772 23.7905 40.4106 23.7314 38.6827C23.6719 36.9441 23.7814 34.7358 23.9326 31.7084Z" stroke="url(#paint0_linear_2_458)" stroke-width="2"/>
<path d="M270.737 288.107L268.754 311.698H29.3565L25.9464 293.703C25.3364 290.484 24.8917 288.132 24.7033 286.27C24.5158 284.416 24.5956 283.153 24.9647 282.091C25.6569 280.099 27.0262 278.414 28.8338 277.329C29.7978 276.75 31.0179 276.413 32.8706 276.218C34.7326 276.021 37.1252 275.975 40.4011 275.913L255.507 271.853C258.595 271.794 260.849 271.753 262.616 271.869C264.373 271.985 265.549 272.253 266.508 272.756C268.303 273.698 269.727 275.218 270.55 277.07C270.99 278.059 271.181 279.251 271.183 281.011C271.184 282.782 270.996 285.028 270.737 288.107Z" stroke="url(#paint1_linear_2_458)" stroke-width="2"/>
<path d="M36.6019 169.257L262.233 172.756C265.01 172.799 267.033 172.831 268.627 172.985C270.209 173.138 271.282 173.406 272.173 173.872C273.84 174.744 275.192 176.117 276.038 177.798C276.49 178.696 276.741 179.772 276.87 181.357C276.999 182.953 277 184.976 277 187.754V233.492C277 236.231 276.999 238.225 276.872 239.8C276.746 241.363 276.501 242.427 276.057 243.318C275.227 244.985 273.901 246.354 272.26 247.235C271.383 247.707 270.327 247.985 268.769 248.16C267.199 248.336 265.206 248.399 262.469 248.485L38.1019 255.496C35.2641 255.585 33.1962 255.649 31.5633 255.566C29.942 255.484 28.839 255.26 27.916 254.822C26.1888 254.004 24.7671 252.656 23.8568 250.976C23.3704 250.077 23.0873 248.988 22.9183 247.373C22.7482 245.747 22.7009 243.679 22.6371 240.841L21.3731 184.593C21.3076 181.679 21.2607 179.555 21.3617 177.881C21.462 176.22 21.705 175.095 22.167 174.163C23.0318 172.418 24.4392 171.001 26.1779 170.124C27.1068 169.656 28.2295 169.405 29.8906 169.293C31.563 169.18 33.6876 169.212 36.6019 169.257Z" stroke="#FEEDEC" stroke-width="2"/>
<path d="M96.8506 216.047L100.104 224.168L103.358 216.047H105.061V226H103.748V222.124L103.871 217.94L100.604 226H99.5986L96.3379 217.961L96.4678 222.124V226H95.1553V216.047H96.8506ZM110.249 226.137C109.246 226.137 108.431 225.809 107.802 225.152C107.173 224.492 106.858 223.61 106.858 222.507V222.274C106.858 221.541 106.997 220.887 107.275 220.312C107.558 219.734 107.95 219.283 108.451 218.959C108.957 218.631 109.504 218.467 110.092 218.467C111.053 218.467 111.801 218.784 112.334 219.417C112.867 220.05 113.134 220.957 113.134 222.138V222.664H108.123C108.141 223.393 108.353 223.983 108.759 224.435C109.169 224.881 109.688 225.104 110.317 225.104C110.764 225.104 111.142 225.013 111.452 224.831C111.762 224.649 112.033 224.407 112.266 224.106L113.038 224.708C112.418 225.66 111.489 226.137 110.249 226.137ZM110.092 219.506C109.581 219.506 109.153 219.693 108.807 220.066C108.46 220.436 108.246 220.955 108.164 221.625H111.869V221.529C111.833 220.887 111.66 220.39 111.35 220.039C111.04 219.684 110.62 219.506 110.092 219.506ZM117.673 226.137C116.67 226.137 115.854 225.809 115.226 225.152C114.597 224.492 114.282 223.61 114.282 222.507V222.274C114.282 221.541 114.421 220.887 114.699 220.312C114.982 219.734 115.374 219.283 115.875 218.959C116.381 218.631 116.928 218.467 117.516 218.467C118.477 218.467 119.225 218.784 119.758 219.417C120.291 220.05 120.558 220.957 120.558 222.138V222.664H115.547C115.565 223.393 115.777 223.983 116.183 224.435C116.593 224.881 117.112 225.104 117.741 225.104C118.188 225.104 118.566 225.013 118.876 224.831C119.186 224.649 119.457 224.407 119.689 224.106L120.462 224.708C119.842 225.66 118.912 226.137 117.673 226.137ZM117.516 219.506C117.005 219.506 116.577 219.693 116.23 220.066C115.884 220.436 115.67 220.955 115.588 221.625H119.293V221.529C119.257 220.887 119.083 220.39 118.773 220.039C118.464 219.684 118.044 219.506 117.516 219.506ZM123.743 216.812V218.604H125.124V219.581H123.743V224.168C123.743 224.464 123.805 224.688 123.928 224.838C124.051 224.984 124.26 225.057 124.557 225.057C124.702 225.057 124.903 225.029 125.158 224.975V226C124.826 226.091 124.502 226.137 124.188 226.137C123.622 226.137 123.196 225.966 122.909 225.624C122.622 225.282 122.479 224.797 122.479 224.168V219.581H121.132V218.604H122.479V216.812H123.743ZM131.796 216.812V218.604H133.177V219.581H131.796V224.168C131.796 224.464 131.857 224.688 131.98 224.838C132.104 224.984 132.313 225.057 132.609 225.057C132.755 225.057 132.956 225.029 133.211 224.975V226C132.878 226.091 132.555 226.137 132.24 226.137C131.675 226.137 131.249 225.966 130.962 225.624C130.675 225.282 130.531 224.797 130.531 224.168V219.581H129.185V218.604H130.531V216.812H131.796ZM139.227 225.269C138.734 225.847 138.012 226.137 137.06 226.137C136.271 226.137 135.67 225.909 135.255 225.453C134.845 224.993 134.637 224.314 134.633 223.416V218.604H135.897V223.382C135.897 224.503 136.353 225.063 137.265 225.063C138.231 225.063 138.873 224.703 139.192 223.983V218.604H140.457V226H139.254L139.227 225.269ZM144.101 216.812V218.604H145.481V219.581H144.101V224.168C144.101 224.464 144.162 224.688 144.285 224.838C144.408 224.984 144.618 225.057 144.914 225.057C145.06 225.057 145.26 225.029 145.516 224.975V226C145.183 226.091 144.859 226.137 144.545 226.137C143.98 226.137 143.554 225.966 143.267 225.624C142.979 225.282 142.836 224.797 142.836 224.168V219.581H141.489V218.604H142.836V216.812H144.101ZM146.493 222.233C146.493 221.509 146.634 220.857 146.917 220.278C147.204 219.7 147.601 219.253 148.106 218.938C148.617 218.624 149.198 218.467 149.85 218.467C150.857 218.467 151.67 218.815 152.29 219.513C152.914 220.21 153.227 221.137 153.227 222.295V222.384C153.227 223.104 153.088 223.751 152.81 224.325C152.536 224.895 152.142 225.339 151.627 225.658C151.117 225.977 150.529 226.137 149.863 226.137C148.861 226.137 148.047 225.788 147.423 225.091C146.803 224.394 146.493 223.471 146.493 222.322V222.233ZM147.765 222.384C147.765 223.204 147.954 223.863 148.332 224.359C148.715 224.856 149.225 225.104 149.863 225.104C150.506 225.104 151.016 224.854 151.395 224.353C151.773 223.847 151.962 223.14 151.962 222.233C151.962 221.422 151.768 220.766 151.381 220.265C150.998 219.759 150.488 219.506 149.85 219.506C149.225 219.506 148.722 219.754 148.339 220.251C147.956 220.748 147.765 221.459 147.765 222.384ZM158.388 219.738C158.196 219.706 157.989 219.69 157.766 219.69C156.936 219.69 156.373 220.044 156.077 220.75V226H154.812V218.604H156.043L156.063 219.458C156.478 218.797 157.066 218.467 157.827 218.467C158.073 218.467 158.26 218.499 158.388 218.562V219.738ZM164.403 226H163.139V218.604H164.403V226ZM163.036 216.642C163.036 216.437 163.098 216.263 163.221 216.122C163.348 215.981 163.535 215.91 163.781 215.91C164.027 215.91 164.214 215.981 164.342 216.122C164.469 216.263 164.533 216.437 164.533 216.642C164.533 216.847 164.469 217.018 164.342 217.154C164.214 217.291 164.027 217.359 163.781 217.359C163.535 217.359 163.348 217.291 163.221 217.154C163.098 217.018 163.036 216.847 163.036 216.642ZM167.63 218.604L167.671 219.533C168.236 218.822 168.974 218.467 169.886 218.467C171.449 218.467 172.237 219.349 172.251 221.112V226H170.986V221.105C170.982 220.572 170.859 220.178 170.617 219.923C170.38 219.668 170.009 219.54 169.503 219.54C169.093 219.54 168.733 219.649 168.423 219.868C168.113 220.087 167.871 220.374 167.698 220.729V226H166.434V218.604H167.63ZM183.879 222.384C183.879 223.509 183.621 224.416 183.106 225.104C182.591 225.793 181.894 226.137 181.015 226.137C180.117 226.137 179.41 225.852 178.896 225.282V228.844H177.631V218.604H178.786L178.848 219.424C179.363 218.786 180.078 218.467 180.994 218.467C181.883 218.467 182.585 218.802 183.1 219.472C183.619 220.142 183.879 221.074 183.879 222.268V222.384ZM182.614 222.24C182.614 221.406 182.437 220.748 182.081 220.265C181.726 219.782 181.238 219.54 180.618 219.54C179.853 219.54 179.278 219.88 178.896 220.559V224.093C179.274 224.767 179.853 225.104 180.632 225.104C181.238 225.104 181.719 224.865 182.074 224.387C182.434 223.904 182.614 223.188 182.614 222.24ZM189.067 219.738C188.876 219.706 188.669 219.69 188.445 219.69C187.616 219.69 187.053 220.044 186.757 220.75V226H185.492V218.604H186.723L186.743 219.458C187.158 218.797 187.746 218.467 188.507 218.467C188.753 218.467 188.94 218.499 189.067 218.562V219.738ZM193.169 226.137C192.166 226.137 191.351 225.809 190.722 225.152C190.093 224.492 189.778 223.61 189.778 222.507V222.274C189.778 221.541 189.917 220.887 190.195 220.312C190.478 219.734 190.87 219.283 191.371 218.959C191.877 218.631 192.424 218.467 193.012 218.467C193.973 218.467 194.721 218.784 195.254 219.417C195.787 220.05 196.054 220.957 196.054 222.138V222.664H191.043C191.061 223.393 191.273 223.983 191.679 224.435C192.089 224.881 192.608 225.104 193.237 225.104C193.684 225.104 194.062 225.013 194.372 224.831C194.682 224.649 194.953 224.407 195.186 224.106L195.958 224.708C195.338 225.66 194.409 226.137 193.169 226.137ZM193.012 219.506C192.501 219.506 192.073 219.693 191.727 220.066C191.38 220.436 191.166 220.955 191.084 221.625H194.789V221.529C194.753 220.887 194.579 220.39 194.27 220.039C193.96 219.684 193.54 219.506 193.012 219.506ZM203.771 222.384C203.771 223.509 203.514 224.416 202.999 225.104C202.484 225.793 201.787 226.137 200.907 226.137C200.009 226.137 199.303 225.852 198.788 225.282V228.844H197.523V218.604H198.679L198.74 219.424C199.255 218.786 199.971 218.467 200.887 218.467C201.775 218.467 202.477 218.802 202.992 219.472C203.512 220.142 203.771 221.074 203.771 222.268V222.384ZM202.507 222.24C202.507 221.406 202.329 220.748 201.974 220.265C201.618 219.782 201.131 219.54 200.511 219.54C199.745 219.54 199.171 219.88 198.788 220.559V224.093C199.166 224.767 199.745 225.104 200.524 225.104C201.131 225.104 201.611 224.865 201.967 224.387C202.327 223.904 202.507 223.188 202.507 222.24ZM206.759 226H205.494V215.5H206.759V226ZM211.209 224.147L212.932 218.604H214.285L211.312 227.142C210.851 228.372 210.12 228.987 209.117 228.987L208.878 228.967L208.406 228.878V227.853L208.748 227.88C209.176 227.88 209.509 227.793 209.746 227.62C209.988 227.447 210.186 227.13 210.341 226.67L210.621 225.918L207.982 218.604H209.363L211.209 224.147ZM223.199 224.038C223.199 223.696 223.069 223.432 222.81 223.245C222.554 223.054 222.105 222.89 221.463 222.753C220.825 222.616 220.317 222.452 219.938 222.261C219.565 222.069 219.287 221.841 219.104 221.577C218.927 221.313 218.838 220.998 218.838 220.634C218.838 220.028 219.093 219.515 219.604 219.096C220.118 218.676 220.775 218.467 221.572 218.467C222.411 218.467 223.09 218.683 223.609 219.116C224.133 219.549 224.396 220.103 224.396 220.777H223.124C223.124 220.431 222.976 220.132 222.68 219.882C222.388 219.631 222.019 219.506 221.572 219.506C221.112 219.506 220.752 219.606 220.492 219.807C220.232 220.007 220.103 220.269 220.103 220.593C220.103 220.898 220.223 221.128 220.465 221.283C220.706 221.438 221.142 221.586 221.771 221.728C222.404 221.869 222.917 222.037 223.309 222.233C223.701 222.429 223.99 222.666 224.177 222.944C224.368 223.218 224.464 223.553 224.464 223.949C224.464 224.61 224.2 225.141 223.671 225.542C223.142 225.938 222.456 226.137 221.613 226.137C221.021 226.137 220.497 226.032 220.041 225.822C219.585 225.613 219.228 225.321 218.968 224.947C218.713 224.569 218.585 224.161 218.585 223.724H219.85C219.872 224.147 220.041 224.485 220.355 224.735C220.674 224.981 221.094 225.104 221.613 225.104C222.092 225.104 222.475 225.009 222.762 224.817C223.053 224.621 223.199 224.362 223.199 224.038ZM232.359 222.384C232.359 223.509 232.102 224.416 231.587 225.104C231.072 225.793 230.375 226.137 229.495 226.137C228.597 226.137 227.891 225.852 227.376 225.282V228.844H226.111V218.604H227.267L227.328 219.424C227.843 218.786 228.559 218.467 229.475 218.467C230.363 218.467 231.065 218.802 231.58 219.472C232.1 220.142 232.359 221.074 232.359 222.268V222.384ZM231.095 222.24C231.095 221.406 230.917 220.748 230.562 220.265C230.206 219.782 229.718 219.54 229.099 219.54C228.333 219.54 227.759 219.88 227.376 220.559V224.093C227.754 224.767 228.333 225.104 229.112 225.104C229.718 225.104 230.199 224.865 230.555 224.387C230.915 223.904 231.095 223.188 231.095 222.24ZM238.539 226C238.466 225.854 238.407 225.594 238.361 225.221C237.773 225.831 237.072 226.137 236.256 226.137C235.527 226.137 234.927 225.932 234.458 225.521C233.993 225.107 233.761 224.583 233.761 223.949C233.761 223.179 234.052 222.582 234.636 222.158C235.224 221.73 236.049 221.516 237.11 221.516H238.341V220.935C238.341 220.493 238.209 220.142 237.944 219.882C237.68 219.618 237.29 219.485 236.775 219.485C236.324 219.485 235.946 219.599 235.641 219.827C235.335 220.055 235.183 220.331 235.183 220.654H233.911C233.911 220.285 234.041 219.93 234.301 219.588C234.565 219.242 234.921 218.968 235.367 218.768C235.818 218.567 236.313 218.467 236.851 218.467C237.703 218.467 238.37 218.681 238.854 219.109C239.337 219.533 239.587 220.119 239.605 220.866V224.271C239.605 224.95 239.692 225.49 239.865 225.891V226H238.539ZM236.44 225.036C236.837 225.036 237.213 224.934 237.568 224.729C237.924 224.523 238.181 224.257 238.341 223.929V222.411H237.35C235.8 222.411 235.025 222.865 235.025 223.771C235.025 224.168 235.158 224.478 235.422 224.701C235.686 224.924 236.026 225.036 236.44 225.036ZM244.555 225.104C245.006 225.104 245.4 224.968 245.737 224.694C246.075 224.421 246.261 224.079 246.298 223.669H247.494C247.471 224.093 247.326 224.496 247.057 224.879C246.788 225.262 246.428 225.567 245.977 225.795C245.53 226.023 245.056 226.137 244.555 226.137C243.548 226.137 242.745 225.802 242.148 225.132C241.556 224.457 241.26 223.537 241.26 222.37V222.158C241.26 221.438 241.392 220.798 241.656 220.237C241.921 219.677 242.299 219.242 242.791 218.932C243.288 218.622 243.873 218.467 244.548 218.467C245.377 218.467 246.065 218.715 246.612 219.212C247.164 219.709 247.458 220.354 247.494 221.146H246.298C246.261 220.668 246.079 220.276 245.751 219.971C245.427 219.661 245.026 219.506 244.548 219.506C243.905 219.506 243.406 219.738 243.051 220.203C242.7 220.663 242.524 221.331 242.524 222.206V222.445C242.524 223.298 242.7 223.954 243.051 224.414C243.402 224.874 243.903 225.104 244.555 225.104ZM251.985 226.137C250.983 226.137 250.167 225.809 249.538 225.152C248.909 224.492 248.595 223.61 248.595 222.507V222.274C248.595 221.541 248.734 220.887 249.012 220.312C249.294 219.734 249.686 219.283 250.188 218.959C250.693 218.631 251.24 218.467 251.828 218.467C252.79 218.467 253.537 218.784 254.07 219.417C254.604 220.05 254.87 220.957 254.87 222.138V222.664H249.859C249.878 223.393 250.09 223.983 250.495 224.435C250.905 224.881 251.425 225.104 252.054 225.104C252.5 225.104 252.879 225.013 253.188 224.831C253.498 224.649 253.77 224.407 254.002 224.106L254.774 224.708C254.155 225.66 253.225 226.137 251.985 226.137ZM251.828 219.506C251.318 219.506 250.889 219.693 250.543 220.066C250.197 220.436 249.982 220.955 249.9 221.625H253.605V221.529C253.569 220.887 253.396 220.39 253.086 220.039C252.776 219.684 252.357 219.506 251.828 219.506Z" fill="#AEB5BC" fill-opacity="0.892974"/>
<rect opacity="0.275065" x="38" y="189" width="40" height="40" rx="20" fill="#FCC4C1"/>
<path fill-rule="evenodd" clip-rule="evenodd" d="M64 209.672C64 210.202 64.2107 210.711 64.5858 211.086L66 212.5V215.5H50V212.5L51.4142 211.086C51.7893 210.711 52 210.202 52 209.672V207.5C52 204.42 53.64 201.86 56.5 201.18V200.5C56.5 199.67 57.17 199 58 199C58.83 199 59.5 199.67 59.5 200.5V201.18C62.37 201.86 64 204.43 64 207.5V209.672ZM56.9626 203.126C55.1371 203.56 54 205.204 54 207.5V209.672C54 210.732 53.5786 211.75 52.8284 212.5L52 213.328V213.5H64V213.328L63.1716 212.5C62.4214 211.75 62 210.732 62 209.672V207.5C62 205.205 60.865 203.559 59.0389 203.126L59.0339 203.125C58.3529 202.964 57.6435 202.964 56.9626 203.126ZM55.5 216.5C55.5 217.6 56.625 218.5 58 218.5C59.375 218.5 60.5 217.6 60.5 216.5H55.5Z" fill="#F8463D"/>
<path opacity="0.71589" d="M97.1328 202.422H102.297V204H95.1562V192.625H97.1328V202.422ZM107.352 204.156C106.148 204.156 105.172 203.779 104.422 203.023C103.677 202.263 103.305 201.253 103.305 199.992V199.758C103.305 198.914 103.466 198.161 103.789 197.5C104.117 196.833 104.576 196.315 105.164 195.945C105.753 195.576 106.409 195.391 107.133 195.391C108.284 195.391 109.172 195.758 109.797 196.492C110.427 197.227 110.742 198.266 110.742 199.609V200.375H105.219C105.276 201.073 105.508 201.625 105.914 202.031C106.326 202.438 106.841 202.641 107.461 202.641C108.331 202.641 109.039 202.289 109.586 201.586L110.609 202.562C110.271 203.068 109.818 203.461 109.25 203.742C108.688 204.018 108.055 204.156 107.352 204.156ZM107.125 196.914C106.604 196.914 106.182 197.096 105.859 197.461C105.542 197.826 105.339 198.333 105.25 198.984H108.867V198.844C108.826 198.208 108.656 197.729 108.359 197.406C108.062 197.078 107.651 196.914 107.125 196.914ZM116.961 201.703C116.961 201.365 116.82 201.107 116.539 200.93C116.263 200.753 115.802 200.596 115.156 200.461C114.51 200.326 113.971 200.154 113.539 199.945C112.591 199.487 112.117 198.823 112.117 197.953C112.117 197.224 112.424 196.615 113.039 196.125C113.654 195.635 114.435 195.391 115.383 195.391C116.393 195.391 117.208 195.641 117.828 196.141C118.453 196.641 118.766 197.289 118.766 198.086H116.867C116.867 197.721 116.732 197.419 116.461 197.18C116.19 196.935 115.831 196.812 115.383 196.812C114.966 196.812 114.625 196.909 114.359 197.102C114.099 197.294 113.969 197.552 113.969 197.875C113.969 198.167 114.091 198.393 114.336 198.555C114.581 198.716 115.076 198.88 115.82 199.047C116.565 199.208 117.148 199.404 117.57 199.633C117.997 199.857 118.312 200.128 118.516 200.445C118.724 200.763 118.828 201.148 118.828 201.602C118.828 202.362 118.513 202.979 117.883 203.453C117.253 203.922 116.427 204.156 115.406 204.156C114.714 204.156 114.096 204.031 113.555 203.781C113.013 203.531 112.591 203.188 112.289 202.75C111.987 202.312 111.836 201.841 111.836 201.336H113.68C113.706 201.784 113.875 202.13 114.188 202.375C114.5 202.615 114.914 202.734 115.43 202.734C115.93 202.734 116.31 202.641 116.57 202.453C116.831 202.26 116.961 202.01 116.961 201.703ZM125.227 201.703C125.227 201.365 125.086 201.107 124.805 200.93C124.529 200.753 124.068 200.596 123.422 200.461C122.776 200.326 122.237 200.154 121.805 199.945C120.857 199.487 120.383 198.823 120.383 197.953C120.383 197.224 120.69 196.615 121.305 196.125C121.919 195.635 122.701 195.391 123.648 195.391C124.659 195.391 125.474 195.641 126.094 196.141C126.719 196.641 127.031 197.289 127.031 198.086H125.133C125.133 197.721 124.997 197.419 124.727 197.18C124.456 196.935 124.096 196.812 123.648 196.812C123.232 196.812 122.891 196.909 122.625 197.102C122.365 197.294 122.234 197.552 122.234 197.875C122.234 198.167 122.357 198.393 122.602 198.555C122.846 198.716 123.341 198.88 124.086 199.047C124.831 199.208 125.414 199.404 125.836 199.633C126.263 199.857 126.578 200.128 126.781 200.445C126.99 200.763 127.094 201.148 127.094 201.602C127.094 202.362 126.779 202.979 126.148 203.453C125.518 203.922 124.693 204.156 123.672 204.156C122.979 204.156 122.362 204.031 121.82 203.781C121.279 203.531 120.857 203.188 120.555 202.75C120.253 202.312 120.102 201.841 120.102 201.336H121.945C121.971 201.784 122.141 202.13 122.453 202.375C122.766 202.615 123.18 202.734 123.695 202.734C124.195 202.734 124.576 202.641 124.836 202.453C125.096 202.26 125.227 202.01 125.227 201.703ZM128.398 199.695C128.398 198.867 128.562 198.122 128.891 197.461C129.219 196.794 129.68 196.284 130.273 195.93C130.867 195.57 131.549 195.391 132.32 195.391C133.461 195.391 134.385 195.758 135.094 196.492C135.807 197.227 136.193 198.201 136.25 199.414L136.258 199.859C136.258 200.693 136.096 201.438 135.773 202.094C135.456 202.75 134.997 203.258 134.398 203.617C133.805 203.977 133.117 204.156 132.336 204.156C131.143 204.156 130.188 203.76 129.469 202.969C128.755 202.172 128.398 201.112 128.398 199.789V199.695ZM130.297 199.859C130.297 200.729 130.477 201.411 130.836 201.906C131.195 202.396 131.695 202.641 132.336 202.641C132.977 202.641 133.474 202.391 133.828 201.891C134.188 201.391 134.367 200.659 134.367 199.695C134.367 198.841 134.182 198.164 133.812 197.664C133.448 197.164 132.951 196.914 132.32 196.914C131.701 196.914 131.208 197.161 130.844 197.656C130.479 198.146 130.297 198.88 130.297 199.859ZM139.625 195.547L139.68 196.523C140.305 195.768 141.125 195.391 142.141 195.391C143.901 195.391 144.797 196.398 144.828 198.414V204H142.93V198.523C142.93 197.987 142.812 197.591 142.578 197.336C142.349 197.076 141.971 196.945 141.445 196.945C140.68 196.945 140.109 197.292 139.734 197.984V204H137.836V195.547H139.625ZM152.773 204H150.875V195.547H152.773V204ZM150.758 193.352C150.758 193.06 150.849 192.818 151.031 192.625C151.219 192.432 151.484 192.336 151.828 192.336C152.172 192.336 152.438 192.432 152.625 192.625C152.812 192.818 152.906 193.06 152.906 193.352C152.906 193.638 152.812 193.878 152.625 194.07C152.438 194.258 152.172 194.352 151.828 194.352C151.484 194.352 151.219 194.258 151.031 194.07C150.849 193.878 150.758 193.638 150.758 193.352ZM156.609 195.547L156.664 196.523C157.289 195.768 158.109 195.391 159.125 195.391C160.885 195.391 161.781 196.398 161.812 198.414V204H159.914V198.523C159.914 197.987 159.797 197.591 159.562 197.336C159.333 197.076 158.956 196.945 158.43 196.945C157.664 196.945 157.094 197.292 156.719 197.984V204H154.82V195.547H156.609ZM172.758 204H170.867V194.867L168.078 195.82V194.219L172.516 192.586H172.758V204ZM177.219 198.359L177.836 192.625H183.945V194.266H179.414L179.102 196.984C179.628 196.682 180.221 196.531 180.883 196.531C181.966 196.531 182.807 196.878 183.406 197.57C184.01 198.263 184.312 199.195 184.312 200.367C184.312 201.523 183.979 202.445 183.312 203.133C182.646 203.815 181.732 204.156 180.57 204.156C179.529 204.156 178.664 203.862 177.977 203.273C177.294 202.68 176.924 201.898 176.867 200.93H178.703C178.776 201.482 178.974 201.906 179.297 202.203C179.62 202.495 180.042 202.641 180.562 202.641C181.146 202.641 181.599 202.432 181.922 202.016C182.25 201.599 182.414 201.031 182.414 200.312C182.414 199.62 182.234 199.073 181.875 198.672C181.516 198.266 181.021 198.062 180.391 198.062C180.047 198.062 179.755 198.109 179.516 198.203C179.276 198.292 179.016 198.469 178.734 198.734L177.219 198.359ZM191.695 195.547L191.75 196.43C192.344 195.737 193.156 195.391 194.188 195.391C195.318 195.391 196.091 195.823 196.508 196.688C197.122 195.823 197.987 195.391 199.102 195.391C200.034 195.391 200.727 195.648 201.18 196.164C201.638 196.68 201.872 197.44 201.883 198.445V204H199.984V198.5C199.984 197.964 199.867 197.57 199.633 197.32C199.398 197.07 199.01 196.945 198.469 196.945C198.036 196.945 197.682 197.062 197.406 197.297C197.135 197.526 196.945 197.828 196.836 198.203L196.844 204H194.945V198.438C194.919 197.443 194.411 196.945 193.422 196.945C192.661 196.945 192.122 197.255 191.805 197.875V204H189.906V195.547H191.695ZM205.852 204H203.953V195.547H205.852V204ZM203.836 193.352C203.836 193.06 203.927 192.818 204.109 192.625C204.297 192.432 204.562 192.336 204.906 192.336C205.25 192.336 205.516 192.432 205.703 192.625C205.891 192.818 205.984 193.06 205.984 193.352C205.984 193.638 205.891 193.878 205.703 194.07C205.516 194.258 205.25 194.352 204.906 194.352C204.562 194.352 204.297 194.258 204.109 194.07C203.927 193.878 203.836 193.638 203.836 193.352ZM209.688 195.547L209.742 196.523C210.367 195.768 211.188 195.391 212.203 195.391C213.964 195.391 214.859 196.398 214.891 198.414V204H212.992V198.523C212.992 197.987 212.875 197.591 212.641 197.336C212.411 197.076 212.034 196.945 211.508 196.945C210.742 196.945 210.172 197.292 209.797 197.984V204H207.898V195.547H209.688ZM221.953 203.172C221.396 203.828 220.604 204.156 219.578 204.156C218.661 204.156 217.966 203.888 217.492 203.352C217.023 202.815 216.789 202.039 216.789 201.023V195.547H218.688V201C218.688 202.073 219.133 202.609 220.023 202.609C220.945 202.609 221.568 202.279 221.891 201.617V195.547H223.789V204H222L221.953 203.172ZM228.102 193.492V195.547H229.594V196.953H228.102V201.672C228.102 201.995 228.164 202.229 228.289 202.375C228.419 202.516 228.648 202.586 228.977 202.586C229.195 202.586 229.417 202.56 229.641 202.508V203.977C229.208 204.096 228.792 204.156 228.391 204.156C226.932 204.156 226.203 203.352 226.203 201.742V196.953H224.812V195.547H226.203V193.492H228.102ZM234.773 204.156C233.57 204.156 232.594 203.779 231.844 203.023C231.099 202.263 230.727 201.253 230.727 199.992V199.758C230.727 198.914 230.888 198.161 231.211 197.5C231.539 196.833 231.997 196.315 232.586 195.945C233.174 195.576 233.831 195.391 234.555 195.391C235.706 195.391 236.594 195.758 237.219 196.492C237.849 197.227 238.164 198.266 238.164 199.609V200.375H232.641C232.698 201.073 232.93 201.625 233.336 202.031C233.747 202.438 234.263 202.641 234.883 202.641C235.753 202.641 236.461 202.289 237.008 201.586L238.031 202.562C237.693 203.068 237.24 203.461 236.672 203.742C236.109 204.018 235.477 204.156 234.773 204.156ZM234.547 196.914C234.026 196.914 233.604 197.096 233.281 197.461C232.964 197.826 232.76 198.333 232.672 198.984H236.289V198.844C236.247 198.208 236.078 197.729 235.781 197.406C235.484 197.078 235.073 196.914 234.547 196.914ZM244.383 201.703C244.383 201.365 244.242 201.107 243.961 200.93C243.685 200.753 243.224 200.596 242.578 200.461C241.932 200.326 241.393 200.154 240.961 199.945C240.013 199.487 239.539 198.823 239.539 197.953C239.539 197.224 239.846 196.615 240.461 196.125C241.076 195.635 241.857 195.391 242.805 195.391C243.815 195.391 244.63 195.641 245.25 196.141C245.875 196.641 246.188 197.289 246.188 198.086H244.289C244.289 197.721 244.154 197.419 243.883 197.18C243.612 196.935 243.253 196.812 242.805 196.812C242.388 196.812 242.047 196.909 241.781 197.102C241.521 197.294 241.391 197.552 241.391 197.875C241.391 198.167 241.513 198.393 241.758 198.555C242.003 198.716 242.497 198.88 243.242 199.047C243.987 199.208 244.57 199.404 244.992 199.633C245.419 199.857 245.734 200.128 245.938 200.445C246.146 200.763 246.25 201.148 246.25 201.602C246.25 202.362 245.935 202.979 245.305 203.453C244.674 203.922 243.849 204.156 242.828 204.156C242.135 204.156 241.518 204.031 240.977 203.781C240.435 203.531 240.013 203.188 239.711 202.75C239.409 202.312 239.258 201.841 239.258 201.336H241.102C241.128 201.784 241.297 202.13 241.609 202.375C241.922 202.615 242.336 202.734 242.852 202.734C243.352 202.734 243.732 202.641 243.992 202.453C244.253 202.26 244.383 202.01 244.383 201.703Z" fill="#F8463D"/>
<path opacity="0.274298" fill-rule="evenodd" clip-rule="evenodd" d="M64 214.5H52V212L53.5 206.5L55.5 203.004H60.5L63 206.5L64 212V214.5Z" fill="#F8463D"/>
<path d="M185 251L269.304 247.793C273.601 247.629 277 244.099 277 239.799V221" stroke="#FA807A" stroke-width="2"/>
<path d="M38.199 65.7271L255.034 62.2853C258.161 62.2357 260.443 62.2003 262.231 62.3243C264.009 62.4475 265.196 62.7239 266.158 63.2377C267.962 64.2005 269.384 65.7486 270.19 67.6272C270.621 68.6298 270.795 69.8363 270.767 71.6178C270.739 73.4096 270.51 75.6807 270.196 78.7926L264.492 135.2C264.228 137.807 264.035 139.705 263.765 141.196C263.496 142.675 263.164 143.674 262.661 144.497C261.722 146.035 260.342 147.256 258.7 148.002C257.822 148.4 256.791 148.609 255.29 148.695C253.778 148.782 251.87 148.743 249.25 148.687L42.3703 144.304C39.8182 144.25 37.9611 144.21 36.4908 144.064C35.0328 143.92 34.0328 143.677 33.1854 143.257C31.6016 142.473 30.2839 141.239 29.3965 139.711C28.9218 138.893 28.6135 137.911 28.3729 136.466C28.1303 135.008 27.9677 133.158 27.7451 130.615L23.4942 82.0328C23.2324 79.0408 23.0423 76.8586 23.0363 75.134C23.0303 73.4204 23.2088 72.2548 23.6276 71.279C24.4118 69.4516 25.7792 67.9354 27.5161 66.9671C28.4437 66.4501 29.5847 66.1525 31.2898 65.982C33.0058 65.8104 35.196 65.7748 38.199 65.7271Z" stroke="#E4F5F6" stroke-width="2"/>
<path d="M27.5 125L28.7735 137.417C29.1877 141.455 32.5608 144.543 36.6199 144.6L101 145.5" stroke="#3BB3BD" stroke-width="2"/>
<rect x="41" y="84" width="42" height="42" rx="21" fill="#E4F5F6" stroke="#E4F5F6" stroke-width="2"/>
<path fill-rule="evenodd" clip-rule="evenodd" d="M58 97C55.7909 97 54 98.7909 54 101V106C54 108.209 55.7909 110 58 110H57.5V114V115.04L58.3123 114.39L63.3123 110.39L63 110H66C68.2091 110 70 108.209 70 106V101C70 98.7909 68.2091 97 66 97H58ZM62.1996 110H58.5V112.96L62.1996 110Z" fill="#3BB3BD" fill-opacity="0.268466"/>
<path d="M57.5 110V109H56.5V110H57.5ZM57.5 115.04H56.5V117.121L58.1247 115.821L57.5 115.04ZM58.3123 114.39L58.937 115.171L58.3123 114.39ZM63.3123 110.39L63.937 111.171L64.7179 110.547L64.0932 109.766L63.3123 110.39ZM63 110V109H60.9194L62.2191 110.625L63 110ZM62.1996 110L62.8243 110.781L65.0504 109H62.1996V110ZM58.5 110V109H57.5V110H58.5ZM58.5 112.96H57.5V115.04L59.1247 113.741L58.5 112.96ZM55 101C55 99.3431 56.3431 98 58 98V96C55.2386 96 53 98.2386 53 101H55ZM55 106V101H53V106H55ZM58 109C56.3431 109 55 107.657 55 106H53C53 108.761 55.2386 111 58 111V109ZM57.5 111H58V109H57.5V111ZM58.5 114V110H56.5V114H58.5ZM58.5 115.04V114H56.5V115.04H58.5ZM57.6877 113.61L56.8753 114.259L58.1247 115.821L58.937 115.171L57.6877 113.61ZM62.6877 109.61L57.6877 113.61L58.937 115.171L63.937 111.171L62.6877 109.61ZM62.2191 110.625L62.5315 111.015L64.0932 109.766L63.7809 109.375L62.2191 110.625ZM66 109H63V111H66V109ZM69 106C69 107.657 67.6569 109 66 109V111C68.7614 111 71 108.761 71 106H69ZM69 101V106H71V101H69ZM66 98C67.6569 98 69 99.3431 69 101H71C71 98.2386 68.7614 96 66 96V98ZM58 98H66V96H58V98ZM62.1996 109H58.5V111H62.1996V109ZM57.5 110V112.96H59.5V110H57.5ZM59.1247 113.741L62.8243 110.781L61.5749 109.219L57.8753 112.179L59.1247 113.741Z" fill="#3BB3BD"/>
<path opacity="0.783459" d="M101.719 87.625L105 96.3438L108.273 87.625H110.828V99H108.859V95.25L109.055 90.2344L105.695 99H104.281L100.93 90.2422L101.125 95.25V99H99.1562V87.625H101.719ZM116.711 99.1562C115.508 99.1562 114.531 98.7786 113.781 98.0234C113.036 97.263 112.664 96.2526 112.664 94.9922V94.7578C112.664 93.9141 112.826 93.1615 113.148 92.5C113.477 91.8333 113.935 91.3151 114.523 90.9453C115.112 90.5755 115.768 90.3906 116.492 90.3906C117.643 90.3906 118.531 90.7578 119.156 91.4922C119.786 92.2266 120.102 93.2656 120.102 94.6094V95.375H114.578C114.635 96.0729 114.867 96.625 115.273 97.0312C115.685 97.4375 116.201 97.6406 116.82 97.6406C117.69 97.6406 118.398 97.2891 118.945 96.5859L119.969 97.5625C119.63 98.0677 119.177 98.4609 118.609 98.7422C118.047 99.0182 117.414 99.1562 116.711 99.1562ZM116.484 91.9141C115.964 91.9141 115.542 92.0964 115.219 92.4609C114.901 92.8255 114.698 93.3333 114.609 93.9844H118.227V93.8438C118.185 93.2083 118.016 92.7292 117.719 92.4062C117.422 92.0781 117.01 91.9141 116.484 91.9141ZM126.32 96.7031C126.32 96.3646 126.18 96.1068 125.898 95.9297C125.622 95.7526 125.161 95.5964 124.516 95.4609C123.87 95.3255 123.331 95.1536 122.898 94.9453C121.951 94.487 121.477 93.8229 121.477 92.9531C121.477 92.224 121.784 91.6146 122.398 91.125C123.013 90.6354 123.794 90.3906 124.742 90.3906C125.753 90.3906 126.568 90.6406 127.188 91.1406C127.812 91.6406 128.125 92.2891 128.125 93.0859H126.227C126.227 92.7214 126.091 92.4193 125.82 92.1797C125.549 91.9349 125.19 91.8125 124.742 91.8125C124.326 91.8125 123.984 91.9089 123.719 92.1016C123.458 92.2943 123.328 92.5521 123.328 92.875C123.328 93.1667 123.451 93.3932 123.695 93.5547C123.94 93.7161 124.435 93.8802 125.18 94.0469C125.924 94.2083 126.508 94.4036 126.93 94.6328C127.357 94.8568 127.672 95.1276 127.875 95.4453C128.083 95.763 128.188 96.1484 128.188 96.6016C128.188 97.362 127.872 97.9792 127.242 98.4531C126.612 98.9219 125.786 99.1562 124.766 99.1562C124.073 99.1562 123.456 99.0312 122.914 98.7812C122.372 98.5312 121.951 98.1875 121.648 97.75C121.346 97.3125 121.195 96.8411 121.195 96.3359H123.039C123.065 96.7839 123.234 97.1302 123.547 97.375C123.859 97.6146 124.273 97.7344 124.789 97.7344C125.289 97.7344 125.669 97.6406 125.93 97.4531C126.19 97.2604 126.32 97.0104 126.32 96.7031ZM134.586 96.7031C134.586 96.3646 134.445 96.1068 134.164 95.9297C133.888 95.7526 133.427 95.5964 132.781 95.4609C132.135 95.3255 131.596 95.1536 131.164 94.9453C130.216 94.487 129.742 93.8229 129.742 92.9531C129.742 92.224 130.049 91.6146 130.664 91.125C131.279 90.6354 132.06 90.3906 133.008 90.3906C134.018 90.3906 134.833 90.6406 135.453 91.1406C136.078 91.6406 136.391 92.2891 136.391 93.0859H134.492C134.492 92.7214 134.357 92.4193 134.086 92.1797C133.815 91.9349 133.456 91.8125 133.008 91.8125C132.591 91.8125 132.25 91.9089 131.984 92.1016C131.724 92.2943 131.594 92.5521 131.594 92.875C131.594 93.1667 131.716 93.3932 131.961 93.5547C132.206 93.7161 132.701 93.8802 133.445 94.0469C134.19 94.2083 134.773 94.4036 135.195 94.6328C135.622 94.8568 135.938 95.1276 136.141 95.4453C136.349 95.763 136.453 96.1484 136.453 96.6016C136.453 97.362 136.138 97.9792 135.508 98.4531C134.878 98.9219 134.052 99.1562 133.031 99.1562C132.339 99.1562 131.721 99.0312 131.18 98.7812C130.638 98.5312 130.216 98.1875 129.914 97.75C129.612 97.3125 129.461 96.8411 129.461 96.3359H131.305C131.331 96.7839 131.5 97.1302 131.812 97.375C132.125 97.6146 132.539 97.7344 133.055 97.7344C133.555 97.7344 133.935 97.6406 134.195 97.4531C134.456 97.2604 134.586 97.0104 134.586 96.7031ZM143.164 99C143.081 98.8385 143.008 98.5755 142.945 98.2109C142.341 98.8411 141.602 99.1562 140.727 99.1562C139.878 99.1562 139.185 98.9141 138.648 98.4297C138.112 97.9453 137.844 97.3464 137.844 96.6328C137.844 95.7318 138.177 95.0417 138.844 94.5625C139.516 94.0781 140.474 93.8359 141.719 93.8359H142.883V93.2812C142.883 92.8438 142.76 92.4948 142.516 92.2344C142.271 91.9688 141.898 91.8359 141.398 91.8359C140.966 91.8359 140.612 91.9453 140.336 92.1641C140.06 92.3776 139.922 92.651 139.922 92.9844H138.023C138.023 92.5208 138.177 92.0885 138.484 91.6875C138.792 91.2812 139.208 90.9635 139.734 90.7344C140.266 90.5052 140.857 90.3906 141.508 90.3906C142.497 90.3906 143.286 90.6406 143.875 91.1406C144.464 91.6354 144.766 92.3333 144.781 93.2344V97.0469C144.781 97.8073 144.888 98.4141 145.102 98.8672V99H143.164ZM141.078 97.6328C141.453 97.6328 141.805 97.5417 142.133 97.3594C142.466 97.1771 142.716 96.9323 142.883 96.625V95.0312H141.859C141.156 95.0312 140.628 95.1536 140.273 95.3984C139.919 95.6432 139.742 95.9896 139.742 96.4375C139.742 96.8021 139.862 97.0938 140.102 97.3125C140.346 97.526 140.672 97.6328 141.078 97.6328ZM146.438 94.7109C146.438 93.3984 146.745 92.3516 147.359 91.5703C147.979 90.7839 148.799 90.3906 149.82 90.3906C150.784 90.3906 151.542 90.7266 152.094 91.3984L152.18 90.5469H153.891V98.7422C153.891 99.8516 153.544 100.727 152.852 101.367C152.164 102.008 151.234 102.328 150.062 102.328C149.443 102.328 148.836 102.198 148.242 101.938C147.654 101.682 147.206 101.346 146.898 100.93L147.797 99.7891C148.38 100.482 149.099 100.828 149.953 100.828C150.583 100.828 151.081 100.656 151.445 100.312C151.81 99.974 151.992 99.474 151.992 98.8125V98.2422C151.445 98.8516 150.716 99.1562 149.805 99.1562C148.815 99.1562 148.005 98.763 147.375 97.9766C146.75 97.1901 146.438 96.1016 146.438 94.7109ZM148.328 94.875C148.328 95.724 148.5 96.3932 148.844 96.8828C149.193 97.3672 149.674 97.6094 150.289 97.6094C151.055 97.6094 151.622 97.2812 151.992 96.625V92.9062C151.633 92.2656 151.07 91.9453 150.305 91.9453C149.68 91.9453 149.193 92.1927 148.844 92.6875C148.5 93.1823 148.328 93.9115 148.328 94.875ZM159.57 99.1562C158.367 99.1562 157.391 98.7786 156.641 98.0234C155.896 97.263 155.523 96.2526 155.523 94.9922V94.7578C155.523 93.9141 155.685 93.1615 156.008 92.5C156.336 91.8333 156.794 91.3151 157.383 90.9453C157.971 90.5755 158.628 90.3906 159.352 90.3906C160.503 90.3906 161.391 90.7578 162.016 91.4922C162.646 92.2266 162.961 93.2656 162.961 94.6094V95.375H157.438C157.495 96.0729 157.727 96.625 158.133 97.0312C158.544 97.4375 159.06 97.6406 159.68 97.6406C160.549 97.6406 161.258 97.2891 161.805 96.5859L162.828 97.5625C162.49 98.0677 162.036 98.4609 161.469 98.7422C160.906 99.0182 160.273 99.1562 159.57 99.1562ZM159.344 91.9141C158.823 91.9141 158.401 92.0964 158.078 92.4609C157.76 92.8255 157.557 93.3333 157.469 93.9844H161.086V93.8438C161.044 93.2083 160.875 92.7292 160.578 92.4062C160.281 92.0781 159.87 91.9141 159.344 91.9141ZM169.094 99V91.9531H167.805V90.5469H169.094V89.7734C169.094 88.8359 169.354 88.112 169.875 87.6016C170.396 87.0911 171.125 86.8359 172.062 86.8359C172.396 86.8359 172.75 86.8828 173.125 86.9766L173.078 88.4609C172.87 88.4193 172.628 88.3984 172.352 88.3984C171.445 88.3984 170.992 88.8646 170.992 89.7969V90.5469H172.711V91.9531H170.992V99H169.094ZM178.523 92.2812C178.273 92.2396 178.016 92.2188 177.75 92.2188C176.88 92.2188 176.294 92.5521 175.992 93.2188V99H174.094V90.5469H175.906L175.953 91.4922C176.411 90.7578 177.047 90.3906 177.859 90.3906C178.13 90.3906 178.354 90.4271 178.531 90.5L178.523 92.2812ZM179.086 94.6953C179.086 93.8672 179.25 93.1224 179.578 92.4609C179.906 91.7943 180.367 91.2839 180.961 90.9297C181.555 90.5703 182.237 90.3906 183.008 90.3906C184.148 90.3906 185.073 90.7578 185.781 91.4922C186.495 92.2266 186.88 93.2005 186.938 94.4141L186.945 94.8594C186.945 95.6927 186.784 96.4375 186.461 97.0938C186.143 97.75 185.685 98.2578 185.086 98.6172C184.492 98.9766 183.805 99.1562 183.023 99.1562C181.831 99.1562 180.875 98.7604 180.156 97.9688C179.443 97.1719 179.086 96.112 179.086 94.7891V94.6953ZM180.984 94.8594C180.984 95.7292 181.164 96.4115 181.523 96.9062C181.883 97.3958 182.383 97.6406 183.023 97.6406C183.664 97.6406 184.161 97.3906 184.516 96.8906C184.875 96.3906 185.055 95.6589 185.055 94.6953C185.055 93.8411 184.87 93.1641 184.5 92.6641C184.135 92.1641 183.638 91.9141 183.008 91.9141C182.388 91.9141 181.896 92.1615 181.531 92.6562C181.167 93.1458 180.984 93.8802 180.984 94.8594ZM190.336 90.5469L190.391 91.4297C190.984 90.737 191.797 90.3906 192.828 90.3906C193.958 90.3906 194.732 90.8229 195.148 91.6875C195.763 90.8229 196.628 90.3906 197.742 90.3906C198.674 90.3906 199.367 90.6484 199.82 91.1641C200.279 91.6797 200.513 92.4401 200.523 93.4453V99H198.625V93.5C198.625 92.9635 198.508 92.5703 198.273 92.3203C198.039 92.0703 197.651 91.9453 197.109 91.9453C196.677 91.9453 196.323 92.0625 196.047 92.2969C195.776 92.526 195.586 92.8281 195.477 93.2031L195.484 99H193.586V93.4375C193.56 92.4427 193.052 91.9453 192.062 91.9453C191.302 91.9453 190.763 92.2552 190.445 92.875V99H188.547V90.5469H190.336ZM208.836 88.4922V90.5469H210.328V91.9531H208.836V96.6719C208.836 96.9948 208.898 97.2292 209.023 97.375C209.154 97.5156 209.383 97.5859 209.711 97.5859C209.93 97.5859 210.151 97.5599 210.375 97.5078V98.9766C209.943 99.0964 209.526 99.1562 209.125 99.1562C207.667 99.1562 206.938 98.3516 206.938 96.7422V91.9531H205.547V90.5469H206.938V88.4922H208.836ZM216.906 98.1719C216.349 98.8281 215.557 99.1562 214.531 99.1562C213.615 99.1562 212.919 98.888 212.445 98.3516C211.977 97.8151 211.742 97.0391 211.742 96.0234V90.5469H213.641V96C213.641 97.0729 214.086 97.6094 214.977 97.6094C215.898 97.6094 216.521 97.2786 216.844 96.6172V90.5469H218.742V99H216.953L216.906 98.1719ZM223.055 88.4922V90.5469H224.547V91.9531H223.055V96.6719C223.055 96.9948 223.117 97.2292 223.242 97.375C223.372 97.5156 223.602 97.5859 223.93 97.5859C224.148 97.5859 224.37 97.5599 224.594 97.5078V98.9766C224.161 99.0964 223.745 99.1562 223.344 99.1562C221.885 99.1562 221.156 98.3516 221.156 96.7422V91.9531H219.766V90.5469H221.156V88.4922H223.055ZM225.414 94.6953C225.414 93.8672 225.578 93.1224 225.906 92.4609C226.234 91.7943 226.695 91.2839 227.289 90.9297C227.883 90.5703 228.565 90.3906 229.336 90.3906C230.477 90.3906 231.401 90.7578 232.109 91.4922C232.823 92.2266 233.208 93.2005 233.266 94.4141L233.273 94.8594C233.273 95.6927 233.112 96.4375 232.789 97.0938C232.471 97.75 232.013 98.2578 231.414 98.6172C230.82 98.9766 230.133 99.1562 229.352 99.1562C228.159 99.1562 227.203 98.7604 226.484 97.9688C225.771 97.1719 225.414 96.112 225.414 94.7891V94.6953ZM227.312 94.8594C227.312 95.7292 227.492 96.4115 227.852 96.9062C228.211 97.3958 228.711 97.6406 229.352 97.6406C229.992 97.6406 230.49 97.3906 230.844 96.8906C231.203 96.3906 231.383 95.6589 231.383 94.6953C231.383 93.8411 231.198 93.1641 230.828 92.6641C230.464 92.1641 229.966 91.9141 229.336 91.9141C228.716 91.9141 228.224 92.1615 227.859 92.6562C227.495 93.1458 227.312 93.8802 227.312 94.8594ZM239.305 92.2812C239.055 92.2396 238.797 92.2188 238.531 92.2188C237.661 92.2188 237.076 92.5521 236.773 93.2188V99H234.875V90.5469H236.688L236.734 91.4922C237.193 90.7578 237.828 90.3906 238.641 90.3906C238.911 90.3906 239.135 90.4271 239.312 90.5L239.305 92.2812Z" fill="#3BB3BD"/>
<path d="M106.812 116.345C106.812 117.32 106.647 118.172 106.319 118.901C105.991 119.626 105.526 120.18 104.925 120.562C104.323 120.945 103.621 121.137 102.819 121.137C102.035 121.137 101.34 120.945 100.734 120.562C100.128 120.175 99.6566 119.626 99.3193 118.915C98.9867 118.2 98.8158 117.372 98.8066 116.434V115.716C98.8066 114.759 98.973 113.913 99.3057 113.18C99.6383 112.446 100.108 111.885 100.714 111.498C101.325 111.106 102.022 110.91 102.806 110.91C103.603 110.91 104.305 111.104 104.911 111.491C105.522 111.874 105.991 112.432 106.319 113.166C106.647 113.895 106.812 114.745 106.812 115.716V116.345ZM105.506 115.702C105.506 114.522 105.269 113.617 104.795 112.988C104.321 112.355 103.658 112.038 102.806 112.038C101.976 112.038 101.322 112.355 100.844 112.988C100.37 113.617 100.126 114.492 100.112 115.613V116.345C100.112 117.489 100.352 118.389 100.83 119.045C101.313 119.697 101.976 120.022 102.819 120.022C103.667 120.022 104.323 119.715 104.788 119.1C105.253 118.48 105.492 117.593 105.506 116.44V115.702ZM114.83 117.384C114.83 118.509 114.573 119.416 114.058 120.104C113.543 120.793 112.845 121.137 111.966 121.137C111.068 121.137 110.362 120.852 109.847 120.282V123.844H108.582V113.604H109.737L109.799 114.424C110.314 113.786 111.029 113.467 111.945 113.467C112.834 113.467 113.536 113.802 114.051 114.472C114.57 115.142 114.83 116.074 114.83 117.268V117.384ZM113.565 117.24C113.565 116.406 113.388 115.748 113.032 115.265C112.677 114.782 112.189 114.54 111.569 114.54C110.804 114.54 110.229 114.88 109.847 115.559V119.093C110.225 119.767 110.804 120.104 111.583 120.104C112.189 120.104 112.67 119.865 113.025 119.387C113.385 118.904 113.565 118.188 113.565 117.24ZM119.513 121.137C118.51 121.137 117.694 120.809 117.065 120.152C116.437 119.492 116.122 118.61 116.122 117.507V117.274C116.122 116.541 116.261 115.887 116.539 115.312C116.822 114.734 117.214 114.283 117.715 113.959C118.221 113.631 118.768 113.467 119.355 113.467C120.317 113.467 121.064 113.784 121.598 114.417C122.131 115.05 122.397 115.957 122.397 117.138V117.664H117.387C117.405 118.393 117.617 118.983 118.022 119.435C118.433 119.881 118.952 120.104 119.581 120.104C120.028 120.104 120.406 120.013 120.716 119.831C121.026 119.649 121.297 119.407 121.529 119.106L122.302 119.708C121.682 120.66 120.752 121.137 119.513 121.137ZM119.355 114.506C118.845 114.506 118.417 114.693 118.07 115.066C117.724 115.436 117.51 115.955 117.428 116.625H121.133V116.529C121.096 115.887 120.923 115.39 120.613 115.039C120.303 114.684 119.884 114.506 119.355 114.506ZM125.063 113.604L125.104 114.533C125.67 113.822 126.408 113.467 127.319 113.467C128.882 113.467 129.671 114.349 129.685 116.112V121H128.42V116.105C128.415 115.572 128.292 115.178 128.051 114.923C127.814 114.668 127.442 114.54 126.937 114.54C126.526 114.54 126.166 114.649 125.856 114.868C125.547 115.087 125.305 115.374 125.132 115.729V121H123.867V113.604H125.063ZM136.78 111.812V113.604H138.161V114.581H136.78V119.168C136.78 119.464 136.842 119.688 136.965 119.838C137.088 119.984 137.298 120.057 137.594 120.057C137.74 120.057 137.94 120.029 138.195 119.975V121C137.863 121.091 137.539 121.137 137.225 121.137C136.66 121.137 136.233 120.966 135.946 120.624C135.659 120.282 135.516 119.797 135.516 119.168V114.581H134.169V113.604H135.516V111.812H136.78ZM139.173 117.233C139.173 116.509 139.314 115.857 139.597 115.278C139.884 114.7 140.28 114.253 140.786 113.938C141.297 113.624 141.878 113.467 142.529 113.467C143.536 113.467 144.35 113.815 144.97 114.513C145.594 115.21 145.906 116.137 145.906 117.295V117.384C145.906 118.104 145.767 118.751 145.489 119.325C145.216 119.895 144.822 120.339 144.307 120.658C143.796 120.977 143.208 121.137 142.543 121.137C141.54 121.137 140.727 120.788 140.103 120.091C139.483 119.394 139.173 118.471 139.173 117.322V117.233ZM140.444 117.384C140.444 118.204 140.633 118.863 141.012 119.359C141.395 119.856 141.905 120.104 142.543 120.104C143.186 120.104 143.696 119.854 144.074 119.353C144.452 118.847 144.642 118.14 144.642 117.233C144.642 116.422 144.448 115.766 144.061 115.265C143.678 114.759 143.167 114.506 142.529 114.506C141.905 114.506 141.401 114.754 141.019 115.251C140.636 115.748 140.444 116.459 140.444 117.384ZM153.405 119.284L155.237 113.604H156.529L153.877 121H152.913L150.233 113.604H151.525L153.405 119.284ZM159.12 121H157.855V113.604H159.12V121ZM157.753 111.642C157.753 111.437 157.814 111.263 157.938 111.122C158.065 110.981 158.252 110.91 158.498 110.91C158.744 110.91 158.931 110.981 159.059 111.122C159.186 111.263 159.25 111.437 159.25 111.642C159.25 111.847 159.186 112.018 159.059 112.154C158.931 112.291 158.744 112.359 158.498 112.359C158.252 112.359 158.065 112.291 157.938 112.154C157.814 112.018 157.753 111.847 157.753 111.642ZM164.22 121.137C163.217 121.137 162.401 120.809 161.772 120.152C161.144 119.492 160.829 118.61 160.829 117.507V117.274C160.829 116.541 160.968 115.887 161.246 115.312C161.529 114.734 161.921 114.283 162.422 113.959C162.928 113.631 163.475 113.467 164.062 113.467C165.024 113.467 165.771 113.784 166.305 114.417C166.838 115.05 167.104 115.957 167.104 117.138V117.664H162.094C162.112 118.393 162.324 118.983 162.729 119.435C163.14 119.881 163.659 120.104 164.288 120.104C164.735 120.104 165.113 120.013 165.423 119.831C165.733 119.649 166.004 119.407 166.236 119.106L167.009 119.708C166.389 120.66 165.459 121.137 164.22 121.137ZM164.062 114.506C163.552 114.506 163.124 114.693 162.777 115.066C162.431 115.436 162.217 115.955 162.135 116.625H165.84V116.529C165.803 115.887 165.63 115.39 165.32 115.039C165.01 114.684 164.591 114.506 164.062 114.506ZM175.123 119.257L176.545 113.604H177.81L175.656 121H174.631L172.833 115.395L171.083 121H170.058L167.911 113.604H169.169L170.625 119.141L172.348 113.604H173.366L175.123 119.257ZM187.141 121C187.068 120.854 187.008 120.594 186.963 120.221C186.375 120.831 185.673 121.137 184.857 121.137C184.128 121.137 183.529 120.932 183.06 120.521C182.595 120.107 182.362 119.583 182.362 118.949C182.362 118.179 182.654 117.582 183.237 117.158C183.825 116.73 184.65 116.516 185.712 116.516H186.942V115.935C186.942 115.493 186.81 115.142 186.546 114.882C186.282 114.618 185.892 114.485 185.377 114.485C184.926 114.485 184.548 114.599 184.242 114.827C183.937 115.055 183.784 115.331 183.784 115.654H182.513C182.513 115.285 182.643 114.93 182.902 114.588C183.167 114.242 183.522 113.968 183.969 113.768C184.42 113.567 184.914 113.467 185.452 113.467C186.304 113.467 186.972 113.681 187.455 114.109C187.938 114.533 188.189 115.119 188.207 115.866V119.271C188.207 119.95 188.294 120.49 188.467 120.891V121H187.141ZM185.042 120.036C185.438 120.036 185.814 119.934 186.17 119.729C186.525 119.523 186.783 119.257 186.942 118.929V117.411H185.951C184.402 117.411 183.627 117.865 183.627 118.771C183.627 119.168 183.759 119.478 184.023 119.701C184.288 119.924 184.627 120.036 185.042 120.036ZM191.905 111.812V113.604H193.286V114.581H191.905V119.168C191.905 119.464 191.967 119.688 192.09 119.838C192.213 119.984 192.423 120.057 192.719 120.057C192.865 120.057 193.065 120.029 193.32 119.975V121C192.988 121.091 192.664 121.137 192.35 121.137C191.785 121.137 191.358 120.966 191.071 120.624C190.784 120.282 190.641 119.797 190.641 119.168V114.581H189.294V113.604H190.641V111.812H191.905ZM196.485 111.812V113.604H197.866V114.581H196.485V119.168C196.485 119.464 196.547 119.688 196.67 119.838C196.793 119.984 197.003 120.057 197.299 120.057C197.445 120.057 197.645 120.029 197.9 119.975V121C197.568 121.091 197.244 121.137 196.93 121.137C196.365 121.137 195.938 120.966 195.651 120.624C195.364 120.282 195.221 119.797 195.221 119.168V114.581H193.874V113.604H195.221V111.812H196.485ZM203.916 121C203.843 120.854 203.784 120.594 203.738 120.221C203.15 120.831 202.449 121.137 201.633 121.137C200.904 121.137 200.304 120.932 199.835 120.521C199.37 120.107 199.138 119.583 199.138 118.949C199.138 118.179 199.429 117.582 200.013 117.158C200.601 116.73 201.425 116.516 202.487 116.516H203.718V115.935C203.718 115.493 203.586 115.142 203.321 114.882C203.057 114.618 202.667 114.485 202.152 114.485C201.701 114.485 201.323 114.599 201.018 114.827C200.712 115.055 200.56 115.331 200.56 115.654H199.288C199.288 115.285 199.418 114.93 199.678 114.588C199.942 114.242 200.298 113.968 200.744 113.768C201.195 113.567 201.69 113.467 202.228 113.467C203.08 113.467 203.747 113.681 204.23 114.109C204.714 114.533 204.964 115.119 204.982 115.866V119.271C204.982 119.95 205.069 120.49 205.242 120.891V121H203.916ZM201.817 120.036C202.214 120.036 202.59 119.934 202.945 119.729C203.301 119.523 203.558 119.257 203.718 118.929V117.411H202.727C201.177 117.411 200.402 117.865 200.402 118.771C200.402 119.168 200.535 119.478 200.799 119.701C201.063 119.924 201.403 120.036 201.817 120.036ZM209.932 120.104C210.383 120.104 210.777 119.968 211.114 119.694C211.451 119.421 211.638 119.079 211.675 118.669H212.871C212.848 119.093 212.702 119.496 212.434 119.879C212.165 120.262 211.805 120.567 211.354 120.795C210.907 121.023 210.433 121.137 209.932 121.137C208.924 121.137 208.122 120.802 207.525 120.132C206.933 119.457 206.637 118.537 206.637 117.37V117.158C206.637 116.438 206.769 115.798 207.033 115.237C207.298 114.677 207.676 114.242 208.168 113.932C208.665 113.622 209.25 113.467 209.925 113.467C210.754 113.467 211.442 113.715 211.989 114.212C212.541 114.709 212.835 115.354 212.871 116.146H211.675C211.638 115.668 211.456 115.276 211.128 114.971C210.804 114.661 210.403 114.506 209.925 114.506C209.282 114.506 208.783 114.738 208.428 115.203C208.077 115.663 207.901 116.331 207.901 117.206V117.445C207.901 118.298 208.077 118.954 208.428 119.414C208.779 119.874 209.28 120.104 209.932 120.104ZM215.482 113.604L215.517 114.424C216.059 113.786 216.79 113.467 217.711 113.467C218.745 113.467 219.45 113.863 219.823 114.656C220.069 114.301 220.388 114.014 220.78 113.795C221.177 113.576 221.644 113.467 222.182 113.467C223.804 113.467 224.629 114.326 224.656 116.044V121H223.392V116.119C223.392 115.59 223.271 115.196 223.029 114.937C222.788 114.672 222.382 114.54 221.812 114.54C221.343 114.54 220.953 114.681 220.644 114.964C220.334 115.242 220.154 115.618 220.104 116.092V121H218.832V116.153C218.832 115.078 218.306 114.54 217.253 114.54C216.424 114.54 215.856 114.893 215.551 115.6V121H214.286V113.604H215.482ZM229.64 121.137C228.637 121.137 227.821 120.809 227.192 120.152C226.563 119.492 226.249 118.61 226.249 117.507V117.274C226.249 116.541 226.388 115.887 226.666 115.312C226.949 114.734 227.34 114.283 227.842 113.959C228.348 113.631 228.895 113.467 229.482 113.467C230.444 113.467 231.191 113.784 231.725 114.417C232.258 115.05 232.524 115.957 232.524 117.138V117.664H227.514C227.532 118.393 227.744 118.983 228.149 119.435C228.56 119.881 229.079 120.104 229.708 120.104C230.155 120.104 230.533 120.013 230.843 119.831C231.153 119.649 231.424 119.407 231.656 119.106L232.429 119.708C231.809 120.66 230.879 121.137 229.64 121.137ZM229.482 114.506C228.972 114.506 228.544 114.693 228.197 115.066C227.851 115.436 227.637 115.955 227.555 116.625H231.26V116.529C231.223 115.887 231.05 115.39 230.74 115.039C230.43 114.684 230.011 114.506 229.482 114.506ZM235.19 113.604L235.231 114.533C235.797 113.822 236.535 113.467 237.446 113.467C239.009 113.467 239.798 114.349 239.812 116.112V121H238.547V116.105C238.542 115.572 238.419 115.178 238.178 114.923C237.941 114.668 237.569 114.54 237.063 114.54C236.653 114.54 236.293 114.649 235.983 114.868C235.674 115.087 235.432 115.374 235.259 115.729V121H233.994V113.604H235.19ZM243.435 111.812V113.604H244.815V114.581H243.435V119.168C243.435 119.464 243.496 119.688 243.619 119.838C243.742 119.984 243.952 120.057 244.248 120.057C244.394 120.057 244.594 120.029 244.85 119.975V121C244.517 121.091 244.193 121.137 243.879 121.137C243.314 121.137 242.888 120.966 242.601 120.624C242.313 120.282 242.17 119.797 242.17 119.168V114.581H240.823V113.604H242.17V111.812H243.435Z" fill="#AEB5BC" fill-opacity="0.892974"/>
<path d="M12.5963 195.5C12.5963 195.5 3.10355 151.858 4.00668 135.296C4.9297 118.369 7.83125 105.103 18.7113 95.5" stroke="#F2F2F2" stroke-width="2" stroke-dasharray="4"/>
<path d="M276.571 101C276.571 101 284.53 66.2814 286.387 53.404C289.654 30.7557 286.42 14.2877 272.686 6" stroke="#F2F2F2" stroke-width="2" stroke-dasharray="4"/>
</g>
</g>
<defs>
<linearGradient id="paint0_linear_2_458" x1="77.3718" y1="2.16238" x2="77.3718" y2="41.8918" gradientUnits="userSpaceOnUse">
<stop stop-color="white" stop-opacity="0.01"/>
<stop offset="1" stop-color="#F2F2F2"/>
</linearGradient>
<linearGradient id="paint1_linear_2_458" x1="217.915" y1="298.343" x2="217.915" y2="274.741" gradientUnits="userSpaceOnUse">
<stop stop-color="white" stop-opacity="0.01"/>
<stop offset="1" stop-color="#F2F2F2"/>
</linearGradient>
</defs>
</svg>
