<svg width="249" height="178" viewBox="0 0 249 178" fill="none" xmlns="http://www.w3.org/2000/svg">
<path d="M237.36 177.243C221.714 177.243 10.1622 176.788 10.1622 176.763C10.0746 176.559 -16.693 143.917 17.013 109.79C33.7145 92.8756 1.67578 70.9725 17.013 52.1632C43.2853 19.9426 69.281 38.0857 90.9358 29.0268C94.7614 27.4268 98.6007 24.8529 102.445 20.9017C104.586 18.7072 106.958 16.7485 109.52 15.0596C109.909 14.8011 110.302 14.5493 110.699 14.3042C112.22 13.3662 113.794 12.5153 115.412 11.7556C116.502 11.2436 117.613 10.7705 118.745 10.3363C120.553 9.644 122.396 9.04784 124.268 8.5503C126.974 7.83139 129.726 7.29405 132.504 6.94189C133.729 6.78361 134.964 6.65859 136.209 6.56684C160.406 4.75673 187.633 14.9367 201.689 29.8147C204.519 32.8109 217.384 48.314 207.242 69.6215C200.839 83.0749 227.664 95.9243 237.195 111.287C261.437 150.342 237.582 176.733 237.36 177.243Z" fill="#F8F8FD"/>
<g opacity="0.8">
<path opacity="0.8" d="M182.611 86.4304C181.976 88.168 181.187 89.8455 180.251 91.4426C176.612 97.6208 170.912 102.335 164.142 104.764C157.372 107.194 149.96 107.185 143.195 104.741C131.395 100.473 123.816 89.7701 123.008 78.0564C122.9 76.5015 122.914 74.9407 123.047 73.3878C123.472 68.5021 125.062 63.7879 127.687 59.6371C127.7 59.615 127.712 59.5961 127.726 59.574C131.773 53.2443 138.011 48.6098 145.261 46.5472C146.011 46.3329 146.771 46.1473 147.54 45.9904C153.104 44.8505 158.876 45.2743 164.211 47.2143C164.947 47.4797 165.665 47.7704 166.366 48.0862C171.372 50.3226 175.679 53.8603 178.834 58.327C181.199 61.6671 182.872 65.4428 183.753 69.4335C183.941 70.2886 184.093 71.1529 184.209 72.0263C184.849 76.8858 184.299 81.8271 182.609 86.4304H182.611Z" fill="#F3F1FE"/>
<path opacity="0.8" d="M148.586 59.5533C146.769 60.9537 147.25 64.701 144.104 62.5884C140.957 60.4757 138.982 59.3316 138.092 61.1711C137.202 63.0107 139.993 64.0234 139.254 66.0321C138.515 68.0408 137.027 68.253 135.452 66.6036C133.878 64.9542 133.833 63.3668 131.283 63.4194C128.733 63.4719 127.645 62.4287 127.77 60.524C127.791 60.2273 127.763 59.9291 127.686 59.6415C127.699 59.6195 127.711 59.6005 127.725 59.5785C131.772 53.2487 138.01 48.6141 145.26 46.5515C146.01 46.3372 146.77 46.1516 147.539 45.9947C148.429 46.354 149.381 47.0831 149.887 48.5465C150.997 51.7644 152.797 51.0069 151.268 53.7027C149.739 56.3984 150.368 57.0645 152.037 57.554C153.705 58.0436 155.627 58.7443 155.367 60.0575C155.107 61.3707 150.403 58.1529 148.586 59.5533Z" fill="#BBB1FA"/>
<path opacity="0.8" d="M182.611 86.4303C181.976 88.168 181.187 89.8455 180.251 91.4426C178.081 95.1369 175.153 98.3344 171.657 100.826C170.81 100.812 169.998 100.493 169.37 99.9292C166.289 97.1904 170.372 94.2813 172.521 92.8662C174.671 91.451 170.68 90.9814 168.667 88.2237C166.655 85.4659 171.366 81.7279 168.339 81.5262C165.312 81.3245 161.628 81.1291 161.011 77.9017C160.394 74.6743 163.58 75.3383 163.017 72.6194C162.454 69.9005 165.094 69.391 167.912 70.1673C170.731 70.9437 171.08 68.8751 174.572 69.8144C178.064 70.7536 176.421 75.0305 180.274 76.1C184.127 77.1695 183.644 77.969 183.644 77.969C183.917 78.0599 184.165 78.2128 184.368 78.4154C184.145 81.1533 183.554 83.849 182.611 86.4303Z" fill="#BBB1FA"/>
<path opacity="0.8" d="M184.212 72.0265C180.542 72.4089 180.79 67.8514 177.675 68.1214C174.534 68.3935 175.88 66.1715 174.324 63.876C172.767 61.5804 167.525 62.8254 168.59 60.5036C169.656 58.1817 172.583 59.9982 173.955 58.3288C175.328 56.6594 178.229 58.2511 178.229 58.2511C178.433 58.248 178.637 58.2735 178.834 58.3267C181.199 61.6669 182.872 65.4428 183.753 69.4336C183.943 70.2888 184.095 71.1531 184.212 72.0265Z" fill="#BBB1FA"/>
<path opacity="0.8" d="M160.96 54.2793C160.96 54.2793 163.451 52.5238 161.109 50.8933C158.767 49.2629 158.483 50.1863 156.542 49.2419C154.601 48.2974 153.24 49.5654 154.135 51.8105C155.029 54.0555 155.064 57.7566 157.068 56.5159C159.072 55.2752 159.289 53.8643 160.96 54.2793Z" fill="#BBB1FA"/>
</g>
<path d="M194.997 111.865C194.997 111.865 195.234 109.517 194.001 109.598C192.768 109.679 192.44 110.241 192.579 110.693C192.717 111.145 193.917 112.636 193.917 112.636L194.997 111.865Z" fill="#FED9BB"/>
<path d="M214.218 116.567C214.218 116.567 212.852 118.163 209.916 120.006C209.637 120.18 209.347 120.357 209.04 120.531C207.746 121.278 206.401 121.936 205.016 122.5C204.846 122.569 204.647 122.646 204.423 122.727C202.663 123.357 199.425 124.255 197.418 124.335C197.244 124.342 197.078 124.342 196.924 124.335C193.87 124.213 193.497 112.42 193.497 112.42C193.497 112.42 193.837 111.24 195.407 111.538C195.407 111.538 197.79 118.197 198.644 118.74C199.402 119.222 203.762 112.647 207.514 112.188C210.041 111.884 214.218 116.567 214.218 116.567Z" fill="#9487F1"/>
<path d="M206.01 174.077C206.01 174.077 206.235 176.673 205.684 176.943L198.625 176.928C198.625 176.928 198.625 176.118 199.759 175.937C200.893 175.757 202.884 175.097 203.221 173.626C203.558 172.155 206.01 174.077 206.01 174.077Z" fill="#3528B3"/>
<path d="M200.836 142.656C200.871 144.353 200.953 146.105 201.114 147.678C201.876 155.146 202.143 164.172 202.253 165.908C202.443 168.927 203.043 173.751 203.043 173.751C203.043 173.751 204.232 174.874 206.549 174.337C206.549 174.337 208.47 167.39 208.899 160.074C208.906 159.954 208.913 159.833 208.919 159.713C208.969 158.746 209.024 157.64 209.074 156.447C209.427 148.463 209.813 136.592 209.813 136.592L200.956 134.523C200.956 134.523 200.744 138.424 200.836 142.656Z" fill="#4838D1"/>
<path d="M200.836 142.656C203.081 146.509 207.36 153.609 209.072 156.447C209.425 148.463 209.811 136.592 209.811 136.592L200.954 134.523C200.954 134.523 200.744 138.424 200.836 142.656Z" fill="#261C96"/>
<path d="M204.426 122.73C202.666 123.36 199.428 124.258 197.421 124.338C197.728 124.282 199.963 123.841 200.789 122.849C201.676 121.781 203.17 118.884 204.359 120.066C204.916 120.623 204.751 121.723 204.426 122.73Z" fill="#9487F1"/>
<path d="M219.307 141.405C219.307 141.405 219.856 143.55 219.766 144.031C219.677 144.512 219.139 146.122 218.804 146.523C218.47 146.924 218.456 144.781 218.234 144.445C218.013 144.109 218.129 145.244 217.953 145.338C217.778 145.431 217.477 144.478 217.345 144.139C217.213 143.801 217.82 142.624 217.873 141.781C217.926 140.937 219.307 141.405 219.307 141.405Z" fill="#FED9BB"/>
<path d="M223.597 171.125C223.597 171.125 224.854 172.266 224.609 173.077C224.364 173.888 223.23 174.427 223.077 175.418C222.924 176.409 222.31 176.95 221.759 176.95H219.129C219.129 176.95 218.723 176.252 219.703 176.042C220.683 175.832 221.054 174.668 220.992 173.587C220.931 172.506 221.084 171.065 221.084 171.065L223.169 170.585L223.597 171.125Z" fill="#3528B3"/>
<path d="M202.344 136.774C202.344 136.774 210.635 154.423 215.048 162.171C219.46 169.918 220.839 172.076 220.839 172.076C220.839 172.076 223.367 171.086 223.598 170.41C223.598 170.41 221.908 155.459 218.951 151.816C217.282 149.757 215.32 143.576 215.228 141.415C215.136 139.254 213.2 134.095 213.2 134.095L202.344 136.774Z" fill="#4838D1"/>
<path d="M200.798 135.856C200.798 135.856 203.498 138.747 208.084 139.62C210.096 140.003 214.184 140.374 215.198 138.948C215.436 138.612 215.438 138.117 215.385 137.343C215.248 135.33 214.74 131.441 217.037 123.624C217.24 122.94 217.387 122.241 217.478 121.534C217.98 117.535 217.925 114.516 214.437 112.904C209.213 110.488 207.068 112.475 207.068 112.475C207.068 112.475 204.289 113.767 203.019 117.533C200.482 125.064 200.798 135.856 200.798 135.856Z" fill="#9487F1"/>
<path d="M211.304 112.241C210.734 112.624 210.072 112.849 209.385 112.894C208.699 112.939 208.013 112.801 207.397 112.495C207.284 112.438 207.298 111.662 207.327 110.899C207.355 110.136 207.426 109.415 207.426 109.415L209.285 108.201L211.059 107.045C210.849 111.026 211.701 111.958 211.304 112.241Z" fill="#FED9BB"/>
<path d="M210.75 108.689C210.75 108.689 209.544 110.494 207.33 110.9C207.358 110.149 207.435 109.32 207.435 109.32L209.285 108.194L210.75 108.689Z" fill="#FAA47F"/>
<path d="M205.764 108.948C205.764 108.948 210.262 110.617 211.263 107.86C212.264 105.104 213.519 103.46 210.689 102.278C207.859 101.095 206.916 101.949 206.353 102.788C205.79 103.628 204.619 108.441 205.764 108.948Z" fill="#FED9BB"/>
<path d="M214.066 102.588C214.117 102.549 214.222 102.529 214.441 102.559C214.331 102.465 214.2 102.399 214.058 102.366C214.073 102.058 214.018 101.496 213.53 101.265C213.605 101.331 213.663 101.412 213.702 101.503C213.74 101.594 213.758 101.692 213.753 101.79C213.275 101.055 212.076 100.36 208.459 99.9394C203.69 99.3847 204.644 102.68 205.185 103.156C205.727 103.632 207.446 102.955 208.564 103.267C209.683 103.579 209.571 105.25 209.911 105.548C210.251 105.847 210.178 105.423 210.744 105.291C211.31 105.158 211.189 106.026 210.929 106.551C210.668 107.077 211.237 107.955 211.237 107.955L212.111 107.325C212.987 106.694 214.318 103.551 214.128 102.788C214.098 102.725 214.083 102.657 214.066 102.588Z" fill="#191179"/>
<path d="M215.389 137.343C215.251 135.33 214.743 131.441 217.04 123.624C217.243 122.94 217.39 122.242 217.481 121.534C215.775 120.974 212.666 122.219 212.666 122.219C212.666 122.219 211.935 132.552 215.389 137.343Z" fill="#9487F1"/>
<path d="M215.381 113.426C215.381 113.426 217.481 114.186 218.82 119.717C219.705 123.37 221.334 128.742 221.518 130.432C221.702 132.123 219.655 142.002 219.655 142.002C219.655 142.002 219.367 142.212 218.66 142.07C218.268 142 217.916 141.79 217.668 141.48C217.668 141.48 217.179 134.894 217.305 131.784C217.358 130.492 211.294 122.322 208.021 121.269C206.735 120.853 215.381 113.426 215.381 113.426Z" fill="#9487F1"/>
<path d="M186.014 106.266C186.014 106.266 192.082 106.095 199.085 107.378L199.817 105.544L200.62 103.534C200.62 103.534 193.589 100.522 189.362 96.3295L186.014 106.266Z" fill="#DDD7FC"/>
<path d="M189.458 96.2312L185.974 106.463C185.853 106.428 185.741 106.369 185.644 106.289C185.547 106.209 185.468 106.11 185.41 105.998C185.353 105.886 185.32 105.764 185.312 105.639C185.304 105.514 185.321 105.389 185.364 105.271L188.426 96.6735C188.461 96.575 188.516 96.4848 188.588 96.4084C188.659 96.3321 188.746 96.2713 188.843 96.2298C188.939 96.1883 189.043 96.167 189.148 96.1672C189.253 96.1675 189.357 96.1893 189.453 96.2312H189.458Z" fill="#F99746"/>
<path d="M192.785 113.879C193.111 113.943 193.45 113.876 193.727 113.692C194.004 113.509 194.197 113.223 194.263 112.899L195.462 106.927C195.527 106.602 195.459 106.266 195.274 105.99C195.09 105.715 194.803 105.523 194.477 105.457C194.151 105.393 193.812 105.46 193.535 105.644C193.258 105.828 193.065 106.113 192.999 106.438L191.799 112.408C191.735 112.733 191.802 113.07 191.987 113.346C192.172 113.621 192.458 113.813 192.785 113.879Z" fill="#F99746"/>
<path d="M186.014 106.273C186.014 106.273 192.082 106.101 199.085 107.39L199.817 105.546C193.233 104.202 186.014 106.273 186.014 106.273Z" fill="#9487F1"/>
<path d="M197.149 107.009L199.049 107.341C199.021 107.341 200.811 107.687 201.398 106.109C201.451 106.001 201.489 105.886 201.511 105.768C201.967 103.8 200.877 103.438 200.877 103.438L198.437 102.492L197.662 105.224V105.233L197.149 107.009Z" fill="#F99746"/>
<path d="M197.149 107.019L199.049 107.353C199.021 107.353 200.811 107.701 201.398 106.115C200.325 105.334 197.665 105.222 197.665 105.222V105.232L197.149 107.019Z" fill="#F77A55"/>
<path d="M192.946 108.102C192.946 108.102 193.874 108.472 193.704 108.88C193.534 109.289 192.355 109.851 192.168 109.529C191.981 109.206 192.363 107.756 192.946 108.102Z" fill="#FED9BB"/>
<path d="M195.015 111.504C195.101 111.047 195.163 110.585 195.2 110.121C195.212 109.685 195.263 109.329 195.16 109.316C195.058 109.304 194.983 109.384 194.942 109.528C194.901 109.671 194.739 110.537 194.739 110.537L194.82 111.381L195.015 111.504Z" fill="#FED9BB"/>
<path d="M103.269 110.879L98.0137 173.051C98.0137 173.051 97.4625 176.819 100.28 176.826C104.913 176.837 123.339 176.826 123.339 176.826C123.339 176.826 119.854 176.042 119.894 174.277C119.944 172.196 126.037 110.29 126.037 110.29L103.269 110.879Z" fill="#9487F1"/>
<path d="M125.068 175.723C124.157 175.723 106.318 175.756 101.806 175.698C99.8404 175.674 99.4961 173.958 99.4835 172.849C99.4778 172.539 99.498 172.23 99.5436 171.923L99.6799 170.308L100.028 166.188L100.336 162.55L100.732 157.874L101.064 153.927L104.799 109.749L127.568 109.162C127.568 109.162 125.001 135.069 123.186 153.927C122.983 156.028 122.791 158.043 122.612 159.924C122.554 160.525 122.498 161.111 122.445 161.684C122.277 163.47 122.122 165.106 121.989 166.553C121.919 167.315 121.853 168.024 121.794 168.673C121.563 171.215 121.428 172.839 121.425 173.148C121.423 173.317 121.438 173.486 121.47 173.651C121.839 175.633 124.726 175.723 125.068 175.723Z" fill="#BBB1FA"/>
<path d="M47.9694 77.0469L60.7703 128.206L62.5231 135.214L68.4859 159.042H179.257L157.28 77.0469H47.9694Z" fill="#DDD7FC"/>
<path d="M47.9693 77.0469L46.1943 77.6352L66.1269 160.822L68.4858 159.042L47.9693 77.0469Z" fill="#BBB1FA"/>
<path d="M66.1271 160.831H176.216L179.256 159.043H68.486L66.1271 160.831Z" fill="#9487F1"/>
<path d="M104.786 176.849H128.623V175.716H104.786V176.849Z" fill="#DDD7FC"/>
<path d="M122.564 160.821L122.441 161.684L100.024 166.188L100.331 162.55L100.478 160.821H122.564Z" fill="#7466E3"/>
<path opacity="0.4" d="M125.069 175.723C124.157 175.723 106.319 175.756 101.807 175.698C99.8405 175.674 99.4963 173.958 99.4836 172.849L121.794 168.673C121.563 171.215 121.428 172.839 121.426 173.148C121.424 173.317 121.438 173.486 121.47 173.651C121.84 175.633 124.726 175.723 125.069 175.723Z" fill="#7466E3"/>
<path d="M47.9694 77.0469H157.28L175.016 142.945H64.4586L47.9694 77.0469Z" fill="#DDD7FC"/>
<path d="M169.861 140.089H67.5113L63.8547 125.594L62.4397 119.985L61.8621 117.698L58.1031 102.801L57.9088 102.024L55.9215 94.1504L55.0325 90.6268L54.2743 87.6211L52.4972 80.576H153.37L155.323 87.6211L156.155 90.6268L157.131 94.1504L163.563 117.362V117.363L164.108 119.329L164.361 120.242L168.801 136.268L169.861 140.089Z" fill="#9487F1"/>
<path d="M155.323 87.6224H54.2743L52.4972 80.576H153.37L155.323 87.6224Z" fill="#7466E3"/>
<path d="M56.6701 83.7654C56.5476 83.2765 56.8454 82.8805 57.3343 82.8805C57.5883 82.893 57.832 82.9852 58.0306 83.144C58.2293 83.3029 58.3728 83.5203 58.4409 83.7654C58.5623 84.2542 58.2645 84.6502 57.7757 84.6502C57.5217 84.6378 57.2781 84.5456 57.0796 84.3868C56.8811 84.2279 56.7378 84.0104 56.6701 83.7654Z" fill="#DDD7FC"/>
<path d="M59.6121 83.7654C59.4896 83.2765 59.7874 82.8805 60.2763 82.8805C60.5303 82.893 60.774 82.9852 60.9727 83.144C61.1713 83.3029 61.3149 83.5203 61.3829 83.7654C61.5043 84.2542 61.2066 84.6502 60.7177 84.6502C60.4637 84.6378 60.2202 84.5456 60.0216 84.3868C59.8231 84.2279 59.6798 84.0104 59.6121 83.7654Z" fill="#DDD7FC"/>
<path d="M62.7786 83.7654C62.6572 83.2765 62.9549 82.8805 63.4438 82.8805C63.6978 82.8929 63.9413 82.9851 64.1398 83.1439C64.3383 83.3028 64.4817 83.5203 64.5494 83.7654C64.6718 84.2542 64.3741 84.6502 63.8852 84.6502C63.6311 84.6377 63.3875 84.5455 63.1888 84.3867C62.9902 84.2278 62.8466 84.0104 62.7786 83.7654Z" fill="#DDD7FC"/>
<path d="M133.304 39.6145C137.441 34.7819 143.82 25.0758 148.115 20.1046C148.312 19.8755 148.44 19.5948 148.482 19.2958C148.524 18.9967 148.478 18.6921 148.351 18.4179C148.224 18.1438 148.02 17.9118 147.765 17.7495C147.509 17.5872 147.211 17.5014 146.908 17.5024H139.094L146.464 0.918298C146.781 0.210224 145.81 -0.353924 145.343 0.266954L127.519 24.0011C127.403 24.1552 127.336 24.3397 127.325 24.5318C127.313 24.7238 127.359 24.9149 127.456 25.0812C127.553 25.2476 127.697 25.3818 127.871 25.4674C128.044 25.5529 128.238 25.5859 128.43 25.5622L137.278 24.4781L132.014 38.8633C131.725 39.6565 132.755 40.2563 133.304 39.6145Z" fill="#F77A55"/>
<path d="M96.511 69.0478C97.4424 64.2983 98.0294 55.4779 99.0125 50.5782C99.0578 50.3525 99.037 50.1186 98.9525 49.9044C98.868 49.6901 98.7235 49.5046 98.536 49.3698C98.3486 49.2349 98.1261 49.1566 97.8951 49.1439C97.6642 49.1313 97.4345 49.185 97.2333 49.2986L92.0424 52.2065L90.7035 38.4507C90.6465 37.8634 89.7901 37.8487 89.7141 38.4349L86.7966 60.8273C86.7777 60.9726 86.8022 61.1203 86.867 61.252C86.9318 61.3837 87.0341 61.4935 87.1611 61.5678C87.2881 61.6421 87.4342 61.6776 87.5814 61.67C87.7285 61.6624 87.8702 61.6119 87.9887 61.5248L93.4573 57.5128L95.3696 69.0267C95.4762 69.6634 96.3864 69.6781 96.511 69.0478Z" fill="#DDD7FC"/>
<path d="M174.332 141.492L85.3996 148.951C78.6417 149.517 73.7602 142.667 76.5299 136.512L114.207 52.6181C117.066 46.2528 125.852 45.5164 129.741 51.3154L180.99 127.747C184.75 133.359 181.084 140.925 174.332 141.492Z" fill="#F3F1FE"/>
<path d="M174.615 144.839L85.6815 152.298C83.554 152.476 81.4166 152.1 79.4802 151.205C77.5438 150.31 75.8754 148.929 74.6395 147.197C73.4037 145.464 72.6432 143.442 72.433 141.328C72.2229 139.214 72.5704 137.082 73.4413 135.143L111.12 51.2476C112.971 47.1252 116.776 44.4379 121.298 44.0587C125.819 43.6794 130.024 45.6965 132.542 49.4522L183.798 125.892C184.983 127.659 185.684 129.703 185.832 131.823C185.98 133.942 185.57 136.063 184.643 137.977C183.715 139.891 182.302 141.53 180.543 142.735C178.783 143.939 176.739 144.666 174.611 144.844L174.615 144.839ZM121.865 50.7486C120.878 50.824 119.93 51.1649 119.123 51.7348C118.316 52.3048 117.68 53.0823 117.283 53.9843L79.6057 137.878C79.2135 138.751 79.0569 139.711 79.1514 140.663C79.2459 141.614 79.5883 142.525 80.1446 143.304C80.701 144.084 81.4521 144.706 82.3239 145.108C83.1956 145.511 84.1578 145.68 85.1155 145.6L174.048 138.141C175.006 138.061 175.926 137.734 176.717 137.191C177.509 136.649 178.145 135.911 178.562 135.05C178.979 134.189 179.164 133.234 179.097 132.281C179.03 131.327 178.714 130.407 178.181 129.612L126.921 53.1754C126.379 52.3527 125.622 51.6923 124.731 51.2649C123.84 50.8374 122.849 50.6589 121.865 50.7486Z" fill="#F77A55"/>
<path d="M119.782 128.657C119.678 127.574 119.796 126.48 120.128 125.443C120.444 124.461 120.962 123.556 121.649 122.785C122.365 121.992 123.234 121.351 124.205 120.9C125.22 120.414 126.386 120.116 127.703 120.006C128.92 119.888 130.149 119.988 131.33 120.302C132.372 120.581 133.346 121.068 134.193 121.733C135 122.379 135.663 123.186 136.14 124.101C136.641 125.068 136.941 126.126 137.022 127.212C137.125 128.287 137.006 129.371 136.673 130.399C136.352 131.371 135.833 132.268 135.149 133.033C134.427 133.831 133.549 134.475 132.568 134.924C131.456 135.43 130.262 135.734 129.042 135.82C127.726 135.93 126.526 135.831 125.442 135.52C124.41 135.237 123.445 134.75 122.606 134.087C121.803 133.448 121.141 132.651 120.661 131.746C120.159 130.787 119.859 129.736 119.782 128.657ZM133.531 112.65L120.72 113.723L115.218 70.3283L131.657 68.95L133.531 112.65Z" fill="#F77A55"/>
<path d="M64.557 115.311C64.557 115.311 64.8368 114.687 65.0174 114.392C65.1979 114.096 65.9677 113.236 66.1007 113.426C66.2337 113.616 66.7575 114.941 66.4776 115.311C66.1978 115.681 66.4956 116.323 65.105 116.713L64.557 115.311Z" fill="#FED9BB"/>
<path d="M49.1332 111.371C49.1332 111.371 56.2384 117.271 59.0092 116.729C61.1748 116.303 64.6002 115.222 64.6002 115.222C64.6002 115.222 65.5041 116.077 65.2486 117.102C65.2486 117.102 60.8845 121.187 57.7758 121.214C52.9186 121.255 50.6252 118.818 50.6252 118.818L49.1332 111.371Z" fill="#F77A55"/>
<path d="M36.6721 173.609C36.6721 173.609 36.8833 176.92 37.5221 176.972C37.6077 176.978 40.7871 176.978 40.7871 176.978L44.8461 176.955C44.8461 176.955 44.8197 175.982 43.6328 175.776C42.4459 175.57 40.465 174.741 39.7428 173.181C38.9867 171.535 36.6721 173.609 36.6721 173.609Z" fill="#191179"/>
<path d="M36.4389 173.841C36.4389 173.841 37.6722 174.252 38.6352 174.252C39.3288 174.243 40.0184 174.145 40.6869 173.961C40.6869 173.961 40.9192 171.725 42.1968 166.801C42.8673 164.221 43.824 160.902 45.1861 156.778C48.9505 145.382 50.0951 138.715 50.1996 138.083C50.1996 138.05 50.207 138.033 50.207 138.033L50.1954 138.028L38.6215 132.972C38.6215 132.972 40.0522 148.679 38.2266 154.708C37.9497 155.657 37.7286 156.622 37.5645 157.597C36.4125 164.145 36.4389 173.841 36.4389 173.841Z" fill="#4838D1"/>
<path d="M42.1967 166.801C42.8672 164.22 43.8238 160.902 45.186 156.778C48.9503 145.382 50.0949 138.715 50.1995 138.083C50.1995 138.064 50.1995 138.047 50.1995 138.028L38.6255 132.972C38.6255 132.972 40.0563 148.679 38.2306 154.708C37.9709 155.55 42.1967 166.801 42.1967 166.801Z" fill="#261C96"/>
<path d="M45.7119 173.609C45.7119 173.609 45.9178 176.92 46.5566 176.972C46.6422 176.978 49.8215 176.978 49.8215 176.978L53.8805 176.955C53.8805 176.955 53.853 175.982 52.6672 175.776C51.4814 175.57 49.4995 174.741 48.7762 173.181C48.0254 171.535 45.7119 173.609 45.7119 173.609Z" fill="#7466E3"/>
<path d="M52.2734 133.343C52.2734 133.343 52.4244 143.521 50.6536 156.018C48.8829 168.515 49.4837 173.819 49.4837 173.819C49.4837 173.819 48.2683 174.211 47.7773 174.251C46.5271 174.356 45.2432 173.959 45.2432 173.959C45.2432 173.959 42.709 161.457 43.4354 155.203C44.1619 148.948 39.9689 133.736 39.9689 133.736L52.2734 133.343Z" fill="#4838D1"/>
<path d="M44.0668 109.524L46.3265 110.995L48.3845 110.416C48.7604 109.882 48.8596 108.853 48.866 107.961C48.8683 107.415 48.8411 106.869 48.7846 106.327L45.7362 104.988L44.599 104.49C44.599 104.508 44.6877 105.419 44.7046 105.552C44.9126 107.918 44.0668 109.524 44.0668 109.524Z" fill="#FED9BB"/>
<path d="M52.325 136.172C49.5131 138.874 38.8715 138.419 38.2158 135.443C37.56 132.467 38.9306 110.109 43.734 108.704C44.7308 108.413 50.0601 110.127 50.0601 110.127C50.6478 111.738 51.1106 113.392 51.4444 115.074C51.55 115.613 51.8615 121.327 52.0938 126.672C52.1994 129.171 52.2944 131.592 52.3409 133.364C52.3842 135.023 52.3863 136.113 52.325 136.172Z" fill="#F99746"/>
<path d="M44.9283 105.598C45.5461 106.637 47.7159 107.546 48.8658 107.963C48.8681 107.417 48.841 106.872 48.7845 106.33L45.7361 104.993C45.0624 104.985 44.6528 105.135 44.9283 105.598Z" fill="#FAA47F"/>
<path d="M49.9346 106.146C49.9346 106.146 45.0235 107.67 44.1165 104.612C43.2095 101.554 41.9646 99.6925 45.0615 98.5905C48.1585 97.4884 49.1173 98.4749 49.6695 99.4225C50.2218 100.37 51.189 105.67 49.9346 106.146Z" fill="#FED9BB"/>
<path d="M49.4762 99.1273C49.4762 99.1273 49.1594 102.685 48.4203 102.531C47.6811 102.377 46.867 102.046 46.9758 103.118C47.0845 104.191 46.2567 106.029 45.1902 106.025C42.9031 106.016 40.4174 100.177 41.0436 99.0695C42.8535 95.8749 52.0875 95.2298 49.4762 99.1273Z" fill="#261C96"/>
<path d="M48.754 108.784C48.6906 108.758 45.0984 107.151 44.6781 107.289C44.2579 107.427 43.7341 108.707 43.7341 108.707L50.0602 110.132C50.0602 110.132 49.5618 109.124 48.754 108.784Z" fill="#F77A55"/>
<path d="M71.1205 126.097L50.982 144.96C50.5871 145.33 50.0887 145.448 49.8754 145.223L49.1953 144.504C48.9842 144.279 49.1299 143.791 49.5248 143.421L69.6633 124.557C70.0583 124.188 70.5566 124.069 70.7699 124.295L71.45 125.014C71.6633 125.24 71.5154 125.727 71.1205 126.097Z" fill="#7466E3"/>
<path d="M59.819 136.683L50.982 144.961C50.5871 145.331 50.0887 145.449 49.8754 145.224L49.1953 144.505C48.9842 144.279 49.1299 143.792 49.5248 143.422L58.3618 135.143L59.819 136.683Z" fill="#9487F1"/>
<path d="M66.4912 118.974C67.1926 121.262 68.41 123.36 70.0505 125.109C71.691 126.857 73.7113 128.21 75.9573 129.063C78.2032 129.917 80.6155 130.248 83.0099 130.033C85.4044 129.818 87.7177 129.061 89.7736 127.821C91.8294 126.581 93.5733 124.89 94.8723 122.877C96.1712 120.865 96.9909 118.583 97.2688 116.207C97.5466 113.831 97.2752 111.424 96.4754 109.168C95.6756 106.912 94.3685 104.868 92.6537 103.191C92.5735 103.112 92.4901 103.032 92.4067 102.954C89.872 100.582 86.6206 99.11 83.158 98.7664C79.6955 98.4228 76.2159 99.2271 73.2603 101.054C70.3046 102.881 68.0385 105.629 66.8144 108.869C65.5902 112.11 65.4766 115.662 66.4912 118.974ZM71.0032 104.476C72.9736 102.392 75.521 100.936 78.3232 100.293C81.1253 99.6493 84.0564 99.8469 86.7457 100.861C89.4349 101.875 91.7616 103.659 93.4315 105.988C95.1014 108.318 96.0394 111.088 96.127 113.948C96.2146 116.807 95.4478 119.629 93.9235 122.055C92.3993 124.481 90.1861 126.404 87.5639 127.578C84.9416 128.753 82.0281 129.128 79.1918 128.655C76.3554 128.183 73.7237 126.884 71.6293 124.923C70.2373 123.623 69.1167 122.062 68.3317 120.33C67.5467 118.598 67.1127 116.729 67.0546 114.83C66.9964 112.932 67.3152 111.04 67.9928 109.264C68.6703 107.488 69.6933 105.862 71.0032 104.479V104.476Z" fill="#7466E3"/>
<g opacity="0.5">
<path opacity="0.5" d="M92.1819 124.303C90.2115 126.387 87.6641 127.843 84.8619 128.487C82.0597 129.13 79.1286 128.933 76.4392 127.919C73.7499 126.905 71.4231 125.121 69.7531 122.791C68.0832 120.462 67.1451 117.692 67.0575 114.832C66.9699 111.972 67.7368 109.15 69.2611 106.724C70.7854 104.297 72.9986 102.375 75.621 101.201C78.2433 100.026 81.1569 99.651 83.9933 100.124C86.8297 100.597 89.4614 101.896 91.5557 103.857C92.9528 105.154 94.0779 106.714 94.8661 108.446C95.6543 110.179 96.0901 112.049 96.1483 113.95C96.2065 115.851 95.886 117.744 95.2053 119.521C94.5245 121.298 93.497 122.923 92.1819 124.303Z" fill="#BBB1FA"/>
</g>
<path d="M52.3408 133.364C41.2441 125.496 42.167 114.999 42.167 114.999C46.2228 117.275 50.248 122.307 52.0927 126.672C52.2025 129.171 52.2944 131.591 52.3408 133.364Z" fill="#F77A55"/>
<path d="M63.293 129.78C64.0755 129.601 64.6013 129.013 64.7101 128.91C64.7101 128.91 65.0437 128.933 64.6562 129.645C64.6235 129.704 64.5506 129.855 64.4968 129.96C64.4917 129.97 64.4892 129.982 64.4896 129.993C64.4899 130.004 64.4932 130.015 64.4989 130.025C64.5047 130.035 64.5128 130.043 64.5226 130.049C64.5324 130.055 64.5434 130.058 64.5549 130.059C65.0068 130.093 65.4598 129.915 66.3298 130.096C66.4502 130.121 66.485 130.411 66.4808 130.529C66.498 130.8 66.4146 131.068 66.2464 131.283C66.107 131.467 65.7185 131.664 64.8442 132.013C64.5126 132.146 63.5644 132.046 62.6753 131.742L61.9647 131.414L62.1843 130.101L62.3639 130.138C62.6468 130.198 62.9974 129.849 63.293 129.78Z" fill="#FED9BB"/>
<path d="M45.6156 110.127C45.6156 110.127 35.6445 112.018 48.549 126.38C50.6122 128.678 61.7628 131.67 61.7628 131.67C61.7628 131.67 62.8937 130.712 62.3235 129.937C62.3235 129.937 54.6459 124.391 52.9564 123.509C52.1972 123.112 50.0072 114.656 48.7686 112.62C47.53 110.583 45.6156 110.127 45.6156 110.127Z" fill="#F99746"/>
<path d="M64.8271 115.498C64.8271 115.498 65.1534 114.875 65.2178 114.548C65.2822 114.22 65.6919 113.26 65.8608 113.091C65.9284 113.023 66.1523 113.111 66.1776 113.402C66.1655 113.621 66.111 113.836 66.0171 114.035C65.8387 114.482 65.8682 115.092 65.8059 115.289C65.6528 115.786 64.8271 115.498 64.8271 115.498Z" fill="#FED9BB"/>
<path d="M68.7954 90.8732C68.7178 90.9584 68.6666 91.0641 68.6478 91.1776C68.6291 91.291 68.6437 91.4075 68.6898 91.5129C68.845 91.9394 69.3571 92.4164 69.9569 92.8923C70.0329 92.9532 70.1005 93.0089 70.1596 93.0603L70.205 93.1013L70.2399 93.1318C70.7953 93.6413 70.5862 93.7621 71.583 94.7916C72.7202 95.9692 73.5037 95.9913 73.7265 95.8841C73.9145 95.7927 73.5322 95.1677 73.1077 94.4659C73.0877 94.4323 73.0676 94.3977 73.0465 94.3609C72.9895 94.2674 72.9335 94.1728 72.8775 94.0783C72.3802 93.2379 72.508 92.8376 72.6262 91.5802C72.7223 90.5591 74.226 85.8737 74.226 85.8737L72.0465 85.4998C72.0465 85.4998 71.3887 89.2301 70.6654 89.8069C70.2789 90.1126 69.846 90.122 69.4743 90.3437C69.4479 90.3595 69.4215 90.3752 69.3962 90.392C69.1752 90.525 68.9732 90.6868 68.7954 90.8732Z" fill="#FED9BB"/>
<path d="M68.7954 90.873C68.7178 90.9583 68.6666 91.0639 68.6478 91.1774C68.6291 91.2909 68.6437 91.4073 68.6898 91.5128C68.8799 91.9393 69.3793 92.4131 69.9569 92.8879C70.0319 92.9499 70.0984 93.0066 70.1575 93.0602L70.2029 93.1011L70.2378 93.1316C70.7932 93.6411 70.5841 93.7619 71.5809 94.7914C72.7181 95.969 73.5016 95.991 73.7244 95.8839C73.9124 95.7925 73.5301 95.1675 73.1056 94.4657C72.3102 94.1562 71.611 93.6435 71.0783 92.9793C70.4194 92.1389 69.9717 91.0726 69.5229 90.4171L69.3941 90.3929C69.1739 90.5258 68.9726 90.6872 68.7954 90.873Z" fill="#261C96"/>
<path d="M86.3742 89.5241C86.5083 90.1943 87.4671 90.0829 88.5389 89.8224C89.6107 89.5619 89.3551 89.8718 90.8809 89.7048C92.4067 89.5377 92.8682 88.9694 92.9146 88.7456C92.9558 88.546 92.2029 88.4746 91.3941 88.3822L91.089 88.3454C90.1766 88.2309 89.5051 87.6457 88.6793 87.1636C87.8948 86.7076 86.7237 84.8524 86.7237 84.8524L84.632 85.0163C84.632 85.0163 85.7291 86.6751 86.1535 87.3957C86.4027 87.8159 86.389 88.3811 86.3584 88.8139C86.331 89.0502 86.3364 89.2892 86.3742 89.5241Z" fill="#FED9BB"/>
<path d="M88.5367 89.8299C89.6085 89.5691 89.3529 89.8795 90.8787 89.7116C92.4046 89.5437 92.866 88.9725 92.9124 88.7476C92.9536 88.5469 92.2008 88.4751 91.3919 88.3822L91.3845 88.398C90.7311 88.8167 89.9766 89.0509 89.2009 89.0759C88.1661 89.1002 87.07 88.8035 86.3562 88.8151C86.3288 89.053 86.3341 89.2935 86.3721 89.53C86.5062 90.2037 87.465 90.0917 88.5367 89.8299Z" fill="#261C96"/>
<path d="M78.3619 76.2179L76.4053 81.4505L73.85 88.2788C73.3943 88.3123 72.9362 88.2708 72.4942 88.1559C71.8839 87.9794 71.1827 87.5256 71.1827 87.5256C71.1827 87.5256 71.8944 80.1878 73.2175 75.9763C73.5575 74.8953 73.9376 74.0213 74.3568 73.5286C76.4064 71.123 78.3619 76.2179 78.3619 76.2179Z" fill="#261C96"/>
<path d="M76.3767 67.9036C75.2638 67.5453 72.3642 67.8962 69.2113 68.4625C68.7859 68.5386 68.3474 68.4846 67.9536 68.3075C67.5597 68.1304 67.2291 67.8387 67.0055 67.4707L59.0797 66.8519C59.0797 66.8519 56.4621 72.6219 57.8929 76.3C58.1041 76.84 58.5645 77.1773 59.2772 77.1889C59.2772 77.1889 64.0668 77.1973 65.599 77.1983C69.5407 77.1983 73.9407 74.5046 74.5109 74.3921C75.4433 74.2072 75.815 76.0615 76.7463 78.0083C77.6776 79.9551 85.5009 86.6328 85.5009 86.6328C85.5009 86.6328 86.7047 86.6454 87.2009 86.4594C87.7352 86.2608 87.9316 86.0013 87.9316 86.0013C87.9316 86.0013 79.2647 68.8313 76.3767 67.9036Z" fill="#4838D1"/>
<path d="M66.1715 44.3144C65.7142 44.0438 65.1892 43.9076 64.6573 43.9215C64.4129 43.9283 64.1684 43.9136 63.9266 43.8774C60.9014 43.4351 59.0788 47.8066 58.9711 49.1303C58.7747 51.5561 57.4844 51.9249 55.6692 53.443C52.0284 56.4897 53.0949 60.027 55.0843 61.3423C56.2785 62.1313 58.383 61.3423 58.383 61.3423C58.4125 61.3623 64.1399 58.159 66.9624 56.6147C71.1945 56.0148 67.8715 45.3219 66.1715 44.3144Z" fill="#261C96"/>
<path d="M64.597 55.2948C64.6096 55.3032 63.2084 55.7781 62.2739 55.3652C61.3922 54.9776 60.7249 53.5341 60.7386 53.5331C61.1399 53.5152 61.5834 53.1664 61.9191 50.8783L62.0902 50.9392L64.9602 51.9677C64.9602 51.9677 64.749 52.8849 64.617 53.7537C64.5019 54.4891 64.4407 55.1908 64.597 55.2948Z" fill="#FED9BB"/>
<path d="M64.9581 51.9733C64.9581 51.9733 64.8441 52.4707 64.6762 53.3988C63.0279 53.101 62.3204 51.8308 62.0881 50.9396L64.9581 51.9733Z" fill="#FCBE99"/>
<path d="M65.3857 52.8775C65.3857 52.8775 61.4577 52.3523 61.8252 49.9235C62.1926 47.4947 61.9308 45.7929 64.4544 46.0251C66.978 46.2572 67.3243 47.2573 67.3993 48.0977C67.4743 48.9381 66.4173 52.9479 65.3857 52.8775Z" fill="#FED9BB"/>
<path d="M67.2621 46.767C67.2621 46.767 64.7469 48.9214 63.0384 49.0947C61.3299 49.268 60.6805 48.7218 60.6805 48.7218C61.3634 48.1146 61.9133 47.3741 62.2961 46.5464C62.3831 46.3516 62.5209 46.1835 62.6953 46.0596C62.8696 45.9357 63.0741 45.8604 63.2876 45.8416C64.503 45.7366 66.8175 45.6893 67.2621 46.767Z" fill="#261C96"/>
<path d="M65.6855 46.573C65.6855 46.573 66.5303 47.382 66.7911 47.9829C67.0466 48.5618 67.1227 49.9465 66.9189 50.4971C66.9189 50.4971 68.2303 47.9619 67.4891 46.7296C66.7024 45.4236 65.6855 46.573 65.6855 46.573Z" fill="#261C96"/>
<path d="M67.902 61.0522C67.7806 68.9619 67.8682 67.3094 66.9982 68.0595C66.787 68.2402 66.1988 68.3474 65.4238 68.3988C62.9857 68.5585 58.7007 68.1572 58.5381 67.7097C57.9764 66.158 58.3734 65.6768 57.9046 63.2973C57.856 63.0451 57.799 62.772 57.725 62.4736C57.3344 60.8431 56.9532 60.2884 58.3428 57.6683C59.6014 55.2961 60.9097 53.3693 61.0269 53.4397C64.3467 55.4012 64.6171 53.7549 64.6171 53.7549C64.6171 53.7549 67.9622 57.1945 67.902 61.0522Z" fill="#F99746"/>
<path d="M76.4053 81.4505L73.85 88.279C73.3943 88.3126 72.9362 88.271 72.4942 88.1561C71.8839 87.9796 71.1827 87.5258 71.1827 87.5258C71.1827 87.5258 71.8944 80.1877 73.2175 75.9761L76.4053 81.4505Z" fill="#4838D1"/>
<path d="M64.6149 53.7571C64.6149 53.7571 68.0318 54.3349 68.432 55.7983C68.8322 57.2617 70.15 66.145 70.15 66.145C70.15 66.145 69.187 67.081 68.3845 66.2826C67.582 65.4842 65.8619 57.9697 65.8619 57.9697L64.6149 53.7571Z" fill="#F99746"/>
<path d="M65.4238 68.3987C62.9857 68.5584 58.7008 68.1571 58.5382 67.7096C57.9765 66.1579 58.3735 65.6768 57.9047 63.2973L59.082 60.0039C59.082 60.0039 58.8867 63.6724 59.9732 64.6378C61.0597 65.6032 64.4249 66.5014 64.9529 67.3072C65.1825 67.6356 65.3427 68.0069 65.4238 68.3987Z" fill="#F77A55"/>
<path d="M62.6309 66.8559C62.6309 66.8559 65.0362 66.3216 65.4248 66.5391C65.8134 66.7567 66.7606 67.5306 66.8788 67.801C66.9971 68.0713 66.0151 67.5951 65.6962 67.5095C65.485 67.4536 64.9433 67.6426 64.6741 67.7334C63.5389 68.1114 62.8431 67.9161 62.8431 67.9161L62.6309 66.8559Z" fill="#FED9BB"/>
<path d="M61.0248 53.442C61.0248 53.442 57.7958 53.6385 56.6775 55.1901C55.1032 57.3732 51.9776 66.6778 53.7664 67.9196C55.7811 69.3189 62.9328 68.2862 62.9328 68.2862C62.9328 68.2862 63.1714 67.18 62.8409 66.6442C62.5104 66.1084 57.1253 65.2396 56.8813 64.9959C56.6374 64.7522 59.9889 60.176 59.9889 59.4343C59.9889 58.6926 61.0248 53.442 61.0248 53.442Z" fill="#F99746"/>
<path d="M65.541 67.2012C65.541 67.2012 66.0447 67.8516 66.2094 67.9287C66.2927 67.974 66.3872 67.9946 66.4818 67.9878L66.1418 67.3765L65.541 67.2012Z" fill="#FED9BB"/>
<path d="M65.4248 66.5343L66.8894 67.246C66.8607 67.2816 66.8231 67.309 66.7805 67.3255C66.7379 67.3419 66.6917 67.347 66.6465 67.34C66.4303 67.3018 66.2182 67.2434 66.013 67.1657L65.4248 66.5343Z" fill="#FED9BB"/>
<path d="M77.9354 68.2051L62.6309 68.1998V68.5377L77.7991 68.543L77.9354 68.2051Z" fill="#261C96"/>
<path d="M66.2092 68.5362L77.7991 68.5404L81.2878 59.9152L69.716 59.911L66.2092 68.5362Z" fill="#261C96"/>
<path d="M74.8751 64.2289C74.9617 63.9237 74.7864 63.6766 74.4813 63.6766C74.3207 63.6855 74.1667 63.7432 74.0398 63.8418C73.9128 63.9405 73.8189 64.0755 73.7707 64.2289C73.683 64.533 73.8593 64.7801 74.1645 64.7801C74.3248 64.771 74.4786 64.7134 74.6055 64.615C74.7324 64.5165 74.8264 64.3819 74.8751 64.2289Z" fill="white"/>
<path d="M153.31 101.063C151.748 100.547 150.67 101.198 150.67 101.198C146.174 101.382 146.007 105.967 146.535 107.673C147.274 110.068 144.654 111.958 147.563 112.926C150.942 114.051 153.769 112.716 153.581 113.296C164.245 114.133 156.861 102.235 153.31 101.063Z" fill="#261C96"/>
<path d="M148.647 123.359C148.304 123.998 147.901 124.603 147.445 125.168C146.512 126.331 141.61 123.569 142.033 123.359C142.455 123.149 144.918 116.091 145.504 115.203C146.09 114.315 148.09 113.855 148.09 113.855L148.647 123.359Z" fill="#F99746"/>
<path d="M165.187 170.972C165.187 170.972 166.54 172.2 166.276 173.073C166.012 173.946 164.791 174.527 164.626 175.594C164.462 176.662 163.802 177.243 163.207 177.243H160.376C160.376 177.243 159.939 176.492 160.995 176.266C162.051 176.04 162.449 174.785 162.382 173.622C162.316 172.459 162.482 170.906 162.482 170.906L164.726 170.39L165.187 170.972Z" fill="#7466E3"/>
<path d="M153.742 171.492C153.742 171.492 154.229 176.696 153.636 176.987L146.034 176.971C146.034 176.971 146.034 176.099 147.254 175.905C148.475 175.71 150.621 175 150.983 173.416C151.345 171.832 153.742 171.492 153.742 171.492Z" fill="#3528B3"/>
<path d="M159.585 119.849C159.652 121.014 159.652 122.181 159.585 123.345C159.51 124.606 158.224 126.302 158.042 126.72C157.585 127.771 157.069 127.941 157.069 127.941L153.078 128.915L151.675 129.256L147.25 127.941C147.25 127.941 145.235 122.345 146.044 119.194C146.854 116.043 148.09 113.855 148.09 113.855C148.09 113.855 151.097 113.182 156.402 113.557L159.585 119.849Z" fill="#F99746"/>
<path d="M159.964 123.389C159.89 124.65 158.224 126.302 158.042 126.72C157.584 127.771 157.069 127.941 157.069 127.941L153.078 128.915L152.358 126.86C152.358 126.86 158.188 125.336 157.251 119.966L159.964 123.389Z" fill="#F77A55"/>
<path d="M147.531 128.79C147.531 128.79 145.34 135.576 145.199 137.887C145.059 140.198 149.388 170.708 149.562 171.773C149.726 172.776 150.978 173.416 150.978 173.416C151.414 173.627 151.914 173.665 152.376 173.521C153.518 173.206 153.878 172.817 153.878 172.817C153.878 172.817 155.583 151.057 154.528 143.284C153.886 138.476 153.529 133.635 153.46 128.786L147.531 128.79Z" fill="#261C96"/>
<path d="M156.816 128.588C156.816 128.588 160.158 133.051 160.469 136.067C160.781 139.083 160.958 149.678 161.622 152.618C162.286 155.559 164.723 161.218 164.723 170.39C164.723 170.39 164.47 170.915 163.686 171.195C163.388 171.296 163.083 171.379 162.775 171.446C162.461 171.517 162.133 171.481 161.842 171.344C161.551 171.207 161.315 170.976 161.172 170.689C159.524 167.386 154.271 156.731 154.002 154.52C153.811 152.955 152.153 142.596 148.534 136.519C147.666 135.059 149.062 129.256 149.062 129.256L156.816 128.588Z" fill="#4838D1"/>
<path d="M147.182 127.747C147.182 127.747 148.061 128.444 149.809 128.478C151.896 128.521 157.068 127.95 157.068 127.95C157.211 128.376 157.285 128.822 157.289 129.271C157.289 129.271 150.971 130.865 147.311 129.504C147.311 129.496 146.839 128.607 147.182 127.747Z" fill="#261C96"/>
<path d="M149.307 130.271C148.779 130.271 148.357 129.788 148.357 129.193C148.357 128.599 148.779 128.115 149.307 128.115C149.835 128.115 150.258 128.599 150.258 129.193C150.258 129.788 149.835 130.271 149.307 130.271ZM149.307 128.431C148.956 128.431 148.674 128.773 148.674 129.193C148.674 129.613 148.959 129.955 149.307 129.955C149.656 129.955 149.941 129.613 149.941 129.193C149.941 128.773 149.659 128.431 149.307 128.431Z" fill="white"/>
<path d="M153.872 132.211L144.377 132.299L139.704 121.375L149.199 121.287L153.872 132.211Z" fill="#F77A55"/>
<path d="M152.63 127.275L151.934 126.424C151.934 126.424 151.463 126.004 151.121 125.934C150.779 125.865 150.058 125.45 149.988 125.567C149.918 125.683 150.543 126.512 150.543 126.512H150.574C149.857 127.049 148.047 126.576 147.829 126.794C147.558 127.06 148.202 127.635 148.547 127.95C148.892 128.265 149.879 128.81 150.649 128.571C151.212 128.397 152.097 128.219 152.097 128.219L152.63 127.275Z" fill="#FED9BB"/>
<path d="M140.418 123.3C140.418 123.3 141.016 122.621 141.395 122.947C141.774 123.273 141.296 124.872 140.935 124.709C140.574 124.547 140.211 123.498 140.418 123.3Z" fill="#FED9BB"/>
<path d="M156.402 113.558C156.402 113.558 159.12 113.855 161.07 117.382C162.608 120.162 165.238 125.288 164.245 126.731C163.81 127.367 159.635 129.629 151.58 128.337C151.58 128.337 151.707 127.324 152.357 126.855C152.357 126.855 159.134 124.69 159.124 124.26C159.102 123.445 158.207 122.741 154.422 118.973C153.392 117.953 156.402 113.558 156.402 113.558Z" fill="#F99746"/>
<path d="M154.31 113.7C154.403 113.575 154.282 113.175 154.134 112.439C153.998 111.769 153.769 110.732 153.774 109.566L153.574 109.6L150.205 110.163C150.205 110.163 150.282 111.059 150.284 111.904V111.925C150.284 112.66 150.085 113.766 150.333 113.91C151.61 114.654 153.953 114.179 154.31 113.7Z" fill="#FED9BB"/>
<path d="M150.205 110.163C150.205 110.163 150.272 111.426 150.274 112.275C152.159 112.229 153.165 110.405 153.574 109.599L150.205 110.163Z" fill="#FED9BB"/>
<path d="M150.002 111.674C150.002 111.674 154.418 111.043 153.984 108.312C153.55 105.581 153.828 103.662 150.989 103.947C148.151 104.232 147.771 105.359 147.693 106.306C147.614 107.252 148.841 111.762 150.002 111.674Z" fill="#FED9BB"/>
<path d="M148.972 104.199C148.972 104.199 150.691 107.21 152.617 107.391C154.543 107.571 155.268 106.95 155.268 106.95C154.227 106.297 153.447 105.304 153.061 104.142C153.061 104.142 149.639 102.534 148.972 104.199Z" fill="#261C96"/>
<path d="M149.313 104.411C149.313 104.411 148.469 104.886 148.208 105.593C147.884 106.421 147.817 107.327 148.014 108.194C148.014 108.194 146.757 106.161 147.581 104.768C148.454 103.29 149.313 104.411 149.313 104.411Z" fill="#261C96"/>
<path d="M246.609 176.849H1.8111C1.64198 176.849 1.50488 176.986 1.50488 177.156V177.332C1.50488 177.501 1.64198 177.638 1.8111 177.638H246.609C246.778 177.638 246.915 177.501 246.915 177.332V177.156C246.915 176.986 246.778 176.849 246.609 176.849Z" fill="#261C96"/>
</svg>
