<svg width="288" height="298" viewBox="0 0 288 298" fill="none" xmlns="http://www.w3.org/2000/svg">
<mask id="mask0_2_391" style="mask-type:alpha" maskUnits="userSpaceOnUse" x="0" y="0" width="288" height="298">
<path fill-rule="evenodd" clip-rule="evenodd" d="M0 0H288V298H0V0Z" fill="white"/>
</mask>
<g mask="url(#mask0_2_391)">
<path opacity="0.0574544" d="M203 186.621L233.612 187.501C246.045 187.858 256.509 178.267 257.234 165.85L263 67" stroke="#2F2725" stroke-width="2" stroke-dasharray="470 190"/>
<path opacity="0.562105" d="M40 159L31.311 51.0086C30.3186 38.6735 39.6914 27.947 52.0481 27.2765L94 25" stroke="#ECEBEB" stroke-width="2"/>
<rect x="48" y="71.6" width="60" height="60" rx="30" fill="#FEDDDB" stroke="#F8463D" stroke-width="2" stroke-miterlimit="4.25735"/>
<path fill-rule="evenodd" clip-rule="evenodd" d="M72.1347 92.0138C71.0275 91.5705 69.8708 92.5341 70.1068 93.7032L73.6633 111.32C73.9009 112.497 75.3567 112.932 76.2007 112.077L87.6637 100.474C88.4176 99.711 88.1501 98.4261 87.1542 98.0274L72.1347 92.0138Z" fill="#F8463D" fill-opacity="0.400186" stroke="#F8463D" stroke-width="2"/>
<path opacity="0.160054" d="M85.7535 202.781C85.3479 203.583 85.1698 204.464 85.084 205.518C85 206.551 85 207.833 85 209.461L85 209.505V222.4L85 222.444C85 224.087 85 225.381 85.0851 226.422C85.1719 227.485 85.3522 228.372 85.763 229.178C86.4341 230.495 87.5049 231.566 88.8221 232.237C89.6283 232.648 90.5154 232.828 91.5778 232.915C92.6191 233 93.913 233 95.5556 233H95.6H177.4H177.444C179.087 233 180.381 233 181.422 232.915C182.485 232.828 183.372 232.648 184.178 232.237C185.495 231.566 186.566 230.495 187.237 229.178C187.648 228.372 187.828 227.485 187.915 226.422C188 225.381 188 224.087 188 222.444V222.4V208.696V208.651C188 206.993 188 205.688 187.914 204.638C187.826 203.567 187.644 202.674 187.228 201.863C186.548 200.54 185.465 199.467 184.135 198.801C183.32 198.393 182.425 198.219 181.353 198.142C180.302 198.066 178.997 198.079 177.34 198.096L177.295 198.096L95.4951 198.906L95.4509 198.906C93.8232 198.922 92.5406 198.935 91.5087 199.029C90.4556 199.126 89.5768 199.312 88.7789 199.726C87.4749 200.402 86.4165 201.471 85.7535 202.781Z" stroke="#4A90E2" stroke-width="2"/>
<path opacity="0.840169" d="M107.364 216.452H108.602V217.785H107.364V220H105.703V217.785H101.403L101.355 216.773L105.648 210.047H107.364V216.452ZM103.099 216.452H105.703V212.296L105.58 212.515L103.099 216.452ZM116.42 210.97L112.441 220H110.698L114.67 211.38H109.522V210.047H116.42V210.97ZM125.404 214.121C125.185 214.085 124.96 214.066 124.727 214.066C123.966 214.066 123.454 214.358 123.189 214.941V220H121.528V212.604H123.114L123.155 213.431C123.556 212.788 124.112 212.467 124.823 212.467C125.06 212.467 125.256 212.499 125.411 212.562L125.404 214.121ZM129.667 220.137C128.615 220.137 127.76 219.806 127.104 219.146C126.452 218.48 126.126 217.596 126.126 216.493V216.288C126.126 215.55 126.268 214.891 126.55 214.312C126.837 213.729 127.238 213.276 127.753 212.952C128.268 212.629 128.842 212.467 129.476 212.467C130.483 212.467 131.26 212.788 131.807 213.431C132.358 214.073 132.634 214.982 132.634 216.158V216.828H127.801C127.851 217.439 128.054 217.922 128.409 218.277C128.769 218.633 129.221 218.811 129.763 218.811C130.524 218.811 131.144 218.503 131.622 217.888L132.518 218.742C132.222 219.184 131.825 219.528 131.328 219.774C130.836 220.016 130.283 220.137 129.667 220.137ZM129.469 213.8C129.013 213.8 128.644 213.959 128.362 214.278C128.084 214.597 127.906 215.042 127.828 215.611H130.993V215.488C130.957 214.932 130.809 214.513 130.549 214.23C130.289 213.943 129.929 213.8 129.469 213.8ZM136.535 217.895L138.1 212.604H139.816L137.253 220H135.81L133.226 212.604H134.949L136.535 217.895ZM142.719 220H141.058V212.604H142.719V220ZM140.956 210.683C140.956 210.427 141.035 210.215 141.195 210.047C141.359 209.878 141.591 209.794 141.892 209.794C142.193 209.794 142.425 209.878 142.589 210.047C142.753 210.215 142.835 210.427 142.835 210.683C142.835 210.933 142.753 211.143 142.589 211.312C142.425 211.476 142.193 211.558 141.892 211.558C141.591 211.558 141.359 211.476 141.195 211.312C141.035 211.143 140.956 210.933 140.956 210.683ZM147.885 220.137C146.832 220.137 145.978 219.806 145.321 219.146C144.67 218.48 144.344 217.596 144.344 216.493V216.288C144.344 215.55 144.485 214.891 144.768 214.312C145.055 213.729 145.456 213.276 145.971 212.952C146.486 212.629 147.06 212.467 147.693 212.467C148.701 212.467 149.478 212.788 150.024 213.431C150.576 214.073 150.852 214.982 150.852 216.158V216.828H146.019C146.069 217.439 146.271 217.922 146.627 218.277C146.987 218.633 147.438 218.811 147.98 218.811C148.742 218.811 149.361 218.503 149.84 217.888L150.735 218.742C150.439 219.184 150.043 219.528 149.546 219.774C149.054 220.016 148.5 220.137 147.885 220.137ZM147.687 213.8C147.231 213.8 146.862 213.959 146.579 214.278C146.301 214.597 146.123 215.042 146.046 215.611H149.211V215.488C149.174 214.932 149.026 214.513 148.767 214.23C148.507 213.943 148.147 213.8 147.687 213.8ZM158.738 217.71L159.914 212.604H161.534L159.517 220H158.15L156.564 214.921L155.005 220H153.638L151.615 212.604H153.235L154.431 217.655L155.949 212.604H157.2L158.738 217.71ZM166.884 217.99C166.884 217.694 166.761 217.468 166.515 217.313C166.273 217.159 165.87 217.022 165.305 216.903C164.74 216.785 164.268 216.634 163.89 216.452C163.06 216.051 162.646 215.47 162.646 214.709C162.646 214.071 162.915 213.538 163.452 213.109C163.99 212.681 164.674 212.467 165.503 212.467C166.387 212.467 167.1 212.686 167.643 213.123C168.19 213.561 168.463 214.128 168.463 214.825H166.802C166.802 214.506 166.683 214.242 166.446 214.032C166.209 213.818 165.895 213.711 165.503 213.711C165.139 213.711 164.84 213.795 164.608 213.964C164.38 214.132 164.266 214.358 164.266 214.641C164.266 214.896 164.373 215.094 164.587 215.235C164.801 215.377 165.234 215.52 165.886 215.666C166.538 215.807 167.048 215.978 167.417 216.179C167.791 216.375 168.067 216.612 168.244 216.89C168.427 217.168 168.518 217.505 168.518 217.901C168.518 218.567 168.242 219.107 167.691 219.521C167.139 219.932 166.417 220.137 165.524 220.137C164.917 220.137 164.377 220.027 163.903 219.809C163.43 219.59 163.06 219.289 162.796 218.906C162.532 218.523 162.4 218.111 162.4 217.669H164.013C164.036 218.061 164.184 218.364 164.457 218.578C164.731 218.788 165.093 218.893 165.544 218.893C165.982 218.893 166.314 218.811 166.542 218.646C166.77 218.478 166.884 218.259 166.884 217.99Z" fill="#4A90E2"/>
<path opacity="0.160054" d="M70.0847 200.845L69.6471 201.737L70.0847 200.845C69.2606 200.441 68.3556 200.275 67.2733 200.209C66.2121 200.144 64.8937 200.172 63.2194 200.208L63.1745 200.209L35.3745 200.8L35.3306 200.801C33.72 200.836 32.4506 200.863 31.4294 200.967C30.3871 201.074 29.5178 201.268 28.7295 201.685C27.4405 202.366 26.3964 203.432 25.7428 204.736C25.3431 205.533 25.1674 206.406 25.0828 207.45C25 208.473 25 209.743 25 211.354L25 211.398V222.4L25 222.444C25 224.087 25 225.381 25.0851 226.422C25.1719 227.485 25.3522 228.372 25.763 229.178C26.4341 230.495 27.5049 231.566 28.8221 232.237C29.6283 232.648 30.5154 232.828 31.5778 232.915C32.6191 233 33.913 233 35.5556 233H35.6H63.4H63.4444C65.087 233 66.3809 233 67.4222 232.915C68.4846 232.828 69.3717 232.648 70.1779 232.237C71.4951 231.566 72.5659 230.495 73.237 229.178C73.6478 228.372 73.8281 227.485 73.9149 226.422C74 225.381 74 224.087 74 222.444V222.4V210.806V210.761C74 209.087 74 207.768 73.9127 206.709C73.8236 205.628 73.6387 204.727 73.2166 203.911C72.5278 202.58 71.43 201.506 70.0847 200.845Z" stroke="#FDC425" stroke-width="2"/>
<path opacity="0.844773" d="M40.1895 217.064L40.7295 212.047H46.0752V213.482H42.1104L41.8369 215.861C42.2972 215.597 42.8167 215.465 43.3955 215.465C44.3434 215.465 45.0794 215.768 45.6035 216.374C46.1322 216.98 46.3965 217.796 46.3965 218.821C46.3965 219.833 46.1048 220.64 45.5215 221.241C44.9382 221.838 44.1383 222.137 43.1221 222.137C42.2106 222.137 41.4541 221.879 40.8525 221.364C40.2555 220.845 39.932 220.161 39.8818 219.313H41.4883C41.5521 219.797 41.7253 220.168 42.0078 220.428C42.2904 220.683 42.6595 220.811 43.1152 220.811C43.6257 220.811 44.0221 220.628 44.3047 220.264C44.5918 219.899 44.7354 219.402 44.7354 218.773C44.7354 218.167 44.5781 217.689 44.2637 217.338C43.9492 216.982 43.5163 216.805 42.9648 216.805C42.6641 216.805 42.4089 216.846 42.1992 216.928C41.9896 217.005 41.7617 217.16 41.5156 217.393L40.1895 217.064Z" fill="#FDC425"/>
<path opacity="0.844773" fill-rule="evenodd" clip-rule="evenodd" d="M55.5 220.49L51.6794 222.759L52.6563 218.424L49.3181 215.491L53.7425 215.081L55.5 211L57.2575 215.081L61.6819 215.491L58.3437 218.424L59.3206 222.759L55.5 220.49Z" fill="#FDC425"/>
<path opacity="0.307571" d="M33.8221 243.763L34.2752 244.652L33.8221 243.763C34.6283 243.352 35.5154 243.172 36.5778 243.085C37.6191 243 38.913 243 40.5556 243L40.6 243H127.4L127.444 243C129.087 243 130.381 243 131.422 243.085C132.485 243.172 133.372 243.352 134.178 243.763C135.495 244.434 136.566 245.505 137.237 246.822C137.648 247.628 137.828 248.515 137.915 249.578C138 250.619 138 251.913 138 253.556L138 253.6V266.579L138 266.623C138 268.238 138 269.51 137.917 270.536C137.832 271.582 137.656 272.457 137.255 273.255C136.599 274.56 135.552 275.627 134.26 276.307C133.47 276.723 132.598 276.915 131.554 277.02C130.53 277.122 129.258 277.146 127.644 277.177L127.6 277.178L40.8 278.815L40.7551 278.816C39.0844 278.848 37.7688 278.872 36.7098 278.805C35.6298 278.737 34.7268 278.569 33.9047 278.164C32.5626 277.503 31.4679 276.428 30.781 275.099C30.3603 274.285 30.1758 273.385 30.0871 272.306C30 271.249 30 269.933 30 268.262V268.217V253.6V253.556C30 251.913 30 250.619 30.0851 249.578C30.1719 248.515 30.3522 247.628 30.763 246.822C31.4341 245.505 32.5049 244.434 33.8221 243.763Z" stroke="#D8D8D8" stroke-width="2"/>
<path d="M53.4375 266H46.7451V264.858L50.0605 261.242C50.5391 260.709 50.8786 260.265 51.0791 259.909C51.2842 259.549 51.3867 259.189 51.3867 258.829C51.3867 258.355 51.2523 257.972 50.9834 257.681C50.7191 257.389 50.3613 257.243 49.9102 257.243C49.3724 257.243 48.9554 257.407 48.6592 257.735C48.363 258.063 48.2148 258.512 48.2148 259.082H46.5537C46.5537 258.476 46.6904 257.931 46.9639 257.448C47.2419 256.961 47.6361 256.582 48.1465 256.313C48.6615 256.045 49.2539 255.91 49.9238 255.91C50.89 255.91 51.651 256.154 52.207 256.642C52.7676 257.125 53.0479 257.795 53.0479 258.651C53.0479 259.148 52.9066 259.67 52.624 260.217C52.346 260.759 51.888 261.377 51.25 262.069L48.8164 264.674H53.4375V266ZM55.2398 261.064L55.7799 256.047H61.1256V257.482H57.1607L56.8873 259.861C57.3476 259.597 57.8671 259.465 58.4459 259.465C59.3938 259.465 60.1298 259.768 60.6539 260.374C61.1825 260.98 61.4468 261.796 61.4468 262.821C61.4468 263.833 61.1552 264.64 60.5718 265.241C59.9885 265.838 59.1887 266.137 58.1724 266.137C57.261 266.137 56.5045 265.879 55.9029 265.364C55.3059 264.845 54.9823 264.161 54.9322 263.313H56.5386C56.6024 263.797 56.7756 264.168 57.0582 264.428C57.3407 264.683 57.7099 264.811 58.1656 264.811C58.676 264.811 59.0725 264.628 59.3551 264.264C59.6422 263.899 59.7857 263.402 59.7857 262.773C59.7857 262.167 59.6285 261.689 59.314 261.338C58.9996 260.982 58.5666 260.805 58.0152 260.805C57.7144 260.805 57.4592 260.846 57.2496 260.928C57.0399 261.005 56.8121 261.16 56.566 261.393L55.2398 261.064ZM69.3332 261.81C69.3332 263.241 69.0643 264.321 68.5265 265.05C67.9933 265.774 67.1798 266.137 66.0861 266.137C65.0106 266.137 64.1994 265.784 63.6525 265.077C63.1102 264.366 62.8322 263.316 62.8185 261.926V260.203C62.8185 258.772 63.0851 257.699 63.6183 256.983C64.1561 256.268 64.9741 255.91 66.0724 255.91C67.1616 255.91 67.9728 256.259 68.506 256.956C69.0438 257.653 69.3195 258.697 69.3332 260.087V261.81ZM67.672 259.95C67.672 259.016 67.5444 258.332 67.2892 257.899C67.034 257.462 66.6284 257.243 66.0724 257.243C65.5301 257.243 65.1313 257.451 64.8761 257.865C64.6209 258.275 64.4865 258.918 64.4728 259.793V262.049C64.4728 262.979 64.6027 263.671 64.8624 264.127C65.1222 264.583 65.5301 264.811 66.0861 264.811C66.6193 264.811 67.0135 264.601 67.2687 264.182C67.5239 263.758 67.6583 263.097 67.672 262.199V259.95ZM76.3489 266H74.6878V255.5H76.3489V266ZM81.5145 266.137C80.4618 266.137 79.6073 265.806 78.951 265.146C78.2993 264.48 77.9735 263.596 77.9735 262.493V262.288C77.9735 261.55 78.1148 260.891 78.3973 260.312C78.6844 259.729 79.0855 259.276 79.6005 258.952C80.1154 258.629 80.6896 258.467 81.3231 258.467C82.3303 258.467 83.1073 258.788 83.6542 259.431C84.2056 260.073 84.4813 260.982 84.4813 262.158V262.828H79.6483C79.6984 263.439 79.9012 263.922 80.2567 264.277C80.6167 264.633 81.0679 264.811 81.6102 264.811C82.3713 264.811 82.9911 264.503 83.4696 263.888L84.3651 264.742C84.0689 265.184 83.6724 265.528 83.1757 265.774C82.6835 266.016 82.1298 266.137 81.5145 266.137ZM81.3163 259.8C80.8605 259.8 80.4914 259.959 80.2089 260.278C79.9309 260.597 79.7531 261.042 79.6757 261.611H82.8407V261.488C82.8042 260.932 82.6561 260.513 82.3964 260.23C82.1366 259.943 81.7766 259.8 81.3163 259.8ZM90.0161 263.99C90.0161 263.694 89.893 263.468 89.6469 263.313C89.4054 263.159 89.0021 263.022 88.437 262.903C87.8719 262.785 87.4002 262.634 87.0219 262.452C86.1925 262.051 85.7778 261.47 85.7778 260.709C85.7778 260.071 86.0467 259.538 86.5844 259.109C87.1222 258.681 87.8058 258.467 88.6352 258.467C89.5193 258.467 90.2325 258.686 90.7748 259.123C91.3217 259.561 91.5952 260.128 91.5952 260.825H89.934C89.934 260.506 89.8155 260.242 89.5786 260.032C89.3416 259.818 89.0271 259.711 88.6352 259.711C88.2706 259.711 87.9721 259.795 87.7397 259.964C87.5118 260.132 87.3979 260.358 87.3979 260.641C87.3979 260.896 87.505 261.094 87.7192 261.235C87.9334 261.377 88.3663 261.52 89.018 261.666C89.6697 261.807 90.1801 261.978 90.5493 262.179C90.923 262.375 91.1987 262.612 91.3764 262.89C91.5587 263.168 91.6498 263.505 91.6498 263.901C91.6498 264.567 91.3741 265.107 90.8227 265.521C90.2713 265.932 89.5489 266.137 88.6557 266.137C88.0496 266.137 87.5095 266.027 87.0356 265.809C86.5616 265.59 86.1925 265.289 85.9282 264.906C85.6638 264.523 85.5317 264.111 85.5317 263.669H87.145C87.1677 264.061 87.3159 264.364 87.5893 264.578C87.8627 264.788 88.225 264.893 88.6762 264.893C89.1137 264.893 89.4464 264.811 89.6743 264.646C89.9021 264.478 90.0161 264.259 90.0161 263.99ZM97.3418 263.99C97.3418 263.694 97.2188 263.468 96.9727 263.313C96.7311 263.159 96.3278 263.022 95.7627 262.903C95.1976 262.785 94.7259 262.634 94.3477 262.452C93.5182 262.051 93.1035 261.47 93.1035 260.709C93.1035 260.071 93.3724 259.538 93.9102 259.109C94.4479 258.681 95.1315 258.467 95.9609 258.467C96.8451 258.467 97.5583 258.686 98.1006 259.123C98.6475 259.561 98.9209 260.128 98.9209 260.825H97.2598C97.2598 260.506 97.1413 260.242 96.9043 260.032C96.6673 259.818 96.3529 259.711 95.9609 259.711C95.5964 259.711 95.2979 259.795 95.0654 259.964C94.8376 260.132 94.7236 260.358 94.7236 260.641C94.7236 260.896 94.8307 261.094 95.0449 261.235C95.2591 261.377 95.6921 261.52 96.3438 261.666C96.9955 261.807 97.5059 261.978 97.875 262.179C98.2487 262.375 98.5244 262.612 98.7022 262.89C98.8845 263.168 98.9756 263.505 98.9756 263.901C98.9756 264.567 98.6999 265.107 98.1484 265.521C97.597 265.932 96.8747 266.137 95.9815 266.137C95.3753 266.137 94.8353 266.027 94.3613 265.809C93.8874 265.59 93.5182 265.289 93.2539 264.906C92.9896 264.523 92.8574 264.111 92.8574 263.669H94.4707C94.4935 264.061 94.6416 264.364 94.9151 264.578C95.1885 264.788 95.5508 264.893 96.002 264.893C96.4395 264.893 96.7721 264.811 97 264.646C97.2279 264.478 97.3418 264.259 97.3418 263.99ZM100.211 262.233C100.211 261.509 100.354 260.857 100.641 260.278C100.928 259.695 101.332 259.248 101.851 258.938C102.371 258.624 102.968 258.467 103.642 258.467C104.64 258.467 105.449 258.788 106.069 259.431C106.693 260.073 107.031 260.925 107.081 261.987L107.087 262.377C107.087 263.106 106.946 263.758 106.664 264.332C106.386 264.906 105.985 265.351 105.461 265.665C104.941 265.979 104.339 266.137 103.656 266.137C102.612 266.137 101.776 265.79 101.147 265.098C100.523 264.4 100.211 263.473 100.211 262.315V262.233ZM101.872 262.377C101.872 263.138 102.029 263.735 102.343 264.168C102.658 264.596 103.095 264.811 103.656 264.811C104.216 264.811 104.652 264.592 104.962 264.154C105.276 263.717 105.433 263.076 105.433 262.233C105.433 261.486 105.271 260.894 104.948 260.456C104.629 260.019 104.194 259.8 103.642 259.8C103.1 259.8 102.669 260.016 102.35 260.449C102.031 260.878 101.872 261.52 101.872 262.377ZM110.127 258.604L110.175 259.458C110.722 258.797 111.44 258.467 112.328 258.467C113.869 258.467 114.653 259.349 114.68 261.112V266H113.019V261.208C113.019 260.739 112.916 260.392 112.711 260.169C112.511 259.941 112.18 259.827 111.72 259.827C111.05 259.827 110.551 260.13 110.223 260.736V266H108.562V258.604H110.127ZM120.618 263.99C120.618 263.694 120.495 263.468 120.249 263.313C120.007 263.159 119.604 263.022 119.039 262.903C118.474 262.785 118.002 262.634 117.624 262.452C116.794 262.051 116.38 261.47 116.38 260.709C116.38 260.071 116.649 259.538 117.186 259.109C117.724 258.681 118.408 258.467 119.237 258.467C120.121 258.467 120.834 258.686 121.377 259.123C121.924 259.561 122.197 260.128 122.197 260.825H120.536C120.536 260.506 120.417 260.242 120.18 260.032C119.943 259.818 119.629 259.711 119.237 259.711C118.872 259.711 118.574 259.795 118.342 259.964C118.114 260.132 118 260.358 118 260.641C118 260.896 118.107 261.094 118.321 261.235C118.535 261.377 118.968 261.52 119.62 261.666C120.272 261.807 120.782 261.978 121.151 262.179C121.525 262.375 121.801 262.612 121.978 262.89C122.161 263.168 122.252 263.505 122.252 263.901C122.252 264.567 121.976 265.107 121.425 265.521C120.873 265.932 120.151 266.137 119.258 266.137C118.651 266.137 118.111 266.027 117.637 265.809C117.163 265.59 116.794 265.289 116.53 264.906C116.266 264.523 116.134 264.111 116.134 263.669H117.747C117.77 264.061 117.918 264.364 118.191 264.578C118.465 264.788 118.827 264.893 119.278 264.893C119.716 264.893 120.048 264.811 120.276 264.646C120.504 264.478 120.618 264.259 120.618 263.99Z" fill="#6F757B" fill-opacity="0.43"/>
<path opacity="0.140054" d="M243.178 244.763L242.725 245.652L243.178 244.763C242.372 244.352 241.485 244.172 240.422 244.085C239.381 244 238.087 244 236.444 244L236.4 244H158.6L158.556 244C156.913 244 155.619 244 154.578 244.085C153.515 244.172 152.628 244.352 151.822 244.763C150.505 245.434 149.434 246.505 148.763 247.822C148.352 248.628 148.172 249.515 148.085 250.578C148 251.619 148 252.913 148 254.556L148 254.6V266.523L148 266.567C148 268.195 148 269.478 148.084 270.51C148.17 271.564 148.348 272.445 148.753 273.247C149.416 274.557 150.475 275.626 151.778 276.302C152.576 276.716 153.455 276.903 154.508 276.999C155.54 277.093 156.822 277.106 158.45 277.122L158.494 277.123L236.294 277.901L236.339 277.902C237.996 277.918 239.302 277.931 240.352 277.856C241.424 277.778 242.32 277.605 243.134 277.197C244.465 276.531 245.548 275.458 246.227 274.134C246.644 273.324 246.826 272.43 246.914 271.359C247 270.309 247 269.004 247 267.346V267.302V254.6V254.556C247 252.913 247 251.619 246.915 250.578C246.828 249.515 246.648 248.628 246.237 247.822C245.566 246.505 244.495 245.434 243.178 244.763Z" stroke="#3BB3BD" stroke-width="2"/>
<path opacity="0.709589" d="M165.459 263.895L167.024 258.604H168.74L166.177 266H164.734L162.15 258.604H163.873L165.459 263.895ZM173.038 266.137C171.985 266.137 171.13 265.806 170.474 265.146C169.822 264.48 169.497 263.596 169.497 262.493V262.288C169.497 261.55 169.638 260.891 169.92 260.312C170.208 259.729 170.609 259.276 171.124 258.952C171.639 258.629 172.213 258.467 172.846 258.467C173.853 258.467 174.63 258.788 175.177 259.431C175.729 260.073 176.004 260.982 176.004 262.158V262.828H171.171C171.222 263.439 171.424 263.922 171.78 264.277C172.14 264.633 172.591 264.811 173.133 264.811C173.894 264.811 174.514 264.503 174.993 263.888L175.888 264.742C175.592 265.184 175.196 265.528 174.699 265.774C174.207 266.016 173.653 266.137 173.038 266.137ZM172.839 259.8C172.384 259.8 172.015 259.959 171.732 260.278C171.454 260.597 171.276 261.042 171.199 261.611H174.364V261.488C174.327 260.932 174.179 260.513 173.92 260.23C173.66 259.943 173.3 259.8 172.839 259.8ZM181.266 260.121C181.047 260.085 180.821 260.066 180.589 260.066C179.828 260.066 179.315 260.358 179.051 260.941V266H177.39V258.604H178.976L179.017 259.431C179.418 258.788 179.974 258.467 180.685 258.467C180.922 258.467 181.118 258.499 181.273 258.562L181.266 260.121ZM184.176 266H182.514V258.604H184.176V266ZM182.412 256.683C182.412 256.427 182.492 256.215 182.651 256.047C182.815 255.878 183.048 255.794 183.348 255.794C183.649 255.794 183.882 255.878 184.046 256.047C184.21 256.215 184.292 256.427 184.292 256.683C184.292 256.933 184.21 257.143 184.046 257.312C183.882 257.476 183.649 257.558 183.348 257.558C183.048 257.558 182.815 257.476 182.651 257.312C182.492 257.143 182.412 256.933 182.412 256.683ZM186.525 266V259.834H185.397V258.604H186.525V258.098C186.529 257.519 186.652 257.022 186.894 256.607C187.135 256.193 187.477 255.881 187.919 255.671C188.361 255.461 188.892 255.356 189.512 255.356C189.877 255.356 190.225 255.395 190.558 255.473C190.895 255.55 191.244 255.648 191.604 255.767L191.351 257.141C190.722 256.922 190.148 256.812 189.628 256.812C189.122 256.812 188.755 256.924 188.528 257.147C188.3 257.366 188.186 257.697 188.186 258.139V258.604H189.642V259.834H188.186V266H186.525ZM192.39 266H190.729V258.604H192.39V266ZM197.583 266.137C196.53 266.137 195.676 265.806 195.019 265.146C194.368 264.48 194.042 263.596 194.042 262.493V262.288C194.042 261.55 194.183 260.891 194.466 260.312C194.753 259.729 195.154 259.276 195.669 258.952C196.184 258.629 196.758 258.467 197.391 258.467C198.399 258.467 199.176 258.788 199.723 259.431C200.274 260.073 200.55 260.982 200.55 262.158V262.828H195.717C195.767 263.439 195.97 263.922 196.325 264.277C196.685 264.633 197.136 264.811 197.679 264.811C198.44 264.811 199.059 264.503 199.538 263.888L200.433 264.742C200.137 265.184 199.741 265.528 199.244 265.774C198.752 266.016 198.198 266.137 197.583 266.137ZM197.385 259.8C196.929 259.8 196.56 259.959 196.277 260.278C195.999 260.597 195.821 261.042 195.744 261.611H198.909V261.488C198.873 260.932 198.724 260.513 198.465 260.23C198.205 259.943 197.845 259.8 197.385 259.8ZM201.627 262.247C201.627 261.108 201.892 260.194 202.42 259.506C202.949 258.813 203.658 258.467 204.546 258.467C205.33 258.467 205.964 258.74 206.447 259.287V255.5H208.108V266H206.604L206.522 265.234C206.025 265.836 205.362 266.137 204.533 266.137C203.667 266.137 202.965 265.788 202.427 265.091C201.894 264.394 201.627 263.446 201.627 262.247ZM203.289 262.391C203.289 263.143 203.432 263.73 203.719 264.154C204.011 264.574 204.423 264.783 204.956 264.783C205.636 264.783 206.132 264.48 206.447 263.874V260.716C206.141 260.123 205.649 259.827 204.97 259.827C204.432 259.827 204.018 260.041 203.726 260.47C203.434 260.894 203.289 261.534 203.289 262.391Z" fill="#3BB3BD"/>
<g opacity="0.687244">
<path d="M228.019 254C227.451 254.539 226.813 254.995 226.122 255.354C224.846 256.015 223.429 256.339 222 256.296C222 257.596 222.039 258.662 222.082 259.419C222.098 259.908 222.143 260.395 222.216 260.879C222.363 261.709 222.608 262.519 222.944 263.289C223.587 264.681 224.545 265.895 225.738 266.828C226.435 267.377 227.197 267.832 228.006 268.182C228.818 267.825 229.582 267.363 230.279 266.806C231.472 265.873 232.431 264.659 233.073 263.267C233.403 262.499 233.642 261.692 233.784 260.865C233.857 260.382 233.902 259.894 233.918 259.406C233.961 258.649 234 257.583 234 256.283C232.581 256.325 231.173 256.006 229.904 255.354C229.218 254.994 228.584 254.538 228.019 254Z" stroke="#3BB3BD" stroke-width="2"/>
<path d="M225 261L227 263L231 259" stroke="#3BB3BD" stroke-width="2"/>
</g>
<path opacity="0.140054" d="M199.036 204.973C198.599 205.791 198.402 206.701 198.302 207.793C198.204 208.865 198.192 210.201 198.177 211.899L198.177 211.944L198.085 222.307L198.085 222.351C198.07 224.007 198.059 225.311 198.136 226.361C198.214 227.431 198.388 228.326 198.797 229.139C199.463 230.468 200.536 231.55 201.859 232.229C202.669 232.644 203.562 232.826 204.632 232.914C205.68 233 206.985 233 208.64 233H208.685H256.4H256.444C258.087 233 259.381 233 260.422 232.915C261.485 232.828 262.372 232.648 263.178 232.237C264.495 231.566 265.566 230.495 266.237 229.178C266.648 228.372 266.828 227.485 266.915 226.422C267 225.381 267 224.087 267 222.444V222.4V214.178V214.135C267 212.558 267 211.315 266.92 210.312C266.837 209.287 266.667 208.429 266.279 207.643C265.645 206.355 264.63 205.294 263.372 204.602C262.604 204.18 261.755 203.971 260.735 203.843C259.736 203.717 258.494 203.662 256.919 203.591L256.876 203.589L209.252 201.448L209.207 201.446C207.511 201.37 206.177 201.31 205.101 201.35C204.005 201.392 203.086 201.539 202.246 201.932C200.875 202.572 199.749 203.639 199.036 204.973Z" stroke="#50BF16" stroke-width="2"/>
<path opacity="0.868536" d="M216.393 214.604L216.44 215.458C216.987 214.797 217.705 214.467 218.594 214.467C220.134 214.467 220.918 215.349 220.945 217.112V222H219.284V217.208C219.284 216.739 219.182 216.392 218.977 216.169C218.776 215.941 218.446 215.827 217.985 215.827C217.315 215.827 216.816 216.13 216.488 216.736V222H214.827V214.604H216.393ZM227.157 222C227.084 221.859 227.02 221.629 226.965 221.31C226.437 221.861 225.79 222.137 225.024 222.137C224.281 222.137 223.675 221.925 223.206 221.501C222.736 221.077 222.502 220.553 222.502 219.929C222.502 219.14 222.793 218.536 223.377 218.117C223.964 217.693 224.803 217.481 225.892 217.481H226.911V216.996C226.911 216.613 226.804 216.308 226.589 216.08C226.375 215.848 226.049 215.731 225.612 215.731C225.234 215.731 224.924 215.827 224.682 216.019C224.441 216.205 224.32 216.445 224.32 216.736H222.659C222.659 216.331 222.793 215.952 223.062 215.602C223.331 215.246 223.696 214.968 224.156 214.768C224.621 214.567 225.138 214.467 225.708 214.467C226.573 214.467 227.264 214.686 227.779 215.123C228.294 215.556 228.558 216.167 228.572 216.955V220.291C228.572 220.956 228.665 221.487 228.852 221.884V222H227.157ZM225.332 220.804C225.66 220.804 225.967 220.724 226.254 220.564C226.546 220.405 226.765 220.191 226.911 219.922V218.527H226.015C225.4 218.527 224.937 218.634 224.628 218.849C224.318 219.063 224.163 219.366 224.163 219.758C224.163 220.077 224.267 220.332 224.477 220.523C224.691 220.71 224.976 220.804 225.332 220.804ZM232.486 212.806V214.604H233.792V215.834H232.486V219.963C232.486 220.245 232.541 220.451 232.651 220.578C232.764 220.701 232.965 220.763 233.252 220.763C233.444 220.763 233.637 220.74 233.833 220.694V221.979C233.455 222.084 233.09 222.137 232.739 222.137C231.463 222.137 230.825 221.433 230.825 220.024V215.834H229.609V214.604H230.825V212.806H232.486ZM236.927 222H235.266V214.604H236.927V222ZM235.164 212.683C235.164 212.427 235.244 212.215 235.403 212.047C235.567 211.878 235.8 211.794 236.1 211.794C236.401 211.794 236.634 211.878 236.798 212.047C236.962 212.215 237.044 212.427 237.044 212.683C237.044 212.933 236.962 213.143 236.798 213.312C236.634 213.476 236.401 213.558 236.1 213.558C235.8 213.558 235.567 213.476 235.403 213.312C235.244 213.143 235.164 212.933 235.164 212.683ZM241.444 219.895L243.009 214.604H244.725L242.161 222H240.719L238.135 214.604H239.858L241.444 219.895ZM249.118 222.137C248.065 222.137 247.211 221.806 246.555 221.146C245.903 220.48 245.577 219.596 245.577 218.493V218.288C245.577 217.55 245.718 216.891 246.001 216.312C246.288 215.729 246.689 215.276 247.204 214.952C247.719 214.629 248.293 214.467 248.927 214.467C249.934 214.467 250.711 214.788 251.258 215.431C251.809 216.073 252.085 216.982 252.085 218.158V218.828H247.252C247.302 219.439 247.505 219.922 247.86 220.277C248.22 220.633 248.671 220.811 249.214 220.811C249.975 220.811 250.595 220.503 251.073 219.888L251.969 220.742C251.672 221.184 251.276 221.528 250.779 221.774C250.287 222.016 249.733 222.137 249.118 222.137ZM248.92 215.8C248.464 215.8 248.095 215.959 247.812 216.278C247.534 216.597 247.357 217.042 247.279 217.611H250.444V217.488C250.408 216.932 250.26 216.513 250 216.23C249.74 215.943 249.38 215.8 248.92 215.8Z" fill="#50BF16"/>
<path fill-rule="evenodd" clip-rule="evenodd" d="M143.5 123.837C143.5 123.837 152.454 126.223 157.227 120.6C162 114.977 182.152 54.6 182.152 54.6C182.152 54.6 157.227 58.1 151.49 66.1C145.754 74.1 146.575 81.6 146.575 81.6L149.5 107.6L143.5 123.837Z" fill="#2F2725"/>
<path d="M195 60.1C195 60.1 170.067 54.79 161.667 58.6C147.335 65.1 146.414 77.4662 147.5 92.85C147.886 98.3222 148.974 103.16 148.764 107.364C148.429 114.044 143.5 122.6 143.5 122.6C143.5 122.6 149 126.1 154.227 122.1" stroke="#110706" stroke-width="2"/>
<path fill-rule="evenodd" clip-rule="evenodd" d="M187.262 115.985C187.262 115.985 195.221 136.6 191.828 141.6C186.42 149.57 175.628 152.1 175.628 152.1C175.628 152.1 167.359 145.657 167.355 140.1C167.352 134.543 170.135 131.457 170.135 131.457L187.262 115.985Z" fill="#F6C293"/>
<path d="M168.691 135.198C168.691 135.198 166 147.6 175.407 152.6L183.5 148.6" stroke="#D97B5E" stroke-width="2"/>
<path fill-rule="evenodd" clip-rule="evenodd" d="M206.519 97.0823C195.538 126.065 194.836 123.469 185 130.6C175.164 137.731 158.397 137.6 155.905 132.6C153.179 127.131 149.068 110.377 150.503 93.0179C151.086 85.9577 152.592 81.7295 156.008 73.3323C167.915 44.0659 217.5 68.1 206.519 97.0823Z" fill="#F6C293"/>
<path fill-rule="evenodd" clip-rule="evenodd" d="M155.892 116.977L173.257 120.489C173.257 120.489 166.719 126.109 161.836 124.704C156.953 123.299 155.892 116.977 155.892 116.977Z" fill="white" stroke="#E19178" stroke-width="2" stroke-linejoin="bevel"/>
<path fill-rule="evenodd" clip-rule="evenodd" d="M170.978 102.037C169.715 102.037 168.691 100.845 168.691 99.3733C168.691 97.902 169.715 96.7094 170.978 96.7094C172.241 96.7094 173.264 97.902 173.264 99.3733C173.264 100.845 172.241 102.037 170.978 102.037Z" fill="#232A31"/>
<path fill-rule="evenodd" clip-rule="evenodd" d="M153.125 97.6438C152.063 97.6438 151.203 96.6872 151.203 95.5072C151.203 94.3271 152.063 93.3705 153.125 93.3705C154.186 93.3705 155.046 94.3271 155.046 95.5072C155.046 96.6872 154.186 97.6438 153.125 97.6438Z" fill="#232A31"/>
<path d="M177.628 100.928C177.628 100.928 173.456 97.3596 170.82 97.3596C168.183 97.3596 167.082 99.6923 167.082 99.6923" stroke="#232A31" stroke-width="2"/>
<path d="M157.94 96.5891C157.94 96.5891 156.562 94.0889 154.139 93.2934C151.717 92.4979 149.393 95.3532 149.393 95.3532" stroke="#232A31" stroke-width="2"/>
<path d="M156.046 131.043C157.857 134.485 162.655 134.896 162.655 134.896C162.655 134.896 166.283 135.345 169.166 135.126C170.781 135.003 173.666 134.652 176.871 133.746" stroke="#D97B5E" stroke-width="2"/>
<path d="M203 144.457L230 150.1" stroke="#FEDDDB" stroke-width="2"/>
<path d="M161.667 138.6L135.5 144.6" stroke="#FEDDDB" stroke-width="2"/>
<path fill-rule="evenodd" clip-rule="evenodd" d="M186 54.2729C186 54.2729 181.337 56.8857 169.31 58.6C157.283 60.3143 152.966 66.1 150.5 74.1C148.034 82.1 146.309 88.8829 157.94 80.1C162.575 76.6 168.355 75.1 168.355 75.1C168.355 75.1 198.179 99.3294 197.679 108.6C197.378 114.195 186.616 126.176 186.616 126.176C186.616 126.176 187.158 135.6 191 139.1C194.842 142.6 199 142.6 199 142.6C199 142.6 200.094 129.136 203 124.548C212.5 109.548 216.797 99.9237 216.533 91.7041C216.281 83.846 215.652 68.705 205.5 60.1C201.351 56.5835 186 54.2729 186 54.2729Z" fill="#2F2725"/>
<path d="M154.227 83.6C155.87 82.1 167.691 73.6 167.691 73.6C167.691 73.6 200 100.574 197.5 110.371C195 120.167 184.5 121.457 187 131.043" stroke="#110706" stroke-width="2"/>
<path fill-rule="evenodd" clip-rule="evenodd" d="M189.5 100.928C189.5 100.928 192.5 96.2499 196.5 98.1438C200.5 100.038 198.755 108.6 194.5 108.6C190.245 108.6 189.5 100.928 189.5 100.928Z" fill="#F6C293"/>
<path d="M191.5 99.1438C191.5 99.1438 195.32 97.5523 196.5 97.598C197.68 97.6438 200.251 98.5705 199.5 103.071C198.749 107.572 194.5 108.6 194.5 108.6" stroke="#110706" stroke-width="2"/>
<path fill-rule="evenodd" clip-rule="evenodd" d="M173.243 90.6C170.001 90.0328 169.542 86.8246 169.542 86.8246C169.542 86.8246 181.872 87.1527 183.818 87.6164C184.267 87.7233 184.139 88.5125 184.268 88.6164C185.304 89.4482 176.484 91.1673 173.243 90.6Z" fill="#110706"/>
<path fill-rule="evenodd" clip-rule="evenodd" d="M194 40.6C204.493 40.6 213 45.5149 213 56.0083C213 64.4819 207 68.1 197.25 73.6C195.571 74.5469 196.02 78.6 194 78.6C183.507 78.6 177 70.0934 180 59.6C183 49.1066 183.507 40.6 194 40.6Z" fill="#2F2725"/>
<path fill-rule="evenodd" clip-rule="evenodd" d="M153 86.6C149.06 85.8294 149.762 82.6 149.762 82.6C149.762 82.6 159.267 84.2025 160.433 84.6164C161.6 85.0303 156.94 87.3705 153 86.6Z" fill="#110706"/>
<path fill-rule="evenodd" clip-rule="evenodd" d="M146.961 89.3705C146 94.1 146.774 97.4351 148.578 99.2509C150.615 101.3 153.818 101.6 156.507 100.082C158.214 99.1191 158.964 97.7695 160.078 93.1438" fill="white" fill-opacity="0.392401"/>
<path d="M146.961 89.3705C146 94.1 146.774 97.4351 148.578 99.2509C150.615 101.3 153.818 101.6 156.507 100.082C158.214 99.1191 158.964 97.7695 160.078 93.1438" stroke="black" stroke-width="2"/>
<path fill-rule="evenodd" clip-rule="evenodd" d="M161.694 94.6164L149.726 107.257C148.101 108.973 149.008 111.808 151.328 112.263L157.884 113.548" fill="#F6C293"/>
<path d="M161.694 94.6164L149.726 107.257C148.101 108.973 149.008 111.808 151.328 112.263L157.884 113.548" stroke="#D97B5E" stroke-width="2"/>
<path fill-rule="evenodd" clip-rule="evenodd" d="M164.158 93.3705C162.603 99.4031 163.506 102.802 166.083 104.251C169.341 106.082 173.511 106.6 176.712 105.082C178.743 104.119 180.827 101.769 182.152 97.1438" fill="white" fill-opacity="0.39"/>
<path d="M164.158 93.3705C162.603 99.4031 163.506 102.802 166.083 104.251C169.341 106.082 173.511 106.6 176.712 105.082C178.743 104.119 180.827 101.769 182.152 97.1438" stroke="black" stroke-width="2"/>
<path d="M143.824 89.6164C143.824 89.6164 154.924 90.1 158.168 91.8866C159.047 92.3833 159.599 93.1354 160.213 93.6342L162.114 94.0708C162.752 93.9022 163.392 93.5219 164.279 93.3715C171.786 92.3706 184.123 97.9503 184.123 97.9503L195.931 94.3052" stroke="black" stroke-width="2"/>
<path d="M168.093 60.6C168.093 60.6 182.502 51.1 197.102 56.1C211.703 61.1 216.545 75.6 216.393 88.4929C216.265 99.3867 212.5 108.6 206.5 118.6C199.333 130.545 199.5 142.1 199.5 142.1C199.5 142.1 194 141.6 191 138.1" stroke="#110706" stroke-width="2"/>
<path d="M194.5 134.1C194.5 134.1 196 121.37 202.5 112.985" stroke="#110706" stroke-width="2"/>
<path d="M181.5 46.6C181.5 46.6 200.5 47.5836 200.5 66.1" stroke="#110706" stroke-width="2"/>
<path d="M184 43.6C184 43.6 194.5 37.6 203.5 41.6C212.5 45.6 213.5 57.0083 213.5 57.0083" stroke="#110706" stroke-width="2"/>
<path d="M180.5 49.6C180.5 49.6 186.69 51.35 190.095 54.1" stroke="#110706" stroke-width="2"/>
<path d="M60 164.6L215.571 168.6" stroke="#FEDDDB" stroke-width="2"/>
<path d="M60 164.6L102.199 165.6" stroke="#F8463D" stroke-width="2"/>
<rect x="97.5814" y="159.6" width="11" height="11" rx="5.5" fill="white"/>
<rect x="97.5814" y="159.6" width="11" height="11" rx="5.5" stroke="#F8463D" stroke-width="2"/>
<rect x="97.5814" y="159.6" width="11" height="11" rx="5.5" stroke="white" stroke-width="2"/>
</g>
</svg>
