<svg width="196" height="186" viewBox="0 0 196 186" fill="none" xmlns="http://www.w3.org/2000/svg">
<path d="M181.773 177.296C201.735 164.556 203.04 102.796 164.432 88.3398C125.825 73.8836 132.977 37.4047 100.497 10.1364C70.8918 -14.7193 21.9115 6.3507 5.59891 70.9909C-6.03367 117.083 7.53892 174.903 16.8015 177.296H181.773Z" fill="#F8F8FD"/>
<path d="M152.427 176.06C152.427 176.06 172.248 166.337 175.655 161.265C179.063 156.193 174.053 155.907 174.053 155.907C174.053 155.907 182.898 147.349 181.653 143.747C180.408 140.145 175.765 143.585 175.765 143.585C175.765 143.585 181.515 130.853 178.833 129.587C173.833 127.229 166.832 140.78 166.832 140.78C166.832 140.78 168.333 134.892 164.897 135.084C159.71 135.372 159.925 148.689 159.925 148.689C159.925 148.689 159.34 143.583 156.212 145.242C150.595 148.217 152.427 176.06 152.427 176.06Z" fill="#948BE4"/>
<path d="M155.717 143.2C159.11 142.185 159.897 145.936 159.897 145.936C159.897 145.936 159.7 135.385 164.897 135.096C168.338 134.905 166.832 140.792 166.832 140.792C166.832 140.792 173.833 127.241 178.833 129.599L152.405 175.863C152.207 172.62 150.837 144.662 155.717 143.2Z" fill="#BAB4EE"/>
<path d="M152.927 176.179C152.927 176.179 169.137 178.169 173.332 176.398C177.528 174.627 174.522 172.419 174.522 172.419C174.522 172.419 183.523 170.656 184.23 167.905C184.938 165.154 180.623 165.418 180.623 165.418C180.623 165.418 189.41 159.799 188.253 157.926C186.103 154.444 176.197 160.055 176.197 160.055C176.197 160.055 179.54 156.994 177.318 155.723C173.965 153.805 168.657 162.189 168.657 162.189C168.657 162.189 168.987 160.123 166.36 159.894C161.65 159.486 152.927 176.179 152.927 176.179Z" fill="#948BE4"/>
<path d="M166.132 159.347C168.76 159.576 168.66 162.193 168.66 162.193C168.66 162.193 173.968 153.8 177.32 155.726C179.543 156.997 176.2 160.059 176.2 160.059C176.2 160.059 186.105 154.44 188.255 157.929L152.88 176.087C154.082 174 161.73 158.964 166.132 159.347Z" fill="#4838D1"/>
<path d="M194.928 177.1C194.928 176.723 194.728 176.42 194.483 176.42H0.551395C0.395448 176.453 0.255553 176.539 0.155168 176.663C0.0547818 176.786 0 176.941 0 177.1C0 177.26 0.0547818 177.414 0.155168 177.538C0.255553 177.662 0.395448 177.747 0.551395 177.78H194.475C194.725 177.78 194.92 177.475 194.92 177.1H194.928Z" fill="#291F85"/>
<path d="M47.9467 176.101C47.9467 176.101 22.1115 163.416 17.669 156.818C13.2264 150.219 19.7565 149.833 19.7565 149.833C19.7565 149.833 8.22641 138.678 9.84892 133.982C11.4714 129.286 17.524 133.773 17.524 133.773C17.524 133.773 10.0239 117.176 13.5239 115.524C20.024 112.45 29.1665 130.114 29.1665 130.114C29.1665 130.114 27.204 122.441 31.6866 122.69C38.4491 123.066 38.1691 140.424 38.1691 140.424C38.1691 140.424 38.9341 133.768 43.0091 135.932C50.3217 139.81 47.9467 176.101 47.9467 176.101Z" fill="#948BE4"/>
<path d="M44.3941 134.111C40.8291 132.017 38.1091 136.949 38.1091 136.949C38.1091 136.949 38.4516 123.065 31.689 122.69C27.2065 122.441 29.169 130.114 29.169 130.114C29.169 130.114 20.0365 112.454 13.5264 115.524L47.9766 175.821C48.2191 171.61 49.1291 136.897 44.3941 134.111Z" fill="#BAB4EE"/>
<path d="M47.2792 176.258C47.2792 176.258 26.1491 178.869 20.679 176.541C15.209 174.213 19.1265 171.34 19.1265 171.34C19.1265 171.34 7.37645 169.045 6.47394 165.458C5.57144 161.872 11.1765 162.225 11.1765 162.225C11.1765 162.225 -0.276092 154.9 1.22892 152.458C4.03393 147.908 16.9465 155.236 16.9465 155.236C16.9465 155.236 12.5865 151.241 15.4865 149.585C19.8565 147.085 26.7716 158.026 26.7716 158.026C26.7716 158.026 26.3416 155.33 29.7716 155.042C35.9116 154.497 47.2792 176.258 47.2792 176.258Z" fill="#948BE4"/>
<path d="M29.7516 153.219C26.3265 153.518 26.7715 158.034 26.7715 158.034C26.7715 158.034 20.649 146.364 15.4665 149.426C12.5914 151.125 16.579 155.089 16.579 155.089C16.579 155.089 4.0339 147.916 1.22888 152.465L47.3417 176.147C45.7742 173.418 35.4916 152.722 29.7516 153.219Z" fill="#4838D1"/>
<path d="M155.712 156.453H43.9617C39.6917 156.453 36.2316 153.453 36.2316 149.756V145.776C36.2316 142.08 39.6917 139.083 43.9617 139.083H155.712C150.602 143.923 150.512 151.321 155.507 156.246L155.712 156.453Z" fill="#4838D1"/>
<path d="M154.147 141.081H97.927C94.0545 141.081 90.9269 144.065 90.9269 147.776C90.9269 151.472 94.0645 154.47 97.927 154.47H154.177C152.889 152.473 152.202 150.152 152.197 147.779C152.191 145.407 152.868 143.083 154.147 141.081Z" fill="white"/>
<path d="M172.427 155.547H31.6466C27.2765 155.547 23.7315 158.865 23.7315 162.957V169.19C23.7315 173.284 27.2765 176.599 31.6466 176.599H172.427L172.352 176.53C166.322 170.66 166.355 161.377 172.427 155.547Z" fill="#F77A55"/>
<path d="M169.927 158.663H94.677C90.307 158.663 86.762 161.981 86.762 166.073C86.762 170.167 90.307 173.483 94.677 173.483H169.927C168.571 171.247 167.854 168.685 167.854 166.073C167.854 163.461 168.571 160.899 169.927 158.663Z" fill="white"/>
<path d="M126.535 166.113H120.785C120.191 166.113 119.62 166.348 119.199 166.767C118.777 167.185 118.539 167.754 118.535 168.348V168.548H126.515L126.535 166.113Z" fill="#4838D1"/>
<path d="M121.027 166.12C122.4 166.12 124.45 167.274 125.605 168.702L139.227 185.509H147.227L134.272 169.525C132.75 167.645 130.047 166.12 128.237 166.12H121.027Z" fill="#948BE4"/>
<path d="M30.6166 51.0821C30.5986 51.1398 30.5646 51.1912 30.5184 51.2305C30.4723 51.2698 30.4159 51.2953 30.3558 51.3042C30.2958 51.313 30.2344 51.3048 30.1788 51.2805C30.1232 51.2561 30.0757 51.2167 30.0416 51.1666L28.6966 49.2317H26.3316C26.2707 49.2329 26.2108 49.2166 26.1589 49.1849C26.1071 49.1531 26.0655 49.1072 26.0391 49.0526C26.0122 48.9988 26.0009 48.9386 26.0067 48.8788C26.0124 48.819 26.0349 48.762 26.0716 48.7143L27.5066 46.8415L26.7716 44.6031C26.7525 44.5456 26.7499 44.484 26.764 44.4251C26.7781 44.3663 26.8085 44.3125 26.8516 44.2698C26.8953 44.2282 26.9497 44.1993 27.0087 44.1862C27.0677 44.173 27.1292 44.1762 27.1866 44.1952L29.4191 44.9762L31.3291 43.5883C31.3782 43.5528 31.4363 43.5316 31.4968 43.5272C31.5573 43.5228 31.6179 43.5354 31.6716 43.5635C31.7253 43.5912 31.77 43.6334 31.8006 43.6854C31.8311 43.7373 31.8462 43.7968 31.8441 43.8569L31.7891 46.2098L33.7067 47.5876C33.7559 47.623 33.7942 47.6714 33.8172 47.7272C33.8402 47.7831 33.847 47.8443 33.8369 47.9039C33.8267 47.9634 33.8 48.0189 33.7598 48.0642C33.7195 48.1094 33.6673 48.1425 33.6091 48.1597L31.3441 48.8337L30.6166 51.0821Z" fill="#F77A55"/>
<path d="M115.465 22.9864C115.622 22.5809 115.567 21.1307 117.595 19.7352C118.427 19.1681 119.11 18.6855 119.292 18.0238C119.612 16.8821 118.405 16.3323 117.2 16.3398C116.9 16.3392 116.612 16.2226 116.398 16.0145C116.183 15.8065 116.058 15.5234 116.05 15.2254C116.041 14.9234 116.151 14.6299 116.357 14.4081C116.564 14.1862 116.849 14.0537 117.152 14.0388C117.946 14.0052 118.741 14.0958 119.507 14.3075C122.09 15.0214 122.87 16.7676 122.417 18.3845C122.005 19.8621 120.812 20.5835 119.842 21.1954C118.205 22.2302 118.207 23.3819 118.067 23.7028L115.465 22.9864ZM114.215 25.5311C114.266 25.2947 114.367 25.0716 114.51 24.876C114.653 24.6805 114.836 24.5167 115.046 24.3953C115.256 24.2738 115.49 24.1973 115.731 24.1706C115.973 24.1438 116.218 24.1675 116.45 24.2401C117.507 24.5336 117.985 25.4615 117.717 26.4988C117.66 26.7351 117.556 26.9577 117.411 27.1531C117.266 27.3486 117.083 27.5129 116.872 27.6363C116.662 27.7597 116.429 27.8396 116.186 27.8713C115.944 27.903 115.698 27.8858 115.463 27.8207C115.228 27.7556 115.008 27.6441 114.817 27.4926C114.626 27.3412 114.467 27.153 114.351 26.9393C114.235 26.7255 114.163 26.4907 114.14 26.2488C114.117 26.0068 114.143 25.7628 114.217 25.5311H114.215Z" fill="#948BE4"/>
<path d="M180.742 49.2322L181.702 50.8217C181.727 50.8584 181.762 50.8878 181.802 50.9068C181.842 50.9259 181.887 50.9339 181.931 50.9301C181.975 50.9263 182.018 50.9108 182.054 50.8852C182.09 50.8596 182.119 50.8248 182.137 50.7844L182.82 49.0606L184.635 48.6427C184.678 48.6308 184.718 48.6075 184.749 48.5753C184.78 48.543 184.802 48.503 184.812 48.4595C184.822 48.416 184.82 48.3705 184.807 48.3279C184.793 48.2853 184.768 48.2471 184.735 48.2173L183.297 47.0407L183.457 45.1925C183.459 45.1485 183.448 45.1049 183.427 45.0662C183.406 45.0276 183.375 44.9952 183.337 44.9725C183.299 44.9497 183.256 44.9374 183.211 44.9367C183.167 44.936 183.124 44.947 183.085 44.9686L181.515 45.9636L179.797 45.2397C179.755 45.2245 179.71 45.2208 179.666 45.2289C179.622 45.237 179.581 45.2567 179.548 45.2859C179.514 45.3151 179.489 45.3528 179.475 45.395C179.461 45.4372 179.458 45.4824 179.467 45.5258L179.935 47.3193L178.712 48.7198C178.685 48.7547 178.667 48.7963 178.662 48.8403C178.656 48.8842 178.662 48.9289 178.679 48.9697C178.696 49.0106 178.724 49.0461 178.76 49.0726C178.796 49.099 178.838 49.1155 178.882 49.1203L180.742 49.2322Z" fill="#F77A55"/>
<path d="M137.012 25.5873L134.91 24.1L135.492 21.5405L136.177 21.6947L135.697 23.8015L137.87 25.3386L136.75 28.0871L139.202 29.4028L138.087 31.8304L137.25 31.9772L138.292 29.7063L135.865 28.4029L137.012 25.5873Z" fill="#F77A55"/>
<path d="M40.1866 36.2659L41.4891 37.4044L43.1091 36.7009L44.4766 38.0805L45.9666 36.8003L47.5842 38.2918L49.1042 37.2801L50.8942 38.4633L50.4442 39.1395L49.1042 38.2545L47.5017 39.3209L45.9467 37.8866L44.4316 39.1867L42.9216 37.6654L41.3391 38.3539L40.1341 37.2975L39.1916 37.9662L38.7191 37.3074L40.1866 36.2659Z" fill="#948BE4"/>
<path d="M187.1 60.442C187.741 61.0557 188.184 61.8445 188.374 62.7087C188.565 63.5729 188.493 64.4738 188.169 65.2977C187.845 66.1217 187.283 66.8316 186.554 67.3379C185.825 67.8443 184.961 68.1243 184.072 68.1427C183.183 68.1611 182.308 67.917 181.559 67.4412C180.809 66.9655 180.218 66.2794 179.86 65.4696C179.501 64.6598 179.393 63.7626 179.547 62.8912C179.701 62.0199 180.111 61.2135 180.725 60.5739C181.134 60.1477 181.624 59.8062 182.166 59.5688C182.709 59.3315 183.293 59.203 183.885 59.1908C184.477 59.1785 185.066 59.2827 185.618 59.4975C186.17 59.7122 186.673 60.0332 187.1 60.442Z" fill="#E0DEF7"/>
<path d="M187 64.1954L185.083 64.7824L184.48 66.6878C184.469 66.7221 184.448 66.7526 184.421 66.776C184.393 66.7994 184.36 66.8146 184.324 66.8201C184.288 66.8255 184.251 66.8209 184.218 66.8067C184.185 66.7926 184.156 66.7695 184.135 66.74L182.98 65.1058L180.98 65.1257C180.943 65.1265 180.907 65.117 180.876 65.0984C180.844 65.0797 180.819 65.0526 180.802 65.0201C180.785 64.9877 180.778 64.9512 180.781 64.9149C180.785 64.8786 180.798 64.8438 180.82 64.8147L182.028 63.2178L181.388 61.3249C181.376 61.2903 181.374 61.2531 181.383 61.2175C181.391 61.1819 181.409 61.1494 181.435 61.1236C181.461 61.0977 181.494 61.0796 181.53 61.0712C181.565 61.0629 181.603 61.0646 181.638 61.0762L183.535 61.7229L185.148 60.5339C185.177 60.5129 185.212 60.5004 185.248 60.4977C185.284 60.4951 185.32 60.5023 185.353 60.5188C185.385 60.5352 185.412 60.5602 185.431 60.591C185.45 60.6217 185.46 60.657 185.46 60.6931L185.428 62.683L187.063 63.8422C187.095 63.8628 187.121 63.8925 187.136 63.9277C187.152 63.9628 187.157 64.0018 187.15 64.0396C187.143 64.0774 187.126 64.1124 187.099 64.1401C187.072 64.1679 187.038 64.1871 187 64.1954Z" fill="#948BE4"/>
<path d="M54.5417 22.5532C52.0167 23.9785 52.5142 27.7767 55.3317 28.5354C55.8369 28.6749 56.275 28.99 56.5667 29.4234L57.5667 30.9158C57.7004 31.1115 57.9029 31.2502 58.1343 31.3046C58.3658 31.3589 58.6093 31.3249 58.8167 31.2093L59.7743 30.6696C59.9826 30.5523 60.1389 30.3612 60.2121 30.1345C60.2853 29.9077 60.27 29.6618 60.1692 29.4458C59.4042 27.8116 59.0043 27.2618 59.2768 26.3092C60.0918 23.5109 57.0717 21.128 54.5417 22.5532Z" fill="#BAB4EE"/>
<path d="M57.4567 29.5994C56.7467 28.2189 55.9367 26.7838 55.7067 26.3808C54.2067 27.03 54.1842 25.1994 55.1392 25.5948C55.4039 25.7232 55.6228 25.9288 55.7667 26.1843C56.2625 25.9507 56.7075 25.6228 57.0767 25.2193C56.92 24.9544 56.826 24.6576 56.8017 24.3512C56.8267 23.9507 57.2292 23.697 57.5317 23.9681C57.5891 24.0205 57.6352 24.0839 57.6674 24.1544C57.6997 24.2249 57.7173 24.3011 57.7192 24.3786C57.7192 24.6994 57.4693 25.0029 57.2618 25.2491C57.7618 26.3684 58.3068 27.4877 58.8693 28.5721L58.7318 28.6442C58.1767 27.5722 57.6468 26.4753 57.1467 25.3735C56.7765 25.7647 56.3366 26.0844 55.8492 26.3161C56.1592 26.831 56.9417 28.2338 57.5993 29.5297L57.4567 29.5994ZM54.8367 26.3087C54.9621 26.3554 55.0962 26.3743 55.2296 26.364C55.3631 26.3536 55.4926 26.3144 55.6092 26.249C55.4828 26.0327 55.2938 25.8593 55.0667 25.7515C54.5517 25.5177 54.5142 26.1396 54.8367 26.3012V26.3087ZM56.9468 24.3611C56.967 24.6194 57.0466 24.8695 57.1793 25.0924C57.3785 24.9017 57.5087 24.6507 57.5492 24.3786C57.5492 24.197 57.3992 23.9955 57.2192 24.0129C57.2017 24.0079 56.9543 24.197 56.9468 24.3537V24.3611Z" fill="white"/>
<path d="M56.5392 29.3881C56.5476 29.4003 56.5568 29.4119 56.5667 29.4229L57.5667 30.9151C57.7004 31.1108 57.9029 31.2495 58.1343 31.3038C58.3658 31.3582 58.6093 31.3242 58.8167 31.2086L59.7743 30.6689C59.9826 30.5516 60.1389 30.3606 60.2121 30.1339C60.2853 29.9071 60.27 29.6613 60.1692 29.4453C59.8292 28.719 59.5617 28.2017 59.3917 27.7789L56.5392 29.3881Z" fill="#948BE4"/>
<path d="M52.0992 22.0718L50.7542 20.8968C50.7232 20.8697 50.6978 20.8368 50.6795 20.7999C50.6612 20.763 50.6504 20.7228 50.6476 20.6818C50.6448 20.6407 50.6501 20.5994 50.6633 20.5604C50.6764 20.5214 50.6971 20.4853 50.7242 20.4543C50.7513 20.4233 50.7842 20.3979 50.8211 20.3796C50.858 20.3613 50.8982 20.3504 50.9393 20.3476C50.9803 20.3449 51.0216 20.3502 51.0606 20.3633C51.0996 20.3765 51.1357 20.3972 51.1667 20.4243L52.5092 21.5968C52.5719 21.6512 52.6104 21.7282 52.6162 21.811C52.6221 21.8937 52.5948 21.9754 52.5405 22.0381C52.4861 22.1007 52.4091 22.1392 52.3263 22.1451C52.2436 22.1509 52.1619 22.1237 52.0992 22.0693V22.0718Z" fill="#BAB4EE"/>
<path d="M51.6467 26.2427L49.8367 26.7427C49.7959 26.7532 49.7533 26.7555 49.7115 26.7496C49.6698 26.7437 49.6295 26.7296 49.5932 26.7081C49.5198 26.6647 49.4667 26.594 49.4455 26.5114C49.4243 26.4289 49.4367 26.3413 49.4801 26.2679C49.5234 26.1945 49.5942 26.1414 49.6767 26.1202L51.4867 25.6202C51.5265 25.6093 51.5679 25.6064 51.6088 25.6116C51.6496 25.6168 51.6891 25.63 51.7248 25.6504C51.7606 25.6709 51.7919 25.6981 51.8171 25.7307C51.8424 25.7633 51.8609 25.8005 51.8718 25.8402C51.8826 25.8799 51.8855 25.9214 51.8803 25.9622C51.8751 26.0031 51.8619 26.0425 51.8415 26.0783C51.821 26.114 51.7938 26.1454 51.7612 26.1706C51.7287 26.1958 51.6915 26.2143 51.6517 26.2252L51.6467 26.2427Z" fill="#BAB4EE"/>
<path d="M51.8842 32.2321C51.8469 32.2149 51.8134 32.1905 51.7857 32.1603C51.7579 32.13 51.7364 32.0946 51.7224 32.056C51.7085 32.0174 51.7023 31.9764 51.7044 31.9353C51.7064 31.8943 51.7165 31.8542 51.7342 31.8171C52.0092 31.2314 52.339 30.6731 52.7192 30.1496C52.7715 30.0939 52.8424 30.0592 52.9185 30.0522C52.9946 30.0452 53.0706 30.0663 53.1322 30.1116C53.1937 30.1569 53.2366 30.2231 53.2526 30.2978C53.2687 30.3726 53.2568 30.4506 53.2192 30.5171C52.8628 31.0088 52.5531 31.5328 52.2942 32.0821C52.2594 32.1561 52.1969 32.2134 52.1201 32.2415C52.0433 32.2696 51.9585 32.2662 51.8842 32.2321Z" fill="#BAB4EE"/>
<path d="M56.4018 20.3965C56.3609 20.4003 56.3197 20.396 56.2804 20.3839C56.2412 20.3718 56.2048 20.3521 56.1732 20.326C56.1416 20.2999 56.1155 20.2679 56.0964 20.2318C56.0773 20.1956 56.0655 20.1561 56.0617 20.1154C55.9866 19.302 55.8274 18.4984 55.5867 17.7174C55.5708 17.6776 55.5633 17.6349 55.5647 17.592C55.5661 17.5492 55.5764 17.5071 55.5949 17.4684C55.6135 17.4297 55.6399 17.3952 55.6724 17.3671C55.705 17.3391 55.7431 17.318 55.7842 17.3053C55.8254 17.2926 55.8687 17.2884 55.9115 17.2932C55.9544 17.2979 55.9958 17.3114 56.0331 17.3328C56.0704 17.3542 56.1029 17.3831 56.1285 17.4176C56.1541 17.4521 56.1722 17.4915 56.1817 17.5333C56.4355 18.3555 56.603 19.2017 56.6818 20.0582C56.6894 20.1399 56.6643 20.2214 56.6118 20.2848C56.5594 20.3482 56.4839 20.3883 56.4018 20.3965Z" fill="#BAB4EE"/>
<path d="M59.0342 21.9898C58.9852 21.9233 58.9642 21.8401 58.9759 21.7583C58.9876 21.6764 59.031 21.6024 59.0967 21.5523L60.7167 20.3323C60.783 20.2822 60.8665 20.2606 60.9488 20.2721C61.0311 20.2835 61.1054 20.3272 61.1555 20.3935C61.2056 20.4598 61.2272 20.5433 61.2157 20.6256C61.2042 20.7079 61.1605 20.7822 61.0942 20.8323L59.4717 22.0523C59.4052 22.1014 59.322 22.1223 59.2402 22.1107C59.1583 22.099 59.0844 22.0556 59.0342 21.9898Z" fill="#BAB4EE"/>
<path d="M63.8118 25.7151C63.7852 25.7245 63.7575 25.7304 63.7293 25.7326C63.0308 25.7877 62.3285 25.7675 61.6343 25.6726C61.5936 25.667 61.5544 25.6535 61.5189 25.6327C61.4834 25.612 61.4524 25.5845 61.4275 25.5517C61.4027 25.519 61.3845 25.4817 61.3741 25.442C61.3637 25.4022 61.3612 25.3608 61.3668 25.3201C61.3724 25.2794 61.3859 25.2402 61.4067 25.2047C61.4274 25.1692 61.4549 25.1382 61.4876 25.1133C61.5204 25.0885 61.5577 25.0703 61.5974 25.0599C61.6372 25.0495 61.6786 25.047 61.7193 25.0526C62.3675 25.1445 63.0237 25.1679 63.6768 25.1226C63.7522 25.1165 63.8272 25.1379 63.888 25.1829C63.9488 25.2279 63.9912 25.2934 64.0073 25.3672C64.0235 25.4411 64.0124 25.5183 63.9759 25.5846C63.9395 25.6508 63.8803 25.7016 63.8093 25.7276L63.8118 25.7151Z" fill="#BAB4EE"/>
<path d="M159.025 24.9208L158.225 26.3933C156.288 29.9271 153.734 33.0892 150.682 35.731L150.342 36.0245C150.342 36.0245 150.997 39.0093 154.002 38.4746C156.324 34.9412 159.078 31.7092 162.202 28.8533L163.377 27.9007L159.025 24.9208Z" fill="#BAB4EE"/>
<path d="M163.382 27.8982C163.202 28.1121 162.087 27.6172 160.882 26.7915C159.677 25.9659 158.845 25.1253 159.025 24.9139C159.205 24.7025 160.327 25.1974 161.525 26.0206C162.722 26.8438 163.56 27.6843 163.382 27.8982Z" fill="#BAB4EE"/>
<path d="M163.375 27.9191C163.375 27.9191 160.625 26.3759 160.125 25.5331L159.795 25.9508C160.146 26.2562 160.515 26.541 160.9 26.8036C162.075 27.6215 163.177 28.1217 163.375 27.9191Z" fill="#948BE4"/>
<path d="M158.377 32.7544C158.025 32.8719 156.46 33.2544 155.08 31.1394C154.9 31.3644 154.72 31.5869 154.535 31.8094C155.482 33.1169 156.52 33.5094 157.242 33.6019C157.357 33.6169 157.507 33.6294 157.622 33.6344C157.87 33.3419 158.122 33.0444 158.377 32.7544Z" fill="#F77A55"/>
<path d="M155.597 31.1992L154.632 27.7739L154.142 28.8162L153.027 28.647L154.967 31.5574L155.597 31.1992Z" fill="#F77A55"/>
<path d="M154.83 31.7884L152.127 31.3284L152.757 32.0609L152.13 32.6259L154.742 32.4084L154.83 31.7884Z" fill="#F77A55"/>
<path d="M154.352 32.4561C154.301 32.3066 154.279 32.1484 154.289 31.9905C154.299 31.8327 154.34 31.6784 154.41 31.5364C154.48 31.3945 154.577 31.2677 154.695 31.1634C154.814 31.0591 154.953 30.9793 155.102 30.9286C155.765 30.6661 156.495 30.9286 156.732 31.5086C156.97 32.0886 156.63 32.7736 155.982 33.0361C155.335 33.2986 154.59 33.0361 154.352 32.4561Z" fill="#F77A55"/>
<path d="M165.46 45.2696L166.777 44.8418L167.705 46.8741L169.707 46.4861L170.65 47.894L171.367 47.4189L170.105 45.5358L168.207 45.904L167.245 43.7896L165.262 44.4313L165.46 45.2696Z" fill="#BAB4EE"/>
<path d="M169.565 121.197L170.882 120.769L171.81 122.802L173.812 122.414L174.755 123.822L175.472 123.346L174.21 121.463L172.312 121.831L171.347 119.717L169.367 120.359L169.565 121.197Z" fill="#F77A55"/>
<path d="M92.4944 19.2476C92.3005 20.2004 91.827 21.0745 91.1338 21.7595C90.4406 22.4445 89.5588 22.9096 88.6 23.096C87.6411 23.2824 86.6482 23.1818 85.7469 22.8068C84.8455 22.4317 84.0762 21.7992 83.5361 20.9892C82.996 20.1791 82.7095 19.2279 82.7127 18.2558C82.7159 17.2838 83.0087 16.3345 83.5542 15.528C84.0996 14.7215 84.8731 14.094 85.7769 13.7249C86.6808 13.3558 87.6743 13.2617 88.6319 13.4543C89.2679 13.5823 89.8723 13.8337 90.4106 14.1941C90.9489 14.5545 91.4106 15.0169 91.7693 15.5549C92.128 16.0929 92.3766 16.6959 92.501 17.3295C92.6255 17.9631 92.6232 18.6149 92.4944 19.2476Z" fill="#BAB4EE"/>
<path d="M84.9069 18.5132C84.8382 18.852 84.837 19.2009 84.9036 19.5401C84.9701 19.8794 85.1031 20.2022 85.2948 20.4902C85.4866 20.7782 85.7334 21.0258 86.0211 21.2187C86.3089 21.4117 86.632 21.5463 86.972 21.6148C87.3119 21.6834 87.6621 21.6845 88.0025 21.6182C88.3429 21.5519 88.6669 21.4194 88.9559 21.2283C89.2449 21.0372 89.4933 20.7913 89.687 20.5045C89.8806 20.2178 90.0157 19.8958 90.0845 19.557L84.9069 18.5132Z" fill="white"/>
<path d="M18.889 74.9358C18.4865 74.4035 18.0415 74.1349 17.569 74.1349C14.879 74.1349 14.274 82.0197 14.274 84.7807C14.274 87.9321 14.624 90.6408 15.289 92.6158C15.9015 94.4365 16.7165 95.4364 17.589 95.4364C18.514 95.4364 19.359 94.2873 19.9665 92.2029C21.524 86.8601 20.949 77.6644 18.889 74.9358ZM19.4315 92.1332C18.9115 93.8619 18.2165 94.8942 17.569 94.8942C16.9215 94.8942 16.2265 93.8619 15.7065 92.1332C15.129 90.2056 14.809 87.5938 14.809 84.7807C14.809 81.9675 15.129 79.3558 15.7065 77.4281C16.2265 75.687 16.9215 74.6672 17.569 74.6672C18.2165 74.6672 18.9115 75.6994 19.4315 77.4281C20.0115 79.3558 20.329 81.9675 20.329 84.7807C20.329 87.5938 20.0115 90.2056 19.4265 92.1332H19.4315Z" fill="#F77A55"/>
<path d="M26.7116 87.7257C24.5615 84.1737 14.6165 78.8879 10.0865 78.8879C9.04395 78.8879 8.36144 79.174 8.06394 79.7361C7.76644 80.2983 7.87893 80.9152 8.34144 81.6813C10.4989 85.2433 20.429 90.5439 24.9415 90.5439C25.9966 90.5439 26.6916 90.2529 26.9891 89.6833C27.2691 89.151 27.1766 88.4943 26.7116 87.7257ZM26.5741 89.3425C26.4116 89.743 25.8515 89.9544 24.9565 89.9544C21.8215 89.9544 14.6865 87.2979 10.189 82.9722C8.47394 81.3231 8.31145 80.4848 8.47895 80.0794C8.64645 79.6739 9.19894 79.47 10.0914 79.47C11.7615 79.47 14.369 80.1888 17.069 81.3903C20.1165 82.7484 22.884 84.5418 24.8615 86.4447C26.5791 88.0963 26.7416 88.9321 26.5741 89.3425Z" fill="#F77A55"/>
<path d="M26.8041 79.6197C26.4941 79.0477 25.8041 78.7592 24.7866 78.7592C22.7316 78.7592 19.2391 79.9778 15.669 81.9427C12.099 83.9076 9.26401 86.1709 8.2615 87.8448C7.8015 88.6108 7.71149 89.2575 7.98899 89.7674C8.29149 90.3245 8.964 90.608 9.98901 90.608C14.4715 90.608 24.3691 85.2134 26.5391 81.5896C27.0016 80.8111 27.0916 80.147 26.8041 79.6197ZM21.7866 85.2382C18.6166 87.4394 14.9115 89.1456 11.874 89.8022C11.2513 89.9517 10.6144 90.035 9.97401 90.0509C9.1715 90.0509 8.6465 89.8693 8.459 89.5236C8.27149 89.1779 8.35899 88.7203 8.709 88.1407C9.624 86.6136 12.3415 84.41 15.6315 82.5571C19.1691 80.5524 22.6041 79.3561 24.8241 79.3561C25.8416 79.3561 26.3866 79.6222 26.4441 80.147C26.5541 81.1941 24.7266 83.1962 21.7866 85.2382Z" fill="#F77A55"/>
<path d="M19.2916 84.4594C19.2916 84.7964 19.1911 85.1258 19.0029 85.406C18.8148 85.6862 18.5473 85.9047 18.2344 86.0336C17.9215 86.1626 17.5771 86.1963 17.2449 86.1306C16.9127 86.0648 16.6076 85.9026 16.3681 85.6643C16.1286 85.426 15.9655 85.1223 15.8994 84.7918C15.8333 84.4612 15.8673 84.1186 15.9969 83.8073C16.1265 83.4959 16.346 83.2298 16.6276 83.0425C16.9092 82.8553 17.2403 82.7554 17.579 82.7554C18.033 82.756 18.4682 82.9358 18.7892 83.2552C19.1103 83.5746 19.2909 84.0077 19.2916 84.4594Z" fill="#F77A55"/>
<path d="M17.079 76.4786C17.0795 76.7329 17.0045 76.9816 16.8635 77.1932C16.7225 77.4048 16.5218 77.5698 16.2869 77.6674C16.052 77.7649 15.7934 77.7905 15.5439 77.7411C15.2944 77.6916 15.0652 77.5692 14.8853 77.3894C14.7055 77.2096 14.583 76.9805 14.5335 76.7311C14.484 76.4817 14.5097 76.2233 14.6073 75.9885C14.7048 75.7536 14.8699 75.5531 15.0816 75.4121C15.2933 75.2712 15.5421 75.1962 15.7965 75.1967C16.1364 75.1973 16.4622 75.3326 16.7026 75.5729C16.943 75.8132 17.0783 76.1388 17.079 76.4786Z" fill="#F77A55"/>
<path d="M21.0415 91.6357C21.042 91.8479 20.9795 92.0555 20.862 92.2322C20.7444 92.4089 20.5771 92.5468 20.3812 92.6283C20.1852 92.7099 19.9695 92.7315 19.7613 92.6904C19.5531 92.6493 19.3617 92.5473 19.2115 92.3974C19.0613 92.2475 18.9589 92.0564 18.9173 91.8483C18.8757 91.6402 18.8968 91.4245 18.9779 91.2283C19.059 91.0322 19.1964 90.8646 19.3729 90.7466C19.5493 90.6287 19.7568 90.5657 19.969 90.5657C20.253 90.5657 20.5254 90.6783 20.7265 90.8789C20.9275 91.0795 21.0408 91.3517 21.0415 91.6357Z" fill="#F77A55"/>
<path d="M9.55147 87.628C10.1618 87.628 10.6565 87.1332 10.6565 86.523C10.6565 85.9127 10.1618 85.418 9.55147 85.418C8.9412 85.418 8.44647 85.9127 8.44647 86.523C8.44647 87.1332 8.9412 87.628 9.55147 87.628Z" fill="#F77A55"/>
<path d="M27.0341 81.6089C27.0341 81.7888 26.9807 81.9648 26.8807 82.1144C26.7807 82.2641 26.6386 82.3807 26.4723 82.4496C26.306 82.5185 26.123 82.5365 25.9465 82.5014C25.77 82.4663 25.6078 82.3796 25.4806 82.2523C25.3533 82.1251 25.2667 81.9629 25.2315 81.7864C25.1964 81.6099 25.2144 81.4269 25.2833 81.2606C25.3522 81.0943 25.4688 80.9522 25.6185 80.8522C25.7681 80.7522 25.9441 80.6989 26.124 80.6989C26.2436 80.6989 26.3619 80.7224 26.4723 80.7681C26.5827 80.8139 26.683 80.8809 26.7675 80.9654C26.852 81.0499 26.919 81.1502 26.9648 81.2606C27.0105 81.371 27.0341 81.4894 27.0341 81.6089Z" fill="#F77A55"/>
<path d="M13.559 79.711C13.559 79.8911 13.5055 80.0671 13.4054 80.2168C13.3053 80.3665 13.163 80.4832 12.9966 80.552C12.8302 80.6208 12.6471 80.6387 12.4705 80.6033C12.2939 80.568 12.1318 80.4811 12.0046 80.3536C11.8774 80.2261 11.791 80.0637 11.7561 79.887C11.7213 79.7103 11.7397 79.5273 11.8089 79.361C11.8782 79.1948 11.9952 79.0529 12.1452 78.9532C12.2952 78.8535 12.4714 78.8005 12.6515 78.801C12.8924 78.8017 13.1232 78.8978 13.2933 79.0684C13.4634 79.239 13.559 79.4701 13.559 79.711Z" fill="#F77A55"/>
<path d="M191.963 99.6121L187.669 101.009L187.912 101.747L192.205 100.351L191.963 99.6121Z" fill="#948BE4"/>
<path d="M184.234 91.1104L181.981 95.2765L182.666 95.6429L184.919 91.4768L184.234 91.1104Z" fill="#948BE4"/>
<path d="M185.802 108.819L185.21 109.322L188.436 113.077L189.028 112.575L185.802 108.819Z" fill="#948BE4"/>
<path d="M185.765 109.146L177.955 111.245L172.057 106.37L172.552 105.776L178.143 110.395L185.135 108.514L187.133 101.356L181.973 95.8615L182.54 95.3317L187.998 101.144L185.765 109.146Z" fill="#948BE4"/>
<path d="M173.927 105.433C174.051 105.781 174.068 106.158 173.976 106.516C173.884 106.874 173.688 107.197 173.412 107.444C173.136 107.691 172.793 107.851 172.425 107.903C172.058 107.956 171.683 107.899 171.348 107.74C171.013 107.581 170.733 107.326 170.543 107.009C170.353 106.691 170.263 106.325 170.282 105.956C170.302 105.587 170.43 105.232 170.653 104.936C170.875 104.64 171.18 104.417 171.53 104.293C172 104.128 172.516 104.156 172.966 104.369C173.415 104.583 173.761 104.965 173.927 105.433Z" fill="#BAB4EE"/>
<path d="M179.845 110.462C179.969 110.81 179.985 111.187 179.894 111.545C179.802 111.903 179.606 112.226 179.33 112.473C179.054 112.719 178.71 112.879 178.343 112.932C177.975 112.985 177.6 112.928 177.265 112.769C176.93 112.61 176.65 112.355 176.461 112.038C176.271 111.721 176.18 111.354 176.2 110.985C176.219 110.617 176.348 110.262 176.57 109.966C176.792 109.67 177.098 109.446 177.447 109.323C177.917 109.158 178.434 109.185 178.883 109.399C179.333 109.613 179.679 109.995 179.845 110.462Z" fill="#BAB4EE"/>
<path d="M187.248 108.221C187.371 108.569 187.388 108.946 187.296 109.304C187.205 109.662 187.008 109.985 186.732 110.231C186.456 110.478 186.113 110.638 185.745 110.691C185.378 110.744 185.003 110.687 184.668 110.528C184.333 110.369 184.053 110.114 183.863 109.797C183.674 109.479 183.583 109.113 183.602 108.744C183.622 108.375 183.751 108.02 183.973 107.724C184.195 107.428 184.5 107.205 184.85 107.081C185.083 106.999 185.329 106.963 185.576 106.976C185.822 106.989 186.064 107.05 186.287 107.156C186.509 107.261 186.709 107.41 186.874 107.593C187.039 107.776 187.166 107.989 187.248 108.221Z" fill="#BAB4EE"/>
<path d="M191.04 112.698C191.164 113.047 191.181 113.424 191.089 113.781C190.997 114.139 190.801 114.462 190.525 114.709C190.249 114.956 189.905 115.116 189.538 115.169C189.17 115.221 188.795 115.165 188.46 115.006C188.125 114.846 187.845 114.592 187.656 114.274C187.466 113.957 187.375 113.591 187.395 113.222C187.414 112.853 187.543 112.498 187.765 112.202C187.987 111.906 188.293 111.683 188.643 111.559C189.112 111.394 189.629 111.422 190.078 111.635C190.528 111.849 190.874 112.231 191.04 112.698Z" fill="#BAB4EE"/>
<path d="M195.073 99.1075C195.197 99.4562 195.215 99.8339 195.124 100.193C195.033 100.551 194.837 100.875 194.561 101.123C194.284 101.371 193.94 101.532 193.572 101.585C193.204 101.639 192.828 101.582 192.493 101.423C192.157 101.264 191.876 101.009 191.686 100.691C191.496 100.373 191.404 100.006 191.424 99.6362C191.444 99.2666 191.573 98.9111 191.796 98.6147C192.018 98.3183 192.324 98.0942 192.675 97.971C193.145 97.806 193.661 97.833 194.11 98.046C194.56 98.2591 194.906 98.6409 195.073 99.1075Z" fill="#BAB4EE"/>
<path d="M187.078 89.9568C187.201 90.3052 187.218 90.6821 187.126 91.0401C187.035 91.398 186.838 91.7209 186.562 91.9678C186.286 92.2148 185.943 92.3747 185.575 92.4275C185.208 92.4803 184.833 92.4235 184.498 92.2643C184.163 92.1051 183.883 91.8507 183.693 91.5331C183.503 91.2156 183.413 90.8493 183.432 90.4804C183.452 90.1115 183.581 89.7566 183.803 89.4607C184.025 89.1647 184.33 88.9409 184.68 88.8175C185.15 88.6526 185.666 88.6799 186.116 88.8936C186.565 89.1072 186.911 89.4896 187.078 89.9568Z" fill="#BAB4EE"/>
<path d="M189.648 100.54C189.771 100.888 189.788 101.265 189.696 101.623C189.605 101.981 189.408 102.304 189.132 102.551C188.856 102.798 188.513 102.958 188.145 103.01C187.778 103.063 187.403 103.006 187.068 102.847C186.733 102.688 186.453 102.434 186.263 102.116C186.074 101.799 185.983 101.432 186.002 101.063C186.022 100.695 186.151 100.34 186.373 100.044C186.595 99.7479 186.9 99.5242 187.25 99.4008C187.483 99.3188 187.729 99.2833 187.976 99.2962C188.222 99.309 188.464 99.3701 188.686 99.4759C188.909 99.5817 189.108 99.7302 189.273 99.9128C189.438 100.095 189.565 100.308 189.648 100.54Z" fill="#BAB4EE"/>
<path d="M184.093 94.8364C184.216 95.1847 184.233 95.5617 184.141 95.9196C184.05 96.2775 183.853 96.6003 183.577 96.8472C183.301 97.0942 182.958 97.2541 182.59 97.3069C182.223 97.3597 181.848 97.3028 181.513 97.1437C181.178 96.9845 180.898 96.7301 180.708 96.4126C180.518 96.0951 180.428 95.7288 180.447 95.3599C180.467 94.991 180.596 94.6362 180.818 94.3403C181.04 94.0443 181.345 93.8205 181.695 93.6972C181.928 93.6148 182.174 93.579 182.421 93.5917C182.667 93.6045 182.909 93.6655 183.132 93.7714C183.354 93.8772 183.554 94.0258 183.719 94.2086C183.884 94.3913 184.011 94.6047 184.093 94.8364Z" fill="#BAB4EE"/>
<path d="M193.033 81.1098L190.513 80.5847L191.048 78.5472L191.8 78.7447L191.473 79.9898L193.193 80.3472L193.033 81.1098Z" fill="#F77A55"/>
<path d="M22.5966 103.498L22.0291 105.062L19.3965 104.433L18.2815 106.622L16.234 106.47L16.1565 107.502L18.8965 107.703L19.9515 105.629L22.6916 106.286L23.5441 103.931L22.5966 103.498Z" fill="#BAB4EE"/>
<path d="M20.1865 59.9817L21.564 60.1235L21.579 62.3546L23.569 62.8099L23.854 64.4789L24.704 64.3346L24.3215 62.1034L22.4365 61.6731L22.419 59.3499L20.3465 59.136L20.1865 59.9817Z" fill="#948BE4"/>
<path d="M75.1469 92.63L71.3819 104.663L59.5293 87.4092V87.3943C59.5293 87.3943 55.1793 85.193 54.0893 84.9891C53.1143 84.805 49.9892 84.5115 49.5017 85.0314C49.478 84.9958 49.4427 84.9695 49.4017 84.9568C48.9867 84.8523 48.2242 86.2451 48.1167 86.5834C48.0092 86.9217 48.8667 88.8841 48.9467 89.0309C49.0267 89.1776 48.7267 89.2597 48.3492 89.1155C47.9717 88.9712 46.7867 87.6231 46.7867 87.6231C46.7867 87.6231 46.6717 85.4243 45.9617 85.4368C45.2517 85.4492 45.8967 88.1977 45.8967 88.1977L46.5867 89.118L45.5642 88.5036C45.5642 88.5036 44.8642 87.0112 44.6767 87.1008C44.4892 87.1903 44.2417 87.929 44.6317 88.7051C44.9681 89.2958 45.3808 89.8402 45.8592 90.3243L47.4092 91.1177C47.4092 91.1177 45.6067 90.9635 45.0742 90.5631C44.5417 90.1626 44.3242 90.7248 44.7492 91.2023C45.1742 91.6799 47.5467 92.4957 49.0492 92.6574C50.5517 92.819 55.2343 92.6996 55.9068 92.5778C56.4543 92.4758 57.4743 92.329 57.9793 92.6027C58.6468 94.5378 64.4293 115.513 71.4244 117.973C71.4244 117.973 74.6544 117.55 78.3369 109.215C82.0194 100.88 83.9919 95.8685 83.9919 95.8685L75.1469 92.63ZM53.3968 88.3568C52.8768 88.5533 51.0043 88.6603 50.5118 88.4812C50.0193 88.3021 49.2767 86.4143 49.2767 86.4143C49.4026 86.0931 49.4939 85.7596 49.5492 85.4194C50.0967 86.0138 52.4218 85.7502 52.9443 86.086C53.5193 86.4541 53.9268 88.1628 53.4018 88.3568H53.3968Z" fill="#FBC6B6"/>
<path d="M117.242 95.2647C117.242 95.2647 119.387 100.207 123.357 108.41C127.327 116.613 130.57 116.927 130.57 116.927C137.475 114.24 142.527 93.0784 143.125 91.1209C143.625 90.8199 144.645 90.9418 145.195 91.0239C145.872 91.1234 150.557 91.0811 152.052 90.8672C153.547 90.6533 155.895 89.7579 156.302 89.2654C156.71 88.7729 156.47 88.2182 155.952 88.6386C155.435 89.0589 153.64 89.2729 153.64 89.2729L155.162 88.4272C155.624 87.9268 156.017 87.3682 156.332 86.7656C156.695 85.9772 156.42 85.236 156.23 85.1638C156.04 85.0917 155.392 86.5965 155.392 86.5965L154.392 87.2482L155.05 86.303C155.05 86.303 155.602 83.5346 154.89 83.5446C154.177 83.5545 154.14 85.7583 154.14 85.7583C154.14 85.7583 153.002 87.1586 152.64 87.3153C152.277 87.472 151.967 87.3999 152.04 87.2507C152.112 87.1014 152.902 85.1091 152.79 84.7634C152.677 84.4176 151.86 83.0646 151.45 83.1815C151.409 83.1954 151.374 83.2237 151.352 83.261C150.852 82.7636 147.735 83.159 146.767 83.3754C145.685 83.6242 141.415 85.9672 141.415 85.9672L130.165 103.627L125.985 91.7303L117.242 95.2647ZM147.927 84.455C148.427 84.1042 150.772 84.2883 151.3 83.6739C151.366 84.0105 151.468 84.3391 151.605 84.6539C151.605 84.6539 150.925 86.5691 150.442 86.7631C149.96 86.9572 148.082 86.9149 147.555 86.7383C147.027 86.5617 147.375 84.838 147.927 84.455Z" fill="#FBC6B6"/>
<path d="M98.427 126.087C94.421 124.127 90.2542 122.51 85.9719 121.254C76.3444 118.416 63.3793 116.529 56.0218 122.64C51.6917 126.229 96.4695 130.965 96.4695 130.965L98.427 126.087Z" fill="#948BE4"/>
<path d="M146.825 124.908C146.825 124.908 142.575 118.69 131.6 118.832C127.33 118.889 121.412 119.735 116.02 120.795C106.397 122.687 97.3245 125.871 97.3245 125.871L96.472 130.965L146.825 124.908Z" fill="#948BE4"/>
<path d="M84.4719 133.758L103.952 143.198L119.192 131.075L114.192 120.19L86.5744 121.914L84.4719 133.758Z" fill="#948BE4"/>
<path d="M88.7245 64.8301C86.5419 60.4076 86.427 52.0527 88.137 47.1477C89.5195 43.168 92.832 40.9145 97.097 40.4543C102.042 39.9171 105.197 40.8846 109.052 43.3894C113.052 45.9986 117.862 48.8267 122.477 49.9783C128.492 51.4707 134.702 52.585 140.207 55.428C143.842 57.3059 147.22 60.0942 148.672 63.9023C150.752 69.3545 148.372 75.63 144.532 80.0325C138.74 86.6737 129.567 90.2305 120.782 89.2555C113.945 88.4919 107.497 84.9972 103.01 79.831C100.987 77.5029 99.452 75.7693 97.037 73.8839C93.9495 71.4687 90.4795 68.4018 88.7245 64.8301Z" fill="#1C155B"/>
<path d="M114.677 70.6404C114.677 70.6404 107.07 69.8942 99.5745 69.6455C92.8845 69.4315 85.7244 70.6628 85.2544 71.1378C83.3819 73.0655 82.7069 89.631 83.7544 92.6879C84.8019 95.7448 89.6844 103.677 88.7819 108.855C87.8794 114.034 86.0094 121.247 86.0094 121.247C86.0094 121.247 92.3695 124.864 100.395 124.806C105.212 124.772 111.877 123.812 116.015 120.777C116.015 120.777 113.602 114.357 113.845 109.303C114.087 104.249 116.697 95.6229 118.08 92.5386C119.462 89.4544 117.23 71.1503 114.677 70.6404Z" fill="#F77A55"/>
<path d="M88.262 72.528L85.3969 71.0804C85.3969 71.0804 82.1469 72.0007 80.4594 74.4184C79.0744 76.4082 72.8594 94.4261 72.8594 94.4261C72.8594 94.4261 81.5269 97.7914 84.2844 97.6347L88.507 86.5787L88.262 72.528Z" fill="#F77A55"/>
<path d="M111.655 72.1329L114.732 70.6405C114.732 70.6405 116.69 71.0385 119.202 73.9387C120.787 75.7693 127.81 93.4764 127.81 93.4764C127.81 93.4764 119.265 97.1377 116.505 97.0755L111.9 86.1737L111.655 72.1329Z" fill="#F77A55"/>
<path d="M102.927 60.0914C102.927 60.0914 103.447 67.4861 103.927 69.8416C104.427 72.2767 105.067 83.467 99.9845 84.7977C94.902 86.1284 96.157 72.1523 96.0295 69.6849C95.902 67.2175 94.7395 58.7582 94.7395 58.7582L102.927 60.0914Z" fill="#FBC6B6"/>
<path d="M94.7445 58.7582C94.7445 58.7582 94.9795 60.4646 95.2445 62.5691C97.147 64.0019 99.7445 64.3576 102.745 62.6039C102.872 62.5268 102.995 62.4472 103.117 62.3551C103.01 61.0293 102.942 60.0791 102.942 60.0791L94.7445 58.7582Z" fill="#F77A55"/>
<path d="M100.552 42.7823C102.535 43.4033 104.23 44.7078 105.332 46.4611C107.11 49.3613 108.117 57.7635 101.832 61.4622C95.5469 65.1609 90.9369 59.4873 91.0344 54.1022C91.1319 48.7171 92.5269 41.5809 100.552 42.7823Z" fill="#FBC6B6"/>
<path d="M89.6769 52.3803C90.1594 53.696 91.1769 54.5367 91.947 54.2581C92.717 53.9795 92.947 52.6837 92.4695 51.368C91.9919 50.0523 90.9694 49.2116 90.1994 49.4902C89.4294 49.7688 89.1944 51.0646 89.6769 52.3803Z" fill="#FBC6B6"/>
<path d="M99.647 42.5886C99.647 42.5886 103.224 51.3286 106.592 52.2091C109.96 53.0895 109.765 57.4321 109.765 57.4321C109.765 57.4321 110.015 47.4187 106.917 45.0186C103.819 42.6185 99.647 42.5886 99.647 42.5886Z" fill="#1C155B"/>
<path d="M105.177 53.9584C104.677 55.3409 105.047 56.7334 105.987 57.0641C106.927 57.3948 108.09 56.5419 108.582 55.1569C109.075 53.7719 108.712 52.3819 107.772 52.0512C106.832 51.7205 105.677 52.5734 105.177 53.9584Z" fill="#FBC6B6"/>
<path d="M68.1193 137.932C68.1193 137.932 65.8693 136.089 63.2043 135.385C60.5393 134.681 60.5893 136.629 59.9042 139.614C59.2192 142.598 58.0642 144.588 56.6042 147.489C55.1442 150.389 56.9317 157.021 57.7517 157.108C59.7292 157.314 60.6468 153.1 62.5193 149.504C64.3918 145.907 69.6118 144.7 71.1318 144.541C76.4865 143.802 81.8887 143.457 87.2944 143.509C85.3869 139.895 82.6269 136.947 79.7944 133.808C72.8843 136.196 68.1193 137.932 68.1193 137.932Z" fill="#FBC6B6"/>
<path d="M148.285 128.231C147.355 123.563 143.422 121.657 138.882 121.764C128.417 122.033 98.9145 128.741 81.3519 134.223C82.4019 137.984 81.6019 140.441 82.8519 144.309C101.454 143.314 136.352 140.441 146.455 134.656C148.025 133.763 148.735 130.487 148.285 128.231Z" fill="#BAB4EE"/>
<path d="M136.075 148.687C134.752 145.702 133.425 143.752 132.882 140.727C132.24 137.143 132.54 135.141 128.132 136.84C125.603 137.827 122.791 137.813 120.272 136.8C118.62 136.128 116.577 135.308 114.257 134.372C112.742 137.491 111.832 140.867 111.575 144.321C117.075 144.886 121.075 145.436 121.275 145.458C122.157 145.548 128.112 146.799 129.812 150.477C131.512 154.156 132.277 158.735 134.217 158.292C135.335 158.041 137.397 151.661 136.075 148.687Z" fill="#FBC6B6"/>
<path d="M66.5443 120.138C62.4268 120.023 55.3118 120.794 54.2468 125.421C53.7318 127.66 53.9242 130.808 54.8417 132.92C55.9868 135.559 58.6218 136.994 61.2393 138.111C66.2393 140.213 97.117 143.476 113.032 145.106C114.91 141.723 116.462 137.962 116.347 134.671C100.982 128.523 74.4269 120.347 66.5443 120.138Z" fill="#BAB4EE"/>
</svg>
