<svg width="288" height="278" viewBox="0 0 288 278" fill="none" xmlns="http://www.w3.org/2000/svg">
<path d="M43.0744 168.98C43.0744 168.98 21.4271 175 16 183.5C11.5 190 12.4992 199 12.4992 199" stroke="#A1DC82" stroke-width="2"/>
<path d="M108.832 163.506C108.832 163.506 116.913 165.5 121 169.5C125.087 173.5 128 181 128 181" stroke="#A1DC82" stroke-width="2"/>
<path d="M37.4054 201.5L65.1486 189.5L74.7567 209" stroke="#DADFE1" stroke-width="2" stroke-linejoin="bevel"/>
<path d="M38.1351 205.5L61.9595 196.25L72.9595 217" stroke="#AEB5BC" stroke-width="2" stroke-linejoin="bevel"/>
<path d="M41.8679 194.5L37.1351 196L38.5671 204.598C39.3061 209.036 39.6389 213.532 39.5613 218.03L39.5015 221.5" stroke="#A1DC82" stroke-width="2" stroke-linejoin="bevel"/>
<path d="M51 205.5L60.2973 201.5" stroke="#DADFE1" stroke-width="2"/>
<path d="M44 208.5L49.2973 206.5" stroke="#DADFE1" stroke-width="2"/>
<path d="M49 210.5L54.2973 208.5" stroke="#DADFE1" stroke-width="2"/>
<path d="M107 215L95.3806 183" stroke="#6F757B" stroke-width="2"/>
<path fill-rule="evenodd" clip-rule="evenodd" d="M85.2891 209.625C85.2891 209.625 87.1597 212.3 89.156 213.566C91.1524 214.832 95.0945 212.902 97.7974 210.5C106.39 211.5 110 205 110 205L116.076 205.844L119.703 209.625C119.703 209.625 120.904 208.775 121.16 207.5C122.533 200.675 118.74 196 114.448 195.183C110.334 191.525 102.78 192.205 102.78 192.205L93.9898 196.675L85.2891 209.625Z" fill="#F6C293"/>
<path d="M105.5 196C105.5 196 113.623 194.783 118.222 197.25" stroke="#E19178" stroke-width="2"/>
<path d="M96.3613 212.5L97.7975 210.5C97.7975 210.5 104.746 210.211 106.991 208.13C109.236 206.049 110 205 110 205H115.832L120.086 209.857C120.086 209.857 121.581 207.829 120.834 205C120.086 202.171 117.195 199.519 117.195 199.519H108.722" stroke="#E19178" stroke-width="2"/>
<path d="M81.2891 213C81.2891 213 84.2618 217.52 91.2022 217.01" stroke="#A1DC82" stroke-width="2"/>
<path d="M91.4218 217.5L81.7567 239.136" stroke="#A1DC82" stroke-width="2"/>
<path d="M60.6886 174.253C60.6886 174.253 73.2477 190.718 73.6914 190.718C74.1351 190.718 84.8906 183.249 86.7611 179" stroke="#A1DC82" stroke-width="2"/>
<path fill-rule="evenodd" clip-rule="evenodd" d="M101.727 127.658C106.192 128.442 109.773 142.237 109.92 148.302C110.067 154.368 110.341 165.149 97.6868 166.905C85.0327 168.661 82.1066 156.385 82.8986 151.911C83.6907 147.437 97.2621 126.874 101.727 127.658Z" fill="#572818"/>
<path d="M97.5683 152.173C100.605 153.357 103.511 151.605 104.128 148.121C104.745 144.636 101.896 138.621 98.766 138.072" stroke="#FDC425" stroke-width="2" stroke-linecap="round"/>
<path fill-rule="evenodd" clip-rule="evenodd" d="M84.2753 156.641C84.7648 166.487 87.4809 168.288 84.2574 174.024C81.034 179.759 75.182 183.307 75.182 183.307L74.7103 182.948C66.9814 177.069 61.9624 168.314 60.7941 158.672L58.8469 142.604" fill="#F6C293"/>
<path fill-rule="evenodd" clip-rule="evenodd" d="M103.912 92.1276C103.912 92.1276 111.335 95.756 113.673 99.2398C116.012 102.724 115.378 109.471 112.203 118.628C109.027 127.786 102.237 132.221 102.237 132.221L99.4978 106.574L103.912 92.1276Z" fill="#572818"/>
<path fill-rule="evenodd" clip-rule="evenodd" d="M46.9684 118.47C46.9684 118.47 55.4294 142.23 63.1093 148.381C75.5981 158.383 87.0851 161.489 92.1534 158.686C93.9399 157.697 95.6793 156.311 96.277 155.504C97.9841 153.201 100.685 150.285 102.109 140.909C103.535 131.522 100.864 101.641 100.864 101.641L46.9684 118.47Z" fill="#F6C293"/>
<path d="M53.5675 136.377C58.4875 144.442 66.5592 153.531 78.8381 156.66" stroke="#E19178" stroke-width="2"/>
<path d="M96.2588 118.425C96.2588 118.425 99.4063 115.569 102 116.996" stroke="#360309" stroke-width="2"/>
<path fill-rule="evenodd" clip-rule="evenodd" d="M93.9401 71.1902C105.421 73.2033 112.238 83.6786 110.198 95.1859C109.476 99.2613 106.409 100.314 102.604 101.621C102.369 101.702 102.131 101.784 101.891 101.867C98.6413 102.995 96.3804 105.243 94.2258 107.384C90.8465 110.743 87.7287 113.842 81.466 111.957C80.2071 111.578 79.0058 111.097 77.8682 110.526C75.6067 116.982 71.9486 122.856 67.0797 126.38C67.1735 126.53 67.2686 126.679 67.3645 126.83L67.365 126.831C68.0248 127.868 68.7269 128.971 69.3753 130.541C72.8234 138.89 68.2426 144.45 63.0675 148.354C65.2456 150.76 66.3269 154.117 65.715 157.569C64.664 163.497 59.0175 167.463 53.1031 166.425C48.808 165.672 44.6675 159.733 43.1247 154.267C32.9211 150.394 24.1317 137.29 25.9793 126.868C26.9896 121.169 30.1879 116.405 34.5539 113.292C33.3786 109.449 33.1218 105.154 33.9222 100.64C36.456 86.3461 46.6888 75.6419 62.9692 75.6001C66.0432 75.5922 68.6476 76.056 70.8331 76.9099C76.6011 71.7818 86.0306 69.8032 93.9401 71.1902Z" fill="#572818"/>
<path d="M87.0167 101.131C87.0167 101.131 73.7101 99.4836 69.3654 113.031C63.3752 114.582 55.9659 122.733 62.0278 136.156C52.8812 143.83 52.5544 153.011 61.2458 166.246C61.2458 166.246 52.3204 167.507 47.5865 162.746" stroke="#360309" stroke-width="2" stroke-linejoin="round"/>
<path fill-rule="evenodd" clip-rule="evenodd" d="M82.0747 140.469L98.4792 137.727C98.4792 137.727 98.4374 143.468 95.4503 145.66C92.1261 148.099 87.1559 148.469 82.317 145.56C81.9165 145.32 82.0747 140.469 82.0747 140.469Z" fill="white" stroke="#E19178" stroke-width="2" stroke-linecap="round" stroke-linejoin="bevel"/>
<rect width="4.86308" height="4.87339" rx="2.43154" transform="matrix(0.984941 0.172887 -0.174351 0.984683 96.9348 116.544)" fill="#360309"/>
<path fill-rule="evenodd" clip-rule="evenodd" d="M95.874 119.429C96.8368 121.353 99.7874 125.106 102.107 127.932C103.506 129.635 102.703 132.243 100.576 132.829L94.6562 134.461" fill="#F6C293"/>
<path d="M95.874 119.429C96.8368 121.353 99.7874 125.106 102.107 127.932C103.506 129.635 102.703 132.243 100.576 132.829L94.6562 134.461" stroke="#E19178" stroke-width="2" stroke-linecap="square" stroke-linejoin="round"/>
<path d="M109.481 122.576C109.481 122.576 115.271 109.928 115.155 104.881C114.956 96.2796 108.891 92.837 101.047 91.6334" stroke="#360309" stroke-width="2"/>
<path d="M70.0585 83.2524C70.0585 83.2524 83.9031 85.6833 88.5527 96.0864" stroke="#360309" stroke-width="2"/>
<path d="M55.436 92.375C55.436 92.375 46.2158 100.525 51.3109 115.712" stroke="#360309" stroke-width="2"/>
<path d="M66.0992 97.9873C66.0992 97.9873 72.9423 94.1706 80.7175 96.188" stroke="#360309" stroke-width="2"/>
<path d="M76.3784 124.542C76.3784 124.542 79.0831 122.094 80.5933 121.23C82.5551 120.109 84.9393 119.407 86.1995 121.728" stroke="#360309" stroke-width="2"/>
<rect width="4.83013" height="4.8404" rx="2.41507" transform="matrix(0.984941 0.172887 -0.17435 0.984683 80.6962 120.445)" fill="#360309"/>
<path fill-rule="evenodd" clip-rule="evenodd" d="M71.544 117.776C71.544 117.776 76.4365 114.553 78.0992 113.866C80.8623 112.724 84.5373 113.116 87.016 115.149C88.6746 116.51 84.1672 114.958 80.8585 116.441C78.7856 117.37 77.3434 119.024 74.4431 119.027C72.5095 119.03 71.544 117.776 71.544 117.776Z" fill="#360309"/>
<path d="M58.5989 144.35C61.6356 145.534 65.119 144.194 65.9009 139.777C66.6827 135.36 62.9266 130.798 59.7968 130.248" stroke="#FDC425" stroke-width="2"/>
<path d="M33.9398 102.087C33.9398 102.087 33.9359 106.031 34.5008 108.997C35.0656 111.963 35.5282 113.582 35.5282 113.582C35.5282 113.582 34.1587 114.547 33.5242 115.055C28.7931 118.842 26.9196 123.252 26.9138 129.268" stroke="#360309" stroke-width="2"/>
<path opacity="0.231236" fill-rule="evenodd" clip-rule="evenodd" d="M79.8494 -5.25707C69.0624 -3.50858 61.6742 6.57458 63.2573 17.3871L64.3998 25.1904C65.7587 34.4711 73.2797 41.3063 82.1848 42.1948L87.9839 53.1185C88.398 53.8985 89.546 53.7978 89.8184 52.9577L93.6914 41.0098L134.414 34.4089C145.201 32.6604 152.589 22.5773 151.006 11.7647L149.864 3.96147C148.246 -7.08479 137.899 -14.6666 126.879 -12.8803L79.8494 -5.25707Z" fill="#50BF16"/>
<path d="M99.1291 21.5048L97.069 21.8681L96.137 16.579L90.8153 17.5174L91.7474 22.8065L89.6792 23.1712L87.5817 11.2687L89.6499 10.904L90.5229 15.8579L95.8446 14.9195L94.9716 9.96553L97.0316 9.60226L99.1291 21.5048ZM105.412 20.5654C104.153 20.7874 103.062 20.5725 102.137 19.9207C101.218 19.2624 100.642 18.2739 100.41 16.955L100.366 16.7097C100.211 15.8269 100.241 15.0096 100.457 14.2578C100.677 13.4997 101.061 12.8729 101.609 12.3773C102.157 11.8818 102.809 11.5672 103.567 11.4337C104.771 11.2213 105.768 11.4416 106.557 12.0947C107.352 12.7469 107.873 13.776 108.121 15.1821L108.262 15.9832L102.483 17.0024C102.672 17.7221 103.016 18.257 103.516 18.6071C104.021 18.9563 104.598 19.0737 105.247 18.9593C106.157 18.7989 106.833 18.3003 107.276 17.4636L108.527 18.2967C108.266 18.8878 107.864 19.3828 107.322 19.7819C106.784 20.1745 106.148 20.4357 105.412 20.5654ZM103.839 13.0292C103.294 13.1253 102.887 13.3939 102.616 13.835C102.351 14.2751 102.232 14.8439 102.259 15.5415L106.044 14.874L106.018 14.7269C105.857 14.0697 105.592 13.5995 105.222 13.3164C104.851 13.0279 104.39 12.9321 103.839 13.0292ZM112.692 19.1131L110.705 19.4634L108.492 6.90689L110.479 6.5566L112.692 19.1131ZM117.074 18.3404L115.087 18.6907L112.874 6.13415L114.861 5.78385L117.074 18.3404ZM118.177 13.5015C118.024 12.635 118.058 11.8254 118.28 11.0727C118.5 10.3146 118.888 9.69546 119.444 9.21531C119.999 8.72971 120.68 8.41579 121.487 8.27356C122.68 8.06309 123.715 8.27672 124.592 8.91445C125.474 9.55123 126.057 10.4992 126.34 11.7585L126.431 12.223C126.584 13.095 126.553 13.9041 126.336 14.6504C126.124 15.3957 125.738 16.0116 125.178 16.4982C124.623 16.9838 123.937 17.2987 123.119 17.4428C121.871 17.6629 120.798 17.4251 119.9 16.7293C119.007 16.0271 118.438 14.9839 118.194 13.5996L118.177 13.5015ZM120.193 13.3229C120.354 14.2331 120.668 14.9138 121.135 15.3653C121.601 15.8112 122.17 15.9751 122.84 15.8569C123.51 15.7387 123.985 15.3853 124.263 14.7968C124.547 14.2073 124.6 13.4084 124.422 12.4002C124.265 11.5064 123.946 10.832 123.467 10.3771C122.994 9.92118 122.427 9.75136 121.768 9.86765C121.119 9.98201 120.65 10.3317 120.359 10.9167C120.068 11.4963 120.013 12.2983 120.193 13.3229ZM130.46 12.3639L128.751 12.6651L127.084 4.30276L129.176 3.93372L130.46 12.3639ZM128.958 15.2753C128.903 14.9646 128.959 14.6907 129.125 14.4535C129.29 14.2109 129.547 14.0588 129.896 13.9973C130.245 13.9358 130.538 13.9908 130.776 14.1623C131.014 14.3284 131.16 14.5668 131.214 14.8774C131.267 15.1772 131.213 15.4452 131.053 15.6814C130.892 15.9176 130.632 16.0675 130.272 16.1309C129.912 16.1943 129.617 16.1425 129.385 15.9755C129.153 15.8084 129.011 15.575 128.958 15.2753Z" fill="#50BF16"/>
<path d="M79.5 35.0013L88.7626 53.5526L93.6183 41.3875L134.871 33.9995" stroke="#50BF16" stroke-width="2" stroke-linejoin="bevel"/>
<path opacity="0.141718" fill-rule="evenodd" clip-rule="evenodd" d="M146 70C134.954 70 126 78.9543 126 90C126 94.9345 127.787 99.4517 130.749 102.94L126.973 113.323C126.65 114.211 127.626 115.01 128.433 114.519L138.348 108.484C140.705 109.461 143.29 110 146 110C157.046 110 166 101.046 166 90C166 78.9543 157.046 70 146 70Z" fill="#F83D3D"/>
<path d="M143.523 92.2856C143.966 92.2856 144.334 92.4185 144.627 92.6841C144.921 92.9442 145.067 93.279 145.067 93.6885C145.067 94.098 144.921 94.4355 144.627 94.7012C144.334 94.9613 143.966 95.0913 143.523 95.0913C143.075 95.0913 142.704 94.9585 142.411 94.6929C142.123 94.4272 141.979 94.0924 141.979 93.6885C141.979 93.2845 142.123 92.9497 142.411 92.6841C142.704 92.4185 143.075 92.2856 143.523 92.2856ZM143.523 85.6616C143.966 85.6616 144.334 85.7944 144.627 86.0601C144.921 86.3201 145.067 86.6549 145.067 87.0645C145.067 87.474 144.921 87.8115 144.627 88.0771C144.334 88.3372 143.966 88.4673 143.523 88.4673C143.075 88.4673 142.704 88.3345 142.411 88.0688C142.123 87.8032 141.979 87.4684 141.979 87.0645C141.979 86.6605 142.123 86.3257 142.411 86.0601C142.704 85.7944 143.075 85.6616 143.523 85.6616ZM151.41 90.3184C151.41 91.6188 151.219 92.8529 150.837 94.0205C150.455 95.1882 149.926 96.1898 149.251 97.0254C148.582 97.8665 147.857 98.4365 147.077 98.7354L146.545 97.3574C147.315 96.7819 147.909 95.8965 148.33 94.7012C148.751 93.5059 148.969 92.1307 148.986 90.5757V90.0693C148.986 88.4036 148.773 86.9593 148.347 85.7363C147.926 84.5133 147.326 83.6169 146.545 83.0469L147.077 81.6689C147.851 81.9733 148.571 82.5378 149.235 83.3623C149.904 84.1813 150.43 85.1691 150.812 86.3257C151.199 87.4767 151.399 88.6859 151.41 89.9531V90.3184Z" fill="#F83D3D"/>
<path d="M130.787 97L128 114.332L137.956 108.129C137.956 108.129 145.132 110.796 151 109C156.868 107.204 161 102 161 102" stroke="#F83D3D" stroke-width="2" stroke-linejoin="bevel"/>
<path fill-rule="evenodd" clip-rule="evenodd" d="M202.395 171.521L199.295 184.455C202.4 192.98 213.389 195.261 219.63 188.676L231.206 176.461L228.209 151.012L202.395 171.521Z" fill="#F0B088"/>
<path d="M198.793 189.859C198.793 189.859 202.791 196.955 210.824 196.955C218.857 196.955 231.206 181.648 231.206 181.648" stroke="#9AC1EE" stroke-width="2"/>
<path fill-rule="evenodd" clip-rule="evenodd" d="M204.143 173.99C210.361 174.766 223.967 167.769 227.099 162.635C233.093 152.808 233.504 142.435 236.759 133.071C243.019 115.068 234.034 104.901 220.028 101.166C208.192 98.0097 191.545 96.8469 188.377 108.212C186.73 114.122 184.52 117.579 184.705 124.265C184.799 127.689 186.894 133.5 187.166 137.727C185.274 140.125 185.16 139.782 185.302 142.804C185.566 148.414 183.566 150.491 187.166 165.242C188.719 171.604 199.008 173.349 204.143 173.99Z" fill="#F0B088"/>
<path fill-rule="evenodd" clip-rule="evenodd" d="M215.25 99.7982H217.101C230.137 99.7982 241.63 110.472 241.63 123.638C241.63 136.805 231.063 147.479 218.027 147.479H215.25C202.214 147.479 191.647 136.805 191.647 123.638C191.647 110.472 202.214 99.7982 215.25 99.7982Z" fill="#F0B088"/>
<path fill-rule="evenodd" clip-rule="evenodd" d="M188.721 152.621L206.866 153.735C206.866 153.735 204.552 160.146 195.402 160.289C190.816 160.361 188.721 152.621 188.721 152.621Z" fill="white" stroke="#D97B5E" stroke-width="2" stroke-linejoin="bevel"/>
<path fill-rule="evenodd" clip-rule="evenodd" d="M235.151 113.822C235.151 113.822 241.304 102.928 238.227 99.0076C235.151 95.0869 227.283 94.6561 227.283 94.6561C227.283 94.6561 223.259 91.7498 220.028 90.9164C211.963 88.8362 204.973 95.0138 198.82 96.4475C192.028 98.0303 181.822 101.119 181.822 101.119C181.822 101.119 183.993 111.31 187.944 113.354C191.896 115.399 207.809 112.828 211.526 111.952C219.525 110.067 225.297 110.082 224.043 116.627C222.789 123.171 225.35 126.794 227.335 128.844C231.258 132.894 238.39 133.43 238.39 133.43L235.151 113.822Z" fill="#384047"/>
<path fill-rule="evenodd" clip-rule="evenodd" d="M191.184 90.449C197.574 90.449 202.754 95.6812 202.754 102.135C202.754 108.59 197.574 113.822 191.184 113.822C184.794 113.822 179.614 108.59 179.614 102.135C179.614 95.6812 184.794 90.449 191.184 90.449Z" fill="#384047"/>
<path fill-rule="evenodd" clip-rule="evenodd" d="M210.612 85.7744C218.952 85.7744 230.523 92.8764 230.523 99.3307C230.523 105.785 225.343 108.212 218.952 108.212C212.562 108.212 192.117 107.925 192.11 98.8632C192.102 89.8014 202.272 85.7744 210.612 85.7744Z" fill="#384047"/>
<path d="M188.344 164.987C188.344 164.987 188.944 169.221 191.721 171.091C192.486 171.606 193.836 172.117 195.557 172.552C196.537 172.8 197.637 173.023 198.818 173.209C203.089 173.882 208.416 174.066 212.928 173.144" stroke="#D97B5E" stroke-width="2"/>
<path d="M234.647 144.435C234.647 144.435 228.636 159.492 226.102 162.908" stroke="#D97B5E" stroke-width="2"/>
<path d="M201.472 132.495C201.472 132.495 203.911 130.65 205.994 130.65C208.076 130.65 214.324 134.365 214.324 134.365" stroke="#384047" stroke-width="2"/>
<path fill-rule="evenodd" clip-rule="evenodd" d="M206.494 136.325C208.048 136.325 209.308 135.055 209.308 133.488C209.308 131.921 208.048 130.65 206.494 130.65C204.94 130.65 203.68 131.921 203.68 133.488C203.68 135.055 204.94 136.325 206.494 136.325Z" fill="#384047"/>
<path fill-rule="evenodd" clip-rule="evenodd" d="M201.789 123.633C201.789 123.633 203.91 120.862 207.124 121.011C210.338 121.16 215.147 125.605 215.147 125.605L214.999 127.32C214.999 127.32 208.35 125.648 206.506 125.485C204.662 125.322 202.778 125.624 202.778 125.624L201.789 123.633Z" fill="#384047"/>
<path fill-rule="evenodd" clip-rule="evenodd" d="M183.085 123.145C183.085 123.145 185.271 121.086 186.662 121.276C188.054 121.466 193.035 123.146 193.035 123.146V124.868C193.035 124.868 189.795 124.573 187.944 124.573C186.093 124.573 184.242 125.041 184.242 125.041L183.085 123.145Z" fill="#384047"/>
<path fill-rule="evenodd" clip-rule="evenodd" d="M188.444 135.39C189.743 135.39 190.795 134.329 190.795 133.02C190.795 131.711 189.743 130.65 188.444 130.65C187.146 130.65 186.093 131.711 186.093 133.02C186.093 134.329 187.146 135.39 188.444 135.39Z" fill="#384047"/>
<path d="M192.572 131.576C189.795 130.183 187.944 129.715 186.556 130.183C185.167 130.65 184.705 132.053 184.705 132.053" stroke="#384047" stroke-width="2"/>
<path fill-rule="evenodd" clip-rule="evenodd" d="M192.647 149.529L184.94 148.02C184.547 147.932 184.178 147.76 183.858 147.515C182.637 146.578 182.398 144.819 183.326 143.585C183.326 143.585 186.536 139.001 193.647 131.921" fill="#F0B088"/>
<path d="M192.647 149.529L184.94 148.02C184.547 147.932 184.178 147.76 183.858 147.515C182.637 146.578 182.398 144.819 183.326 143.585C183.326 143.585 186.536 139.001 193.647 131.921" stroke="#D97B5E" stroke-width="2"/>
<path fill-rule="evenodd" clip-rule="evenodd" d="M229.531 125.041C232.853 125.041 237.928 128.546 237.928 131.718C237.928 134.889 235.867 139.653 232.545 139.653C229.222 139.653 225.895 134.889 225.895 131.718C225.895 128.546 226.208 125.041 229.531 125.041Z" fill="#384047"/>
<path fill-rule="evenodd" clip-rule="evenodd" d="M237.465 107.277C244.87 107.277 249.961 112.887 244.87 125.041C239.103 138.809 234.383 149.582 232.837 149.582C232.408 149.582 229.718 146.801 229.597 145.609C228.785 137.573 235.634 107.277 237.465 107.277Z" fill="#384047"/>
<path d="M216.638 87.6075C216.638 87.6075 218.952 88.1117 221.729 89.514C224.506 90.9164 227.776 94.9842 227.776 94.9842C227.776 94.9842 233.762 96.0584 236.076 98.3957" stroke="#22292E" stroke-width="2"/>
<path d="M217.564 146.804C217.564 146.804 220.655 149.44 220.192 152.479C219.729 155.517 215.564 161.36 215.564 161.36" stroke="#D97B5E" stroke-width="2" stroke-dasharray="10 4"/>
<path d="M236.539 174.146C236.539 174.146 263.908 186.034 270.341 189.11C276.774 192.187 276.82 202.068 276.82 202.068" stroke="#9AC1EE" stroke-width="2"/>
<path d="M249.68 217.94L252.994 213.94C252.994 213.94 253.767 220.237 255.797 226.738C257.344 231.69 265.269 238.097 267.769 241.455C268.991 251.41 273.716 260.441 273.716 260.441" stroke="#9AC1EE" stroke-width="2"/>
<path d="M194.275 178.62L185.356 181.648" stroke="#9AC1EE" stroke-width="2"/>
<path d="M195.945 112.887C195.945 112.887 212.936 111.485 218.513 110.55C225.015 110.082 224.043 117.562 224.043 117.562C224.043 117.562 223.247 125.888 226.938 129.431C230.628 132.975 231.911 133.43 231.911 133.43" stroke="#22292E" stroke-width="2"/>
<path d="M230.986 120.366C230.986 120.366 230.805 123.277 231.516 124.977C232.837 128.138 234.953 131.921 234.953 131.921" stroke="#22292E" stroke-width="2"/>
<path d="M239.502 110.908C239.502 110.908 241.928 112.055 242.639 113.754C243.96 116.915 240.473 122.619 240.473 122.619" stroke="#22292E" stroke-width="2"/>
<path d="M229.677 143.474C229.677 143.474 229.807 145.97 230.664 147.427C231.521 148.884 232.799 149.292 232.799 149.292L238.676 136.994" stroke="#22292E" stroke-width="2"/>
<mask id="path-73-outside-1_2_237" maskUnits="userSpaceOnUse" x="149.59" y="11.0562" width="84.478" height="71.0738" fill="black">
<rect fill="white" x="149.59" y="11.0562" width="84.478" height="71.0738"/>
<path fill-rule="evenodd" clip-rule="evenodd" d="M174.629 16.1085C169.294 14.679 163.812 17.8451 162.383 23.18L157.212 42.4943C155.784 47.8293 158.951 53.3129 164.286 54.7424L196.723 63.4342L202.179 74.1965C202.565 74.959 203.668 74.9165 203.995 74.1266L207.248 66.2545L210.66 67.1687C215.994 68.5981 221.477 65.4321 222.905 60.0972L228.076 40.7829C229.504 35.4479 226.337 29.9642 221.003 28.5348L174.629 16.1085Z"/>
</mask>
<path fill-rule="evenodd" clip-rule="evenodd" d="M174.629 16.1085C169.294 14.679 163.812 17.8451 162.383 23.18L157.212 42.4943C155.784 47.8293 158.951 53.3129 164.286 54.7424L196.723 63.4342L202.179 74.1965C202.565 74.959 203.668 74.9165 203.995 74.1266L207.248 66.2545L210.66 67.1687C215.994 68.5981 221.477 65.4321 222.905 60.0972L228.076 40.7829C229.504 35.4479 226.337 29.9642 221.003 28.5348L174.629 16.1085Z" fill="#C1D9F5"/>
<path d="M162.383 23.18L160.452 22.6621L162.383 23.18ZM174.629 16.1085L174.112 18.0405L174.629 16.1085ZM157.212 42.4943L159.144 43.0123L157.212 42.4943ZM164.286 54.7424L163.769 56.6744L164.286 54.7424ZM196.723 63.4342L198.506 62.5301L198.103 61.7333L197.24 61.5022L196.723 63.4342ZM202.179 74.1965L200.395 75.1006L202.179 74.1965ZM203.995 74.1266L202.146 73.3619L203.995 74.1266ZM207.248 66.2545L207.765 64.3225L206.07 63.8683L205.4 65.4899L207.248 66.2545ZM210.66 67.1687L210.143 69.1007L210.66 67.1687ZM222.905 60.0972L220.973 59.5792L222.905 60.0972ZM228.076 40.7829L226.144 40.2649L226.144 40.2649L228.076 40.7829ZM221.003 28.5348L221.52 26.6027L221.003 28.5348ZM164.315 23.698C165.458 19.4299 169.844 16.8969 174.112 18.0405L175.146 14.1764C168.744 12.4611 162.165 16.2602 160.452 22.6621L164.315 23.698ZM159.144 43.0123L164.315 23.698L160.452 22.6621L155.281 41.9764L159.144 43.0123ZM164.803 52.8103C160.535 51.6668 158.002 47.2801 159.144 43.0123L155.281 41.9764C153.567 48.3784 157.367 54.959 163.769 56.6744L164.803 52.8103ZM197.24 61.5022L164.803 52.8103L163.769 56.6744L196.206 65.3662L197.24 61.5022ZM203.962 73.2924L198.506 62.5301L194.939 64.3383L200.395 75.1006L203.962 73.2924ZM202.146 73.3619C202.473 72.5727 203.575 72.5292 203.962 73.2924L200.395 75.1006C201.555 77.3889 204.864 77.2604 205.843 74.8912L202.146 73.3619ZM205.4 65.4899L202.146 73.3619L205.843 74.8912L209.096 67.0191L205.4 65.4899ZM211.177 65.2366L207.765 64.3225L206.731 68.1865L210.143 69.1007L211.177 65.2366ZM220.973 59.5792C219.831 63.8473 215.444 66.3802 211.177 65.2366L210.143 69.1007C216.544 70.816 223.123 67.0169 224.837 60.6151L220.973 59.5792ZM226.144 40.2649L220.973 59.5792L224.837 60.6151L230.008 41.3008L226.144 40.2649ZM220.486 30.4668C224.753 31.6104 227.287 35.9971 226.144 40.2649L230.008 41.3008C231.722 34.8987 227.921 28.3181 221.52 26.6027L220.486 30.4668ZM174.112 18.0405L220.486 30.4668L221.52 26.6027L175.146 14.1764L174.112 18.0405Z" fill="white" mask="url(#path-73-outside-1_2_237)"/>
<path d="M182.697 44.9186L180.676 44.3772L182.065 39.1894L176.846 37.7908L175.456 42.9786L173.428 42.4351L176.554 30.7604L178.583 31.304L177.281 36.1631L182.501 37.5616L183.802 32.7026L185.823 33.2439L182.697 44.9186ZM185.732 40.9968C185.959 40.1468 186.333 39.4275 186.851 38.8389C187.371 38.2449 187.984 37.8478 188.691 37.6476C189.399 37.442 190.149 37.4452 190.94 37.6572C192.111 37.9708 192.958 38.6019 193.484 39.5504C194.014 40.5004 194.142 41.606 193.867 42.8672L193.753 43.3264C193.524 44.1817 193.153 44.9017 192.642 45.4864C192.135 46.0726 191.525 46.4678 190.812 46.6719C190.104 46.8775 189.349 46.8728 188.547 46.658C187.323 46.33 186.451 45.6609 185.931 44.6508C185.417 43.6367 185.343 42.4507 185.706 41.093L185.732 40.9968ZM187.635 41.6872C187.396 42.5799 187.393 43.3296 187.626 43.9362C187.86 44.5375 188.306 44.9263 188.963 45.1024C189.621 45.2786 190.2 45.1588 190.701 44.743C191.207 44.3287 191.593 43.627 191.858 42.6381C192.092 41.7615 192.089 41.0157 191.847 40.4008C191.61 39.7874 191.168 39.394 190.521 39.2207C189.885 39.0503 189.312 39.1689 188.802 39.5764C188.293 39.9787 187.904 40.6822 187.635 41.6872ZM196.335 48.5729L194.387 48.0509L197.685 35.7348L199.633 36.2569L196.335 48.5729ZM203.648 50.5323C203.606 50.3436 203.604 50.0536 203.64 49.6623C202.847 50.1429 202.001 50.2629 201.103 50.0223C200.232 49.7889 199.587 49.3498 199.17 48.7052C198.752 48.0605 198.642 47.372 198.838 46.6397C199.086 45.7149 199.617 45.0983 200.433 44.7898C201.256 44.4774 202.306 44.4924 203.583 44.8347L204.778 45.1548L204.931 44.5855C205.051 44.1365 205.021 43.7447 204.841 43.4101C204.663 43.0702 204.318 42.8315 203.804 42.694C203.361 42.5751 202.967 42.5899 202.624 42.7385C202.282 42.8818 202.065 43.1245 201.973 43.4666L200.025 42.9445C200.152 42.4688 200.429 42.0674 200.855 41.7403C201.282 41.4078 201.796 41.1963 202.399 41.1058C203.008 41.0167 203.646 41.0616 204.314 41.2407C205.329 41.5128 206.071 41.9863 206.537 42.6614C207.005 43.331 207.123 44.1304 206.892 45.0595L205.844 48.9724C205.635 49.7528 205.578 50.405 205.673 50.9287L205.636 51.065L203.648 50.5323ZM201.883 48.5554C202.267 48.6586 202.653 48.6617 203.04 48.5648C203.432 48.4694 203.756 48.2869 204.012 48.0174L204.45 46.3816L203.399 46.1002C202.678 45.9068 202.101 45.8871 201.671 46.0409C201.24 46.1948 200.963 46.5016 200.84 46.9613C200.74 47.3355 200.783 47.6677 200.968 47.9581C201.161 48.2446 201.466 48.4437 201.883 48.5554ZM210.334 48.6371L208.658 48.1881L210.678 39.9039L212.731 40.4539L210.334 48.6371ZM207.743 50.6414C207.825 50.3367 207.991 50.1119 208.242 49.9671C208.494 49.817 208.791 49.7878 209.133 49.8794C209.475 49.9711 209.718 50.145 209.861 50.4011C210.006 50.6519 210.038 50.9296 209.956 51.2343C209.877 51.5283 209.715 51.7484 209.47 51.8947C209.224 52.0409 208.925 52.0667 208.573 51.9722C208.22 51.8777 207.974 51.7057 207.834 51.4564C207.695 51.207 207.664 50.9354 207.743 50.6414Z" fill="#4A90E2"/>
<path d="M172.42 56.3106L197.005 62.6978L203.234 75.463L208.372 66.0061" stroke="#4A90E2" stroke-width="2" stroke-linejoin="bevel"/>
<path fill-rule="evenodd" clip-rule="evenodd" d="M158.165 195.691C147.362 197.988 140.465 208.608 142.759 219.411C145.054 230.214 155.672 237.11 166.474 234.813L174.312 233.147C174.707 233.063 175.097 232.968 175.482 232.862L185.004 239.813C185.694 240.317 186.658 239.778 186.59 238.926L185.6 226.416L185.472 226.443C189.29 221.89 191.048 215.689 189.718 209.427C187.423 198.624 176.806 191.728 166.003 194.025L158.165 195.691Z" fill="#FEEED5" fill-opacity="0.58"/>
<path fill-rule="evenodd" clip-rule="evenodd" d="M163.825 204.079L165.779 203.664L166.195 205.623L164.241 206.038L163.825 204.079ZM165.636 207.784C162.934 208.359 161.209 211.014 161.783 213.715C162.123 215.315 163.193 216.572 164.571 217.211L165.194 220.145L171.064 218.897L170.441 215.963C171.44 214.819 171.906 213.235 171.567 211.635C170.993 208.934 168.338 207.21 165.636 207.784ZM168.692 217.357L166.735 217.773L166.32 215.818L165.414 215.397C164.56 215.001 163.939 214.235 163.74 213.299C163.395 211.678 164.431 210.085 166.052 209.74C167.673 209.396 169.266 210.43 169.61 212.051C169.809 212.987 169.552 213.94 168.934 214.649L168.277 215.402L168.692 217.357ZM172.031 205.614L170.354 204.525L169.198 206.304L170.875 207.393L172.031 205.614ZM175.268 209.826L175.684 211.784L173.73 212.2L173.314 210.241L175.268 209.826ZM160.033 215.111L159.617 213.152L157.663 213.568L158.079 215.527L160.033 215.111ZM158.909 208.403L159.999 206.726L161.778 207.881L160.688 209.558L158.909 208.403ZM170.503 221.062L166.589 221.894L167.005 223.85L170.918 223.018L170.503 221.062Z" fill="#FDAA25"/>
<path d="M161.922 235.392L175.596 232.784L186.52 240.462L184.992 226.139" stroke="#FDAA25" stroke-width="2" stroke-linejoin="bevel"/>
<path fill-rule="evenodd" clip-rule="evenodd" d="M236.795 239.315C236.05 235.576 234.39 234.293 230.636 231.275C226.881 228.257 224.461 230.459 221.273 231.794C219.981 232.334 217.523 233.595 211.897 235.576C208.263 236.856 198.285 239.315 198.285 239.315C198.285 239.315 201.928 243.01 204.397 243.01C205.76 243.01 209.45 242.182 212.474 241.01C213.914 240.452 215.306 242.245 215.306 242.245C215.306 242.245 206.794 248.507 205.397 249.386C204 250.265 188.002 249.386 188.002 249.386C188.002 249.386 189.117 252.557 191.479 253.29C193.842 254.023 206.482 258.041 210.001 257.034C212.648 256.276 220.396 250.171 224.07 247.195C225.215 246.267 226.864 246.287 227.975 247.255L236.05 254.29C236.05 254.29 237.539 243.054 236.795 239.315Z" fill="#F0B088"/>
<path opacity="0.764021" fill-rule="evenodd" clip-rule="evenodd" d="M205.219 251.328L197.502 244.594C197.502 244.594 196.588 247.516 197.124 249.049C197.66 250.581 198.922 251.328 198.922 251.328H205.219Z" fill="#F0B088" stroke="#F0B088" stroke-width="2" stroke-linejoin="bevel"/>
<g opacity="0.787435">
<path fill-rule="evenodd" clip-rule="evenodd" d="M201.544 252.328L192.505 246.668C192.505 246.668 192.044 249.776 193.095 250.689C194.146 251.602 195.738 252.328 195.738 252.328" fill="#F0B088"/>
<path d="M201.544 252.328L192.505 246.668C192.505 246.668 192.044 249.776 193.095 250.689C194.146 251.602 195.738 252.328 195.738 252.328" stroke="#F0B088" stroke-width="2" stroke-linejoin="bevel"/>
</g>
<path d="M229.789 231.794C226.508 229.644 224.461 230.459 221.273 231.794C219.981 232.334 217.523 233.595 211.897 235.576C209.475 236.429 204.937 237.675 198.286 239.315C200.714 241.268 202.751 242.245 204.397 242.245" stroke="#D97B5E" stroke-width="2" stroke-linejoin="bevel"/>
<path d="M205.397 249.386C204.466 249.972 199.334 249.972 188.002 249.386C188.745 251.5 189.904 252.801 191.479 253.29C193.842 254.023 206.482 258.041 210.001 257.034C212.195 256.406 216.306 253.733 224.334 247.016C225.353 246.163 226.812 246.083 227.919 246.818L233.293 250.386" stroke="#D97B5E" stroke-width="2" stroke-linejoin="bevel"/>
<path d="M242.886 240.51C242.886 240.51 241.083 255.127 242.043 259.143" stroke="#9AC1EE" stroke-width="2"/>
<path d="M245.861 261.195L261.613 268.105" stroke="#9AC1EE" stroke-width="2"/>
</svg>
