<svg width="206" height="186" viewBox="0 0 206 186" fill="none" xmlns="http://www.w3.org/2000/svg">
<path d="M190.752 177.296C210.715 164.556 212.02 102.796 173.412 88.3398C134.805 73.8836 141.957 37.4047 109.479 10.1364C79.8718 -14.7193 30.8915 6.3507 14.5789 70.9909C2.94638 117.083 16.519 174.903 25.7815 177.296H190.752Z" fill="#F8F8FD"/>
<path d="M134.447 82.8282L137.182 80.1942C136.325 75.4335 131.835 73.1402 128.88 72.8293C120.917 71.9886 116.86 77.4333 115.15 86.1687C112.032 102.112 115.96 169.058 115.96 169.058C116.252 167.28 137.877 100.05 137.322 81.5796L134.447 82.8282Z" fill="#BAB4EE"/>
<path d="M25.6115 135.395L25.2715 137.882L24.459 134.995C22.1765 134.278 20.1915 134.032 18.6189 134.388C4.57136 137.566 28.8465 156.788 28.8465 156.788C28.8465 156.788 21.1115 151.955 13.6164 148.896L13.5214 151.428L12.5639 148.565C6.74138 146.299 1.34135 145.25 0.261339 148.525C-0.756167 151.607 1.28885 154.525 4.80887 157.122L8.85389 157.263L6.46888 158.258C14.5964 163.437 28.039 167.143 32.679 167.984C28.239 167.29 17.3889 165.884 10.9564 167.267L11.9564 168.939L9.41639 167.675C7.16638 168.397 5.76637 169.593 5.91637 171.476C6.20387 175.077 21.9165 176.373 21.9165 176.373L79.2843 175.853L79.6043 176.013C79.6043 176.013 44.1041 142.136 25.6115 135.395Z" fill="#6E62DB"/>
<path d="M205.563 168.705C204.455 163.594 193.222 162.091 178.902 164.894C184 163.153 191.005 159.216 194.632 157.413L192.152 155.841L197.135 156.072C201.212 153.697 203.25 151.366 201.918 149.254C200.917 147.68 198.742 147.016 195.785 147.033L194.227 149.806L194.55 147.07C187.092 147.498 185.4 146.287 175.337 150.334C181.625 147.088 182.532 146.08 182.945 144.775L179.54 143.282H183.54C186.767 139.83 191.885 133 189.762 129.851C188.012 127.254 180.32 130.86 175.412 132.733L173.325 137.407L173.747 133.412C158.14 140.178 163.43 134.751 163.43 134.751C163.43 134.751 179.712 101.234 170.115 101.98C166.325 102.279 162.25 104.55 158.25 108.198L158.147 111.531L156.957 109.417C154.042 112.258 151.157 115.703 148.402 119.396C152.137 111.591 154.97 103.925 155.252 98.2168L152.4 97.871L155.215 95.9235C154.95 93.0407 153.802 90.8593 151.465 89.7052C147.897 87.9367 144.152 90.613 140.465 95.9235L141.375 100.724L139.087 98.0352C125.887 119.441 113.814 172.145 113.814 172.145L112.857 175.003L151.642 176.908C151.642 176.908 207.798 179.03 205.563 168.705Z" fill="#BAB4EE"/>
<path d="M202.778 177.17H2.55138C2.38098 177.17 2.21756 177.102 2.09706 176.982C1.97657 176.861 1.90887 176.698 1.90887 176.528C1.90887 176.357 1.97657 176.194 2.09706 176.073C2.21756 175.953 2.38098 175.885 2.55138 175.885H202.778C202.948 175.885 203.111 175.953 203.232 176.073C203.352 176.194 203.42 176.357 203.42 176.528C203.42 176.698 203.352 176.861 203.232 176.982C203.111 177.102 202.948 177.17 202.778 177.17Z" fill="#291F85"/>
<path d="M148.525 154.462H57.5567C54.0842 154.462 51.2667 151.92 51.2667 148.784V145.406C51.2667 142.27 54.0842 139.728 57.5567 139.728H148.525C144.362 143.834 144.29 150.107 148.357 154.291L148.525 154.462Z" fill="#291F85"/>
<path d="M147.25 141.411H101.474C99.9607 141.411 98.509 142.01 97.4386 143.075C96.3682 144.139 95.7669 145.584 95.7669 147.09C95.7669 148.596 96.3682 150.04 97.4386 151.105C98.509 152.17 99.9607 152.768 101.474 152.768H147.252C146.205 151.057 145.651 149.093 145.651 147.09C145.65 145.087 146.203 143.123 147.25 141.411Z" fill="#E0DEF7"/>
<path d="M144.427 123.62C144.627 123.28 144.325 122.874 143.865 122.874H71.4193C65.7417 122.874 61.1392 126.652 61.1392 131.316C61.1392 135.977 65.7417 139.755 71.4193 139.755H143.885C144.347 139.755 144.65 139.359 144.45 139.009C143.049 136.685 142.307 134.027 142.303 131.318C142.299 128.608 143.033 125.948 144.427 123.62Z" fill="#6E62DB"/>
<path d="M143.85 124.697H95.2444C93.5204 124.697 91.8671 125.378 90.6481 126.591C89.4291 127.804 88.7443 129.449 88.7443 131.164V131.661C88.7443 133.376 89.4291 135.021 90.6481 136.234C91.8671 137.447 93.5204 138.128 95.2444 138.128H143.955C142.883 136.053 142.316 133.757 142.298 131.425C142.279 129.092 142.811 126.788 143.85 124.697Z" fill="#E0DEF7"/>
<path d="M56.2617 122.128H103.012C107.157 122.128 110.512 118.523 110.512 114.073C110.512 109.626 107.149 106.019 103.012 106.019H56.2617C59.8367 110.497 59.9742 117.036 56.5967 121.67L56.2617 122.128Z" fill="#E0DEF7"/>
<path d="M109.907 114.076C109.907 109.629 106.507 106.022 102.314 106.022H55.4067C55.353 106.021 55.3003 106.008 55.2514 105.986C55.2026 105.964 55.1586 105.933 55.1221 105.894C55.0856 105.855 55.0572 105.809 55.0387 105.759C55.0202 105.708 55.0118 105.655 55.0142 105.602C55.0121 105.496 55.0521 105.393 55.1256 105.316C55.199 105.238 55.2999 105.193 55.4067 105.189H129.807C134.435 105.189 138.187 109.169 138.187 114.076C138.187 118.986 134.437 122.965 129.807 122.965H55.4067C55.2999 122.962 55.199 122.916 55.1256 122.839C55.0521 122.762 55.0121 122.659 55.0142 122.553C55.0115 122.499 55.0195 122.445 55.0379 122.395C55.0562 122.344 55.0845 122.298 55.121 122.258C55.1575 122.219 55.2016 122.187 55.2506 122.164C55.2997 122.142 55.3527 122.129 55.4067 122.127H102.307C106.504 122.127 109.907 118.526 109.907 114.076Z" fill="#4838D1"/>
<path d="M113.22 131.462H108.219C107.142 131.462 106.269 131.795 106.269 132.212V132.277H113.222L113.22 131.462Z" fill="#291F85"/>
<path d="M117.487 133.32C117.487 132.293 116.18 131.462 114.57 131.462H108.157C109.379 131.462 110.372 132.092 110.372 132.873L110.342 152.803L113.89 150.241L117.505 152.803L117.487 133.32Z" fill="#F77A55"/>
<path d="M185.925 154.428H50.7592C48.7435 154.428 46.8104 155.224 45.3851 156.642C43.9598 158.06 43.1591 159.984 43.1591 161.989V168.349C43.1591 170.354 43.9598 172.278 45.3851 173.696C46.8104 175.114 48.7435 175.91 50.7592 175.91H185.925L185.855 175.836C183.074 172.955 181.526 169.112 181.539 165.118C181.552 161.123 183.125 157.29 185.925 154.428Z" fill="#F77A55"/>
<path d="M183.532 157.607H111.282C109.266 157.607 107.333 158.403 105.908 159.821C104.483 161.239 103.682 163.163 103.682 165.168C103.682 167.173 104.483 169.097 105.908 170.515C107.333 171.933 109.266 172.729 111.282 172.729H183.532C182.227 170.421 181.541 167.817 181.541 165.168C181.541 162.519 182.227 159.915 183.532 157.607Z" fill="#E0DEF7"/>
<path d="M148.055 165.207H142.195C141.589 165.207 141.009 165.448 140.581 165.876C140.153 166.303 139.912 166.884 139.912 167.489V167.691H148.055V165.207Z" fill="#291F85"/>
<path d="M142.435 165.215C143.835 165.215 145.935 166.394 147.107 167.849L161.005 185.012H169.17L155.95 168.702C154.395 166.782 151.637 165.22 149.79 165.22L142.435 165.215Z" fill="#4838D1"/>
<path d="M20.1215 174.027L22.969 173.366C24.4645 173.439 25.9634 173.341 27.4365 173.075C27.6123 173.64 27.7165 174.225 27.7465 174.816C27.7615 175.02 27.469 176.029 27.2665 176.059C26.534 176.171 25.244 176.044 22.954 176.097C22.954 176.097 19.3515 176.522 17.4215 175.888C15.4915 175.254 20.1215 174.027 20.1215 174.027Z" fill="#4838D1"/>
<path d="M51.5891 127.644C51.7466 129.291 53.1341 129.883 54.4266 130.91C55.2966 131.609 55.1466 133.497 54.4816 134.668C52.8016 137.638 54.2316 138.004 55.5891 140.185C58.8392 145.436 48.7391 146.597 47.5391 146.988C46.3391 147.379 45.5241 147.854 44.8141 147.776C42.6766 147.54 40.7191 144.513 39.6316 141.715C38.5441 138.917 41.1816 138.77 41.3166 137.161C41.4516 135.551 38.3665 135.208 39.2815 132.186C40.2816 128.9 41.6691 126.117 43.5316 125.12C46.6016 123.468 50.3366 125.194 51.1841 126.522C51.4057 126.86 51.5444 127.244 51.5891 127.644Z" fill="#1C155B"/>
<path d="M51.8267 163.601C52.0917 164.257 53.5542 166.585 53.5542 166.585L33.019 166.789L32.6965 162.596C38.3366 162.551 43.9091 160.071 49.1041 158.298C49.2366 158.617 51.6966 163.282 51.8267 163.601Z" fill="#FEECE7"/>
<path d="M37.2665 147.523C37.2665 147.523 38.369 139.777 40.144 138.974C41.919 138.17 51.5241 139.285 52.9616 140.158C54.3991 141.031 52.0041 150.127 51.6366 152.672C51.6141 152.823 51.5916 152.975 51.5666 153.127C50.9544 156.791 51.3146 160.551 52.6116 164.034C47.3616 165.621 45.9941 166.494 40.3615 166.34L38.2565 154.089C38.2565 154.089 36.579 148.16 37.2665 147.523Z" fill="#6E62DB"/>
<path d="M47.7716 133.875C47.7716 133.875 48.2141 138.141 48.5916 139.186C48.9691 140.23 47.5916 142.359 45.3066 142.949C43.0216 143.538 44.6866 140.678 44.6341 139.571C44.5816 138.464 44.3616 133.233 44.3616 133.233L47.7716 133.875Z" fill="#FBC6B6"/>
<path d="M47.8266 134.373C47.5279 134.712 47.1768 135 46.7866 135.228C45.9291 135.727 45.1416 135.845 44.4641 135.69C44.4091 134.365 44.3616 133.233 44.3616 133.233L47.7716 133.878C47.7716 133.878 47.7916 134.071 47.8266 134.373Z" fill="#F45424"/>
<path d="M46.9766 126.087C47.8622 126.368 48.6176 126.955 49.1066 127.741C49.8966 129.045 50.3341 132.808 47.5216 134.457C44.7091 136.106 42.6566 133.569 42.7116 131.147C42.7666 128.724 43.4066 125.535 46.9766 126.087Z" fill="#FBC6B6"/>
<path d="M41.8566 130.14C41.8866 130.77 42.2091 131.265 42.5741 131.248C42.9391 131.23 43.2141 130.703 43.1816 130.073C43.1491 129.443 42.8291 128.948 42.4641 128.968C42.0991 128.988 41.8266 129.51 41.8566 130.14Z" fill="#FBC6B6"/>
<path d="M49.0292 131.099C48.8067 131.722 48.9666 132.35 49.3866 132.5C49.8067 132.65 50.3267 132.267 50.5492 131.645C50.7717 131.022 50.6117 130.394 50.1917 130.244C49.7717 130.094 49.2517 130.477 49.0292 131.099Z" fill="#FBC6B6"/>
<path d="M52.9617 140.158C52.9617 140.158 51.3242 141.013 50.3192 143.391C49.3142 145.769 52.7342 157.95 53.4642 158.728C54.1942 159.507 56.2142 159.629 56.5567 157.733C56.8992 155.838 55.7392 140.76 52.9617 140.158Z" fill="#4838D1"/>
<path d="M43.1566 138.528L45.9816 155.4L34.9815 157.163L31.4815 141.381C31.4815 141.381 40.5491 137.737 43.1566 138.528Z" fill="#E0DEF7"/>
<path d="M21.9465 139.041C22.9971 138.631 24.1434 138.527 25.2515 138.74C27.309 139.141 30.579 139.969 31.8915 141.374C33.8716 143.491 35.7066 157.502 35.7066 157.502L27.1565 155.601L21.9465 139.041Z" fill="#E0DEF7"/>
<path d="M51.3467 167.912C49.9091 163.932 33.6266 149.488 29.3165 150.6L31.6315 159.415C31.6315 159.415 36.4691 173.764 41.2091 175.615C45.9491 177.465 50.3891 175.366 50.3891 175.366C50.3891 175.366 52.7842 171.874 51.3467 167.912Z" fill="#E0DEF7"/>
<path d="M45.4991 144.723C45.2966 145.128 46.5916 145.853 46.9691 146.125C47.3466 146.398 48.9041 146.125 48.9041 146.125C48.9041 146.125 45.7241 144.263 45.4991 144.723Z" fill="#FBC6B6"/>
<path d="M31.5891 163.613C31.5891 163.613 27.449 172.169 27.4365 173.065C27.4165 174.346 21.454 173.995 22.749 173.445C23.0465 173.319 23.984 172.846 24.0565 172.786C24.4415 172.456 27.8765 161.842 27.8765 161.842L31.5891 163.613Z" fill="#F77A55"/>
<path d="M32.9065 153.378C32.709 153.159 30.6115 152.331 28.9965 154.331C27.3815 156.33 24.2865 171.908 24.2865 171.908L28.0915 172.279C28.0915 172.279 37.5616 158.487 32.9065 153.378Z" fill="#E0DEF7"/>
<path d="M20.5989 141.7L25.494 155.898C25.5859 156.173 25.7527 156.418 25.976 156.605C26.1993 156.792 26.4703 156.914 26.759 156.957C31.349 157.604 33.744 157.932 33.744 157.932C33.744 157.932 34.639 157.98 35.589 157.992L46.0891 156.875C46.3088 156.847 46.5203 156.774 46.7105 156.661C46.9008 156.549 47.0657 156.398 47.1951 156.219C47.3245 156.04 47.4155 155.837 47.4627 155.622C47.5098 155.406 47.512 155.184 47.4691 154.968L44.9066 141.031C44.8396 140.624 44.6137 140.259 44.2781 140.017C43.9425 139.774 43.5242 139.673 43.1141 139.735L33.0065 141.427L30.3515 141.355L22.4064 139.579C21.2089 139.31 20.1864 140.506 20.5989 141.7Z" fill="#F77A55"/>
<path d="M41.9791 148.605C41.9791 148.605 44.7991 149.125 45.7616 149.103C46.507 149.112 47.2491 149.204 47.9741 149.376C47.9741 149.376 51.1217 156.739 51.5717 157.559C52.9192 160.012 56.6567 159.721 56.5942 157.676C56.5467 156.052 50.1617 145.864 48.4666 145.914C46.7716 145.964 41.4666 144.864 41.2966 145.536C41.2116 145.896 46.1891 146.065 45.4041 146.371C44.9041 146.563 41.0191 146.123 41.0341 146.583C41.0491 147.043 44.5541 147.08 44.9316 147.436C45.3091 147.792 41.2016 147.003 41.2241 147.777C41.2366 148.167 44.8441 147.886 45.2391 148.478C45.4066 148.719 41.6816 147.839 41.9791 148.605Z" fill="#FBC6B6"/>
<path d="M22.969 147.403C22.917 147.38 22.8607 147.369 22.804 147.37C22.7472 147.372 22.6915 147.385 22.6405 147.41C22.5896 147.435 22.5447 147.471 22.509 147.515C22.4734 147.559 22.4477 147.611 22.434 147.666C22.3929 147.786 22.3817 147.915 22.4013 148.041C22.4209 148.167 22.4707 148.286 22.5465 148.388C22.899 148.768 25.3665 149.138 25.379 148.766C25.389 148.483 23.734 147.748 22.969 147.403Z" fill="#FBC6B6"/>
<path d="M22.489 148.356C22.489 148.356 22.239 149.281 22.454 149.289C22.669 149.296 25.3365 149.561 25.454 149.244C25.5715 148.926 22.8315 148.169 22.489 148.356Z" fill="#FBC6B6"/>
<path d="M22.374 149.307C22.3528 149.419 22.3547 149.534 22.3796 149.646C22.4046 149.757 22.452 149.862 22.519 149.954C22.739 150.204 25.224 150.037 25.314 149.642C25.404 149.247 22.4615 149.004 22.374 149.307Z" fill="#FBC6B6"/>
<path d="M22.7515 150.171C22.7475 150.329 22.7901 150.484 22.874 150.618C22.999 150.753 24.834 150.566 25.0165 150.176C25.199 149.786 22.9665 149.766 22.7515 150.171Z" fill="#FBC6B6"/>
<path d="M28.9765 171.764C28.4842 173.54 27.9001 175.289 27.2265 177.004C26.6515 178.37 26.504 179.74 26.1215 180.414C25.1565 182.138 23.5815 182.205 22.329 181.161C21.0765 180.116 22.7565 175.758 22.7565 175.758L26.709 170.224L28.9765 171.764Z" fill="#FBC6B6"/>
<path d="M26.114 180.415C26.454 179.808 26.614 178.674 27.044 177.46C26.439 177.81 25.424 178.072 24.874 177.925C22.8515 177.388 22.749 175.768 22.749 175.768C22.749 175.768 20.6415 180.245 21.8915 181.28C22.2092 181.545 22.5831 181.735 22.9852 181.836C23.3872 181.937 23.807 181.946 24.2131 181.863C24.6192 181.78 25.0011 181.606 25.3303 181.356C25.6595 181.105 25.9274 180.783 26.114 180.415Z" fill="#6E62DB"/>
<path d="M33.019 141.421L36.2541 158.088L34.3065 157.971L33.744 157.932L30.3615 141.352L33.019 141.421Z" fill="#F77A55"/>
<path d="M44.2941 174.639C45.4016 176.669 47.6116 176.985 49.5991 176.818C51.7991 176.634 54.2191 175.438 54.8691 172.925C55.5641 170.244 54.6516 166.923 53.0491 164.819C44.8541 154.044 44.7991 152.982 41.529 151.552C38.0065 150.007 24.9265 172.239 24.9265 172.239L28.5165 174.067C28.5165 174.067 33.9065 169.59 37.349 165.657C37.754 165.195 38.904 162.804 38.904 162.804C38.904 162.804 43.5616 173.298 44.2941 174.639Z" fill="#E0DEF7"/>
<path d="M44.4066 109.842C40.9441 110.365 39.8591 114.864 42.7041 116.919C43.2105 117.295 43.5651 117.838 43.7041 118.451L44.2041 120.558C44.27 120.838 44.4392 121.082 44.6782 121.244C44.9172 121.405 45.2085 121.471 45.4941 121.428L46.8066 121.229C47.0922 121.187 47.3512 121.039 47.5319 120.815C47.7126 120.591 47.8018 120.307 47.7816 120.021C47.6266 117.849 47.4141 117.061 48.1341 116.103C50.2516 113.302 47.8791 109.322 44.4066 109.842Z" fill="#E0DEF7"/>
<path d="M45.1716 119.782C45.0884 119.793 45.0041 119.771 44.9371 119.721C44.8701 119.671 44.8259 119.596 44.8141 119.513L44.1566 114.914L43.0766 113.994C43.0412 113.968 43.0115 113.935 42.9895 113.897C42.9675 113.859 42.9535 113.817 42.9485 113.774C42.9435 113.73 42.9476 113.686 42.9605 113.645C42.9733 113.603 42.9947 113.564 43.0233 113.531C43.0519 113.497 43.0871 113.47 43.1266 113.451C43.1662 113.432 43.2093 113.421 43.2532 113.42C43.2972 113.418 43.341 113.425 43.382 113.441C43.423 113.457 43.4603 113.481 43.4916 113.511L44.7416 114.588L45.4216 119.419C45.4356 119.5 45.4173 119.583 45.3706 119.651C45.3239 119.719 45.2525 119.766 45.1716 119.782Z" fill="#BAB4EE"/>
<path d="M46.7766 119.737C46.8575 119.72 46.9285 119.672 46.9751 119.604C47.0216 119.536 47.04 119.453 47.0266 119.371L46.2766 114.795L47.0266 113.596C47.0529 113.561 47.0716 113.521 47.0815 113.478C47.0914 113.435 47.0923 113.391 47.0842 113.348C47.0761 113.305 47.0591 113.264 47.0343 113.227C47.0096 113.191 46.9775 113.16 46.9402 113.137C46.9029 113.113 46.8611 113.098 46.8175 113.091C46.7739 113.085 46.7294 113.087 46.6869 113.099C46.6443 113.11 46.6045 113.13 46.5701 113.157C46.5356 113.185 46.5072 113.219 46.4866 113.258L45.5991 114.661L46.3841 119.473C46.3909 119.517 46.4066 119.559 46.4304 119.596C46.4542 119.634 46.4856 119.666 46.5224 119.691C46.5593 119.715 46.6009 119.732 46.6447 119.74C46.6884 119.748 46.7333 119.747 46.7766 119.737Z" fill="#BAB4EE"/>
<path d="M43.7041 118.397L43.7191 118.449L44.2191 120.555C44.285 120.835 44.4542 121.08 44.6932 121.241C44.9323 121.403 45.2235 121.469 45.5091 121.426L46.8216 121.227C47.1072 121.185 47.3662 121.036 47.5469 120.812C47.7276 120.588 47.8168 120.305 47.7966 120.018C47.7291 119.051 47.6466 118.359 47.6441 117.805L43.7041 118.397Z" fill="#4838D1"/>
<path d="M43.7616 76.3111L42.3916 74.3361H39.9766C39.9158 74.3342 39.8566 74.3156 39.8057 74.2823C39.7548 74.249 39.7142 74.2023 39.6883 74.1475C39.6625 74.0926 39.6523 74.0317 39.6591 73.9715C39.6658 73.9113 39.6892 73.8541 39.7266 73.8063L41.1891 71.896L40.4391 69.6151C40.4195 69.5566 40.4168 69.4938 40.4313 69.4338C40.4459 69.3739 40.4772 69.3192 40.5215 69.2761C40.5659 69.233 40.6216 69.2032 40.6822 69.1902C40.7427 69.1771 40.8058 69.1812 40.8641 69.2022L43.1391 69.9957L45.0891 68.5803C45.1391 68.5443 45.1983 68.5228 45.2599 68.5183C45.3215 68.5138 45.3831 68.5265 45.4379 68.5549C45.4927 68.5833 45.5384 68.6264 45.57 68.6792C45.6015 68.732 45.6177 68.7925 45.6166 68.8539L45.5591 71.2543L47.5141 72.6621C47.5645 72.6978 47.6037 72.7469 47.6274 72.8037C47.6511 72.8605 47.6582 72.9228 47.6481 72.9834C47.6379 73.0441 47.6108 73.1007 47.5699 73.1468C47.529 73.1929 47.4759 73.2266 47.4166 73.2441L45.1041 73.9331L44.3541 76.2191C44.3361 76.2788 44.3014 76.3322 44.2541 76.3732C44.2069 76.4142 44.1489 76.441 44.087 76.4506C44.0251 76.4603 43.9616 76.4523 43.9041 76.4276C43.8465 76.4029 43.7971 76.3625 43.7616 76.3111Z" fill="#F77A55"/>
<path d="M170.842 79.8906L169.842 78.4404H168.07C168.025 78.4383 167.982 78.4245 167.945 78.4004C167.908 78.3763 167.878 78.3427 167.858 78.3032C167.838 78.2637 167.829 78.2196 167.832 78.1755C167.835 78.1315 167.85 78.089 167.875 78.0524L168.95 76.6494L168.397 74.9728C168.386 74.9301 168.386 74.885 168.397 74.8423C168.409 74.7996 168.432 74.7607 168.464 74.7298C168.496 74.6989 168.535 74.6769 168.579 74.6663C168.622 74.6557 168.667 74.6567 168.71 74.6693L170.382 75.2539L171.815 74.2141C171.852 74.1897 171.895 74.1757 171.94 74.1734C171.984 74.1712 172.029 74.1808 172.068 74.2014C172.108 74.2219 172.141 74.2526 172.165 74.2903C172.188 74.328 172.201 74.3713 172.202 74.4156L172.16 76.1793L173.597 77.2116C173.632 77.2393 173.658 77.2757 173.674 77.317C173.69 77.3583 173.694 77.4031 173.687 77.4466C173.68 77.4902 173.661 77.531 173.632 77.5649C173.604 77.5988 173.567 77.6245 173.525 77.6394L171.825 78.137L171.282 79.8135C171.269 79.8577 171.244 79.8973 171.209 79.928C171.174 79.9586 171.132 79.9791 171.086 79.9871C171.041 79.9951 170.994 79.9903 170.95 79.9733C170.907 79.9562 170.87 79.9276 170.842 79.8906Z" fill="#F77A55"/>
<path d="M142.59 58.5694L140.36 58.1963L139.055 60.0866L136.585 59.4922L135.82 61.9321L132.997 61.3824L132.012 63.5413L129.212 63.4567L129.245 62.3997L131.34 62.4643L132.377 60.1861L135.09 60.7158L135.87 58.2361L138.595 58.8902L139.87 57.0448L141.935 57.3905L142.517 56.0051L143.497 56.413L142.59 58.5694Z" fill="#F77A55"/>
<path d="M79.3193 65.4442L77.6867 65.9416L76.5917 63.4171L74.1142 63.8524L72.9842 62.0989L72.0917 62.6684L73.6042 65.0164L75.9492 64.6035L77.0917 67.2275L79.5468 66.4789L79.3193 65.4442Z" fill="#4838D1"/>
<path d="M31.2666 92.1825L28.8215 93.66L31.3566 104.985C31.4076 105.212 31.5122 105.423 31.6617 105.602C31.8112 105.781 32.0013 105.921 32.2162 106.013C32.4312 106.104 32.6648 106.143 32.8979 106.126C33.131 106.11 33.3567 106.038 33.5566 105.918C33.8214 105.758 34.0286 105.519 34.1485 105.235C34.2684 104.95 34.2949 104.636 34.2241 104.336L33.6066 101.677L36.1691 100.127L38.2891 101.891C38.5246 102.087 38.816 102.205 39.1223 102.228C39.4287 102.25 39.7345 102.177 39.9966 102.018L40.0441 101.99C40.2435 101.869 40.411 101.702 40.5327 101.504C40.6545 101.305 40.7271 101.081 40.7444 100.849C40.7618 100.617 40.7234 100.385 40.6325 100.17C40.5416 99.9562 40.4007 99.7666 40.2216 99.6173L31.2666 92.1825ZM32.9066 98.9954L32.4391 96.9135L34.0841 98.2815L32.9066 98.9954Z" fill="#F77A55"/>
<path d="M178.632 102.896C178.757 102.575 178.712 101.428 180.317 100.324C180.977 99.8736 181.517 99.4906 181.665 98.9682C181.915 98.0628 180.96 97.6276 180.007 97.6325C179.77 97.6326 179.542 97.5407 179.372 97.3764C179.201 97.212 179.102 96.988 179.095 96.752C179.087 96.5128 179.175 96.2802 179.338 96.1044C179.501 95.9285 179.727 95.8234 179.967 95.8118C180.597 95.7841 181.228 95.8563 181.835 96.0257C183.88 96.5904 184.495 97.9733 184.14 99.2592C183.812 100.431 182.867 101 182.097 101.498C180.802 102.319 180.805 103.239 180.692 103.488L178.632 102.896ZM177.632 104.913C177.713 104.642 177.872 104.4 178.09 104.219C178.308 104.038 178.575 103.924 178.858 103.894C179.14 103.863 179.426 103.917 179.678 104.047C179.93 104.177 180.138 104.379 180.275 104.627C180.412 104.875 180.472 105.157 180.448 105.439C180.425 105.721 180.317 105.989 180.14 106.21C179.963 106.431 179.725 106.596 179.454 106.682C179.183 106.769 178.893 106.774 178.62 106.696C178.434 106.65 178.259 106.566 178.107 106.449C177.955 106.332 177.829 106.186 177.736 106.018C177.644 105.851 177.587 105.666 177.57 105.476C177.552 105.286 177.574 105.094 177.635 104.913H177.632Z" fill="#6E62DB"/>
<path d="M110.292 43.9961C107.107 43.9961 105.514 47.8963 107.792 50.1299C108.199 50.5355 108.445 51.0732 108.487 51.6447L108.644 53.6048C108.665 53.8656 108.784 54.1091 108.977 54.2866C109.171 54.4641 109.424 54.5626 109.687 54.5624H110.907C111.17 54.5619 111.422 54.4632 111.615 54.2857C111.808 54.1083 111.926 53.8652 111.947 53.6048C112.107 51.6323 112.022 50.8935 112.799 50.1225C115.069 47.8963 113.479 43.9961 110.292 43.9961Z" fill="#E0DEF7"/>
<path d="M109.614 53.0374C109.576 53.0371 109.539 53.0293 109.504 53.0145C109.469 52.9997 109.437 52.9782 109.41 52.9512C109.383 52.9241 109.362 52.8921 109.348 52.857C109.334 52.8219 109.327 52.7843 109.327 52.7464L109.374 48.5176L108.527 47.5425C108.48 47.4842 108.457 47.4097 108.464 47.335C108.471 47.2602 108.506 47.1911 108.564 47.1422C108.621 47.0933 108.695 47.0686 108.77 47.0732C108.846 47.0778 108.916 47.1114 108.967 47.1669L109.967 48.3062L109.917 52.7414C109.918 52.7809 109.91 52.8201 109.895 52.8567C109.88 52.8933 109.858 52.9264 109.83 52.9541C109.801 52.9818 109.768 53.0034 109.731 53.0177C109.694 53.0321 109.654 53.0388 109.614 53.0374Z" fill="#E0DEF7"/>
<path d="M111.064 53.2142C111.103 53.2142 111.14 53.2066 111.176 53.192C111.211 53.1773 111.243 53.1558 111.27 53.1287C111.296 53.1016 111.317 53.0694 111.332 53.0342C111.346 52.9989 111.353 52.9612 111.352 52.9232L111.304 48.6948L112.152 47.7198C112.202 47.6618 112.228 47.5862 112.222 47.5097C112.216 47.4332 112.18 47.362 112.122 47.3119C112.064 47.2618 111.988 47.2368 111.911 47.2423C111.834 47.2479 111.762 47.2837 111.712 47.3418L110.712 48.4834L110.762 52.9182C110.761 52.9577 110.769 52.9969 110.784 53.0335C110.799 53.07 110.821 53.1031 110.849 53.1308C110.878 53.1585 110.911 53.1802 110.948 53.1945C110.985 53.2089 111.025 53.2155 111.064 53.2142Z" fill="#E0DEF7"/>
<path d="M108.482 51.595V51.6447L108.639 53.6061C108.66 53.8671 108.779 54.1107 108.972 54.2884C109.166 54.466 109.419 54.5645 109.682 54.5643H110.907C111.17 54.5639 111.422 54.4651 111.615 54.2875C111.808 54.1099 111.926 53.8667 111.947 53.6061C112.019 52.7275 112.042 52.0953 112.112 51.595H108.482Z" fill="#6E62DB"/>
<path d="M116.422 38.6285L113.669 43.2744L118.337 39.8198L116.422 38.6285Z" fill="#E0DEF7"/>
<path d="M105.227 37.4319L108.042 42.2029L107.562 36.723L105.227 37.4319Z" fill="#E0DEF7"/>
<path d="M100.329 44.2625L104.809 46.0225L100.237 46.2975L100.329 44.2625Z" fill="#E0DEF7"/>
<path d="M114.147 50.5403L115.944 52.8153L117.26 51.2578L114.147 50.5403Z" fill="#E0DEF7"/>
<path d="M115.945 46.3797L120.015 44.7021L120.135 46.4997L115.945 46.3797Z" fill="#E0DEF7"/>
<path d="M105.287 50.8987L101.457 52.6846L102.654 54.1147L105.287 50.8987Z" fill="#E0DEF7"/>
<path d="M59.8291 75.0206C60.837 75.1472 61.8327 75.3552 62.8067 75.6425C64.1842 76.0355 64.9892 76.4086 65.5942 77.0403C65.9054 77.3234 66.1305 77.6878 66.2436 78.092C66.3568 78.4961 66.3535 78.9238 66.2342 79.3262C65.9842 80.2117 65.2342 80.8883 63.9842 80.9803V81.0101C65.0367 81.6444 65.6342 82.7513 65.2667 84.0198C65.1518 84.4275 64.9438 84.8033 64.6588 85.1178C64.3739 85.4324 64.0198 85.6771 63.6242 85.8331C62.7342 86.2012 61.4267 86.1813 59.4417 85.6167C58.6229 85.3916 57.8209 85.1099 57.0416 84.7735L59.8291 75.0206ZM60.9742 79.458L61.7242 79.667C62.9092 80.0053 63.6867 79.6993 63.8967 78.9631C64.1067 78.2268 63.6467 77.6498 62.6292 77.3587C62.3087 77.2618 61.981 77.1903 61.6492 77.1448L60.9742 79.458ZM59.7092 83.8631C59.9919 83.9724 60.2807 84.0654 60.5741 84.1417C61.5967 84.4302 62.6092 84.3059 62.9092 83.2587C63.1967 82.2638 62.4092 81.6021 61.2842 81.2688L60.5142 81.0499L59.7092 83.8631Z" fill="#6E62DB"/>
<path d="M156.48 79.3158C156.542 79.5819 156.497 79.8618 156.353 80.0947C156.209 80.3275 155.979 80.4946 155.712 80.5595C155.079 80.7044 154.432 80.7877 153.782 80.8082C149.85 80.9401 147.742 78.5696 147.632 75.3361C147.5 71.4732 150.197 69.2297 153.632 69.1177C154.225 69.0951 154.818 69.1326 155.402 69.2297C155.541 69.2539 155.673 69.3058 155.79 69.3821C155.908 69.4584 156.009 69.5577 156.088 69.6738C156.166 69.79 156.22 69.9207 156.246 70.0581C156.272 70.1955 156.27 70.3367 156.24 70.4733V70.5106C156.182 70.7715 156.026 71.0004 155.804 71.1496C155.581 71.2988 155.309 71.3568 155.045 71.3116C154.643 71.2406 154.235 71.2123 153.827 71.227C151.785 71.2966 150.24 72.5751 150.327 75.0948C150.405 77.3633 151.805 78.7437 154.1 78.6666C154.487 78.6525 154.873 78.6042 155.252 78.5224C155.52 78.4668 155.799 78.5185 156.029 78.666C156.258 78.8136 156.42 79.0453 156.48 79.3109V79.3158Z" fill="#4838D1"/>
<path d="M28.9065 132.009C28.7776 131.613 28.8103 131.183 28.9973 130.811C29.1844 130.439 29.5109 130.154 29.9065 130.019C30.7565 129.738 31.5315 130.154 31.854 130.997C31.936 131.188 31.9771 131.394 31.9746 131.601C31.9721 131.809 31.9261 132.014 31.8395 132.203C31.7529 132.392 31.6277 132.561 31.4717 132.699C31.3158 132.837 31.1327 132.941 30.934 133.004C30.736 133.083 30.5236 133.119 30.3106 133.111C30.0975 133.103 29.8886 133.05 29.6974 132.956C29.5062 132.862 29.3369 132.73 29.2007 132.567C29.0644 132.403 28.9642 132.214 28.9065 132.009ZM28.629 129.554L25.9789 123.259C25.9284 123.135 25.9034 123.003 25.9053 122.869C25.9073 122.736 25.9362 122.604 25.9903 122.482C26.0444 122.36 26.1226 122.25 26.2203 122.159C26.318 122.067 26.4332 121.997 26.5589 121.95L27.204 121.719C27.3304 121.675 27.4645 121.656 27.5982 121.665C27.732 121.673 27.8627 121.708 27.9826 121.768C28.1024 121.827 28.209 121.91 28.296 122.012C28.383 122.113 28.4486 122.231 28.489 122.358L30.489 128.885L28.629 129.554Z" fill="#291F85"/>
<path d="M149.282 123.841C149.282 123.841 156.11 126.801 156.712 126.933C157.09 127.015 161.427 122.54 163.792 120.794C163.902 120.712 164.322 120.117 164.44 120.048C165.85 119.344 163.47 123.398 163.47 123.398C163.47 123.398 158.435 129.766 157.297 130.31C155.867 130.997 148.797 127.52 148.84 127.326L149.282 123.841Z" fill="#F77A55"/>
<path d="M148.197 117.484C148.492 115.494 149.89 111.221 148.6 109.524C146.79 107.129 142.962 107.234 141.152 109.524C140.325 110.582 139.875 111.875 139.44 113.141C139.176 113.966 138.854 114.772 138.475 115.551C138.117 116.24 137.725 117.101 137.035 117.521C134.035 119.381 130.665 120.583 130.447 124.779C130.197 129.753 135.67 135.971 142.397 132.967C144.972 131.813 148.345 128.082 149.447 125.505C149.947 124.343 149.697 124.465 149.432 122.692C149.187 121.103 147.962 119.095 148.197 117.484Z" fill="#291F85"/>
<path d="M144.537 120.461L153.677 125.463L151.522 128.719C151.522 128.719 144.642 126.11 143.25 125.734C141.857 125.358 142.955 120.324 144.537 120.461Z" fill="#6E62DB"/>
<path d="M144.382 116.121C144.382 116.121 144.132 119.583 143.967 120.553C143.802 121.523 143.672 125.734 145.767 126.244C147.862 126.754 147.077 121.098 147.112 120.083C147.147 119.068 147.362 115.775 147.362 115.775L144.382 116.121Z" fill="#FBC6B6"/>
<path d="M144.352 116.54C144.518 116.783 144.709 117.007 144.922 117.21C145.695 117.94 146.49 118.175 147.215 118.08C147.282 116.927 147.352 115.775 147.352 115.775L144.382 116.122C144.382 116.122 144.37 116.28 144.352 116.54Z" fill="#F45424"/>
<path d="M146.547 109.492C145.697 109.563 144.899 109.932 144.297 110.534C143.322 111.529 142.157 114.81 144.337 116.859C146.517 118.909 148.677 117.148 149.127 114.981C149.577 112.815 149.872 109.728 146.547 109.492Z" fill="#FBC6B6"/>
<path d="M147.745 109.594C147.745 109.594 146.415 113.009 143.272 112.72C141.85 112.588 141.522 114.523 141.522 114.523C141.522 114.523 142.687 109.932 144.147 109.25C145.607 108.569 147.745 109.594 147.745 109.594Z" fill="#291F85"/>
<path d="M143.677 113.551C143.75 114.154 143.477 114.681 143.07 114.729C142.662 114.776 142.275 114.329 142.205 113.729C142.135 113.129 142.405 112.599 142.812 112.551C143.22 112.504 143.605 112.949 143.677 113.551Z" fill="#FBC6B6"/>
<path d="M167.03 114.665L159.28 130.395C159.095 130.771 159.152 131.206 159.405 131.355L165.057 134.649L172.122 120.72L167.907 114.417C167.687 114.091 167.25 114.223 167.03 114.665Z" fill="#F9A085"/>
<path d="M160.285 129.88L167.017 116.2C167.237 115.753 167.677 115.623 167.89 115.951C168.83 117.347 170.247 119.456 171.265 120.973L164.925 133.484L160.407 130.833C160.157 130.691 160.1 130.256 160.285 129.88Z" fill="#E0DEF7"/>
<path d="M163.962 119.76C164.122 119.555 164.328 119.391 164.562 119.28C164.89 119.192 165.285 119.207 165.35 119.417C165.445 119.722 164.48 120.062 164.48 120.062L163.955 120.812C163.955 120.812 163.71 120.202 163.962 119.76Z" fill="#F77A55"/>
<path d="M144.117 119.62C144.117 119.62 146.5 121.577 147.182 122.257C147.768 122.796 148.392 123.295 149.047 123.749L147.122 121.097L145.902 119.966L144.117 119.62Z" fill="#FBC6B6"/>
<path d="M173.687 150.995C173.317 150.689 172.98 149.816 172.845 149.433C172.042 145.311 168.257 134.161 164.135 134.161C160.542 134.161 149.447 142.817 144.26 147.819C142.76 149.264 142.862 148.037 143.78 148.376C144.33 148.577 148.03 154.706 148.625 154.733C150.437 154.815 152.125 153.609 153.625 152.768C155.743 151.652 157.547 150.028 158.875 148.042C162.267 143.001 163.54 140.036 164.562 138.093C164.562 138.093 165.527 142.073 166 143.018C167.067 145.18 170.25 150.5 171.5 152.574L176.395 152.442C176.395 152.442 174.157 151.393 173.687 150.995Z" fill="#F77A55"/>
<path d="M164.455 136.464C164.455 136.464 148.01 144.088 146.972 146.707C145.935 149.326 146.722 153.219 149.127 154.015C151.532 154.811 166.377 142.18 166.377 142.18C166.377 142.18 168.292 145.675 171.007 148.058C172.452 149.329 174.9 150.363 176.295 151.291C177.517 152.107 177.795 152.9 177.795 152.9L181.227 153.06C181.227 153.06 180.647 152.861 179.61 151.47C176.095 146.774 167.965 135.85 164.455 136.464Z" fill="#FBC6B6"/>
<path d="M158.107 135.509C158.107 135.509 163.39 141.175 164.427 148.64C164.427 148.64 156.152 152.186 152.082 154.33C148.012 156.475 143.46 154.253 142.025 151.871C140.59 149.488 142.025 142.777 142.025 142.777L150.485 141.466L158.107 135.509Z" fill="#291F85"/>
<path d="M170.64 151.169C170.22 151.007 170.072 153.126 170.002 153.598C169.971 153.763 169.978 153.932 170.021 154.094C170.064 154.256 170.143 154.406 170.252 154.533C170.427 154.653 177.207 154.782 178.502 154.441C178.61 154.401 178.712 154.347 178.805 154.28C179.757 153.454 175.352 151.261 174.462 151.445C173.657 151.609 172.532 151.885 170.64 151.169Z" fill="#4838D1"/>
<path d="M143.98 120.541C143.98 120.541 142.69 120.541 141.31 123.486C139.615 127.12 142.035 140.984 141.857 142.964C141.857 142.964 142.457 143.648 145.937 144.148C146.824 144.28 147.73 144.19 148.573 143.886C149.416 143.582 150.169 143.073 150.765 142.407C150.765 142.407 149.98 137.054 151.17 132.017C151.812 129.281 152.152 126.643 149.607 124.188C147.965 122.648 146.059 121.413 143.98 120.541Z" fill="#4838D1"/>
<path d="M176.332 151.299C175.912 151.139 175.55 153.179 175.582 153.679C175.579 154.017 175.66 154.35 175.817 154.649C175.992 154.768 182.78 154.868 184.067 154.522C184.175 154.481 184.276 154.427 184.37 154.361C185.322 153.535 180.422 151.465 179.535 151.649C178.752 151.813 178.225 152.017 176.332 151.299Z" fill="#6E62DB"/>
<path d="M171.795 114.016L158.97 132.597C158.675 133.025 158.745 133.547 159.115 133.684L167.79 136.9L178.04 122.269L172.92 113.832C172.697 113.452 172.12 113.546 171.795 114.016Z" fill="#F77A55"/>
<path d="M168.745 128.097C168.58 127.779 167.245 128.482 167.245 128.482C166.825 128.562 166.401 128.616 165.975 128.644C165.88 128.594 166.77 128.52 166.77 128.52C166.77 128.52 168.227 128.022 168.21 127.861C168.145 127.194 167.232 128.025 166.517 128.055C165.961 128.08 165.404 128.055 164.852 127.98C164.642 127.863 165.177 127.602 165.177 127.602C165.177 127.602 165.877 127.289 165.765 127.104C165.495 126.659 163.855 127.505 163.515 127.818C163.285 128.03 162.997 128.438 162.595 128.664C160.845 129.659 158.747 131.338 156.272 132.524C155.452 131.84 147.545 124.776 147.345 124.605L143.025 127.99C143.025 127.99 155.417 137.38 156.105 137.357C156.97 137.33 162.127 131.912 163.525 130.622C163.735 130.428 165.062 130.281 165.425 130.331C166.235 130.442 167.755 129.811 167.755 129.811C168.222 129.313 166.03 129.811 166.237 129.689C166.62 129.598 167.008 129.535 167.4 129.5C167.942 129.423 168.435 129.114 168.502 128.965C168.63 128.676 167.28 129.092 167.28 129.092L166.152 129.161L167.23 128.943C167.23 128.943 168.907 128.413 168.745 128.097Z" fill="#FBC6B6"/>
<path d="M146.13 122.467C144.735 121.044 142.05 121.253 141.265 123.28C141.047 123.845 141.057 125.464 141.305 126.06C142.305 128.443 148.09 132.332 148.09 132.332L151.282 128.005L146.13 122.467Z" fill="#6E62DB"/>
<path d="M88.7394 81.0697C88.7394 80.8881 88.9668 79.7091 88.9668 79.7091C88.9668 79.7091 88.4393 78.0402 88.3868 78.0377C87.3018 77.9606 86.4843 78.6918 86.6693 79.6768V79.7091C86.9438 80.5835 87.4542 81.3662 88.145 81.9719C88.8358 82.5776 89.6804 82.983 90.5868 83.144L91.9094 83.3778C91.6856 82.6669 91.5709 81.9265 91.5694 81.1816C89.9969 81.1691 88.7394 81.1368 88.7394 81.0697Z" fill="#FBC6B6"/>
<path d="M107.062 73.7049C107.032 73.6154 97.5369 79.7616 97.5369 79.7616C97.5369 79.7616 93.4844 79.8014 90.4894 79.7616C90.4914 80.652 90.6185 81.5377 90.8669 82.3931C93.8244 82.9503 97.1944 83.5398 97.9619 83.4801C99.3919 83.3706 106.557 79.8138 106.557 79.8138C106.557 79.8138 107.084 73.7721 107.062 73.7049Z" fill="#291F85"/>
<path d="M107.169 96.6501C107.149 96.4959 105.142 89.6508 104.934 83.5196C104.772 78.7639 106.249 74.5031 107.009 73.7246C107.289 73.4336 109.897 72.8118 109.897 72.8118L108.947 74.3788C107.982 76.1895 107.719 77.7963 107.302 79.8509C106.087 85.7781 111.552 97.6425 111.267 97.7172C110.982 97.7918 107.247 97.2545 107.169 96.6501Z" fill="#4838D1"/>
<path d="M86.3593 72.7217L84.6918 73.8037L89.6744 82.1466L91.2419 75.3733L86.3593 72.7217Z" fill="#E0DEF7"/>
<path d="M87.3893 71.4084L89.4819 78.3336L91.1619 75.3437L87.3893 71.4084Z" fill="#E0DEF7"/>
<path d="M101.222 70.6104L102.832 76.4258L90.9619 75.3537L101.222 70.6104Z" fill="#E0DEF7"/>
<path d="M94.4493 95.2123C94.4493 95.2123 89.4068 101.344 89.3918 102.229C89.3718 103.512 83.4093 103.159 84.7043 102.612C85.0018 102.485 85.9418 102.013 86.0118 101.95C86.3968 101.62 90.3718 93.8792 90.3718 93.8792L94.4493 95.2123Z" fill="#FBC6B6"/>
<path d="M82.0768 103.201L85.9118 102.015C85.9118 102.015 87.2368 102.684 89.3918 102.249C89.7577 102.886 89.9811 103.594 90.0468 104.325C90.0643 104.527 90.1643 105.129 89.9618 105.161C89.2293 105.273 87.1993 105.226 84.9093 105.278C84.9093 105.278 81.8268 105.313 79.9093 104.679C77.9917 104.044 82.0768 103.201 82.0768 103.201Z" fill="#291F85"/>
<path d="M118.875 96.6747C115.729 95.8544 112.756 94.4833 110.095 92.6254C105.187 89.1432 99.6644 85.4994 97.4844 85.7953C95.7344 86.0441 85.5093 100.01 85.5093 100.01L90.4594 102.154L99.4069 93.0259C99.4069 93.0259 108.54 102.393 111.54 103.032C118.365 104.485 120.55 99.4705 118.875 96.6747Z" fill="#F9A085"/>
<path d="M84.4594 73.8063L91.3419 88.3127C91.357 88.3454 91.3796 88.374 91.4078 88.3965C91.436 88.4189 91.4691 88.4345 91.5044 88.442L96.0994 89.7156L90.2269 75.3435L84.7519 73.478C84.7078 73.4675 84.6617 73.4692 84.6186 73.4827C84.5754 73.4963 84.5367 73.5212 84.5067 73.5549C84.4767 73.5887 84.4564 73.6298 84.4481 73.6741C84.4397 73.7184 84.4436 73.7641 84.4594 73.8063Z" fill="#BAB4EE"/>
<path d="M107.882 60.0995C107.882 60.0995 109.152 58.376 110.572 60.0995C110.815 59.9261 111.114 59.8506 111.411 59.8879C111.707 59.9253 111.978 60.0729 112.169 60.301C112.169 60.301 113.749 59.6021 114.462 61.9971C114.462 61.9971 115.287 61.731 115.524 62.7159C115.671 63.2923 115.606 63.902 115.339 64.4344C115.339 64.4344 115.86 64.7279 115.76 65.678C115.747 65.8944 115.673 66.1028 115.546 66.2789C115.419 66.455 115.244 66.5916 115.042 66.6728C115.042 66.6728 115.042 68.0133 114.509 68.4809C113.977 68.9484 113.179 68.8589 113.179 68.8589C113.179 68.8589 113.064 69.605 112.387 69.6199C111.709 69.6349 110.797 69.1225 110.084 69.4906C109.372 69.8587 107.387 69.8164 107.387 69.8164C107.387 69.8164 105.077 69.1225 105.447 66.817C105.447 66.817 104.167 65.9316 105.014 64.5662C105.014 64.5662 104.034 62.7233 105.339 61.3977C106.644 60.0721 107.882 60.0995 107.882 60.0995Z" fill="#1C155B"/>
<path d="M100.877 114.703C100.877 114.703 101.154 122.247 101.329 123.525C101.504 124.804 98.1094 128.63 98.5444 127.296C98.6444 126.99 98.8994 125.975 98.8994 125.881C98.8994 125.383 97.6494 116.767 97.6494 116.767L100.877 114.703Z" fill="#FBC6B6"/>
<path d="M97.2644 129.654L98.8794 125.995C98.8794 125.995 100.257 125.441 101.339 123.535C102.061 123.68 102.743 123.977 103.339 124.406C103.504 124.525 104.027 124.844 103.917 125.018C103.522 125.642 102.167 127.134 100.692 128.888C100.692 128.888 98.6919 131.226 96.9419 132.26C95.1919 133.295 97.2644 129.654 97.2644 129.654Z" fill="#291F85"/>
<path d="M97.5644 122.565C97.9169 122.207 93.9744 102.915 95.8869 101.042C97.7994 99.1695 110.574 96.4385 110.574 96.4385L112.249 90.561C112.249 90.561 117.592 92.1181 119.75 95.3267C120.932 97.0678 119.722 101.077 119.5 101.52C117.674 105.301 113.167 105.5 109.887 105.457C106.869 105.428 101.512 105.385 101.512 105.385L101.499 122.446C100.728 122.628 99.9375 122.721 99.1444 122.724C97.7394 122.669 97.5644 122.565 97.5644 122.565Z" fill="#F77A55"/>
<path d="M109.407 73.2247L112.864 71.9811C112.91 71.9836 112.956 71.9836 113.002 71.9811C113.372 71.9338 117.455 85.2234 118.787 90.2502C120.12 95.277 118.375 94.3244 118.375 94.3244C118.375 94.3244 115.322 96.2172 111.772 96.3515C108.079 96.4883 108.817 92.0634 108.817 92.0634C108.817 92.0634 106.874 82.8182 107.102 79.6742C107.329 76.5303 109.407 73.2247 109.407 73.2247Z" fill="white"/>
<path d="M109.462 70.5207L109.447 72.2145V72.5155C109.447 72.5155 109.212 75.4155 110.047 75.8657C110.882 76.3159 112.867 71.9882 112.867 71.9882L111.967 67.0685L109.462 70.5207Z" fill="#FBC6B6"/>
<path d="M112.257 68.6677C111.84 70.4411 110.467 71.6747 109.447 72.2119L109.462 70.5207L111.962 67.0685L112.257 68.6677Z" fill="#F45424"/>
<path d="M109.532 62.0689C109.152 61.9925 108.759 61.9999 108.382 62.0905C108.005 62.1811 107.653 62.3527 107.349 62.5933C107.046 62.8339 106.799 63.1377 106.627 63.4833C106.454 63.8289 106.359 64.2078 106.349 64.5937C106.33 65.4425 106.366 66.2917 106.457 67.1359C106.707 69.4319 108.182 71.5114 109.227 71.3795C110.272 71.2477 112.977 69.3896 112.664 66.1359C112.472 64.1186 111.232 62.4321 109.532 62.0689Z" fill="#FBC6B6"/>
<path d="M111.927 66.4942C111.992 66.9942 112.379 67.3717 112.794 67.3192C113.209 67.2667 113.494 66.8192 113.429 66.3042C113.364 65.7892 112.977 65.4267 112.562 65.4792C112.147 65.5317 111.862 65.9867 111.927 66.4942Z" fill="#FBC6B6"/>
<path d="M104.857 61.5017C103.884 62.4965 103.672 63.8297 104.379 64.4863C105.087 65.1429 106.449 64.8942 107.419 63.9068C108.389 62.9194 108.604 61.5788 107.897 60.9222C107.189 60.2656 105.827 60.5143 104.857 61.5017Z" fill="#1C155B"/>
<path d="M107.769 61.8468C107.817 62.2193 108.302 62.4642 108.857 62.3942C109.412 62.3242 109.822 61.9643 109.774 61.5943C109.727 61.2242 109.239 60.9768 108.687 61.0468C108.134 61.1168 107.722 61.4743 107.769 61.8468Z" fill="#1C155B"/>
<path d="M105.157 65.0709C105.18 65.2393 105.253 65.397 105.366 65.5242C105.478 65.6514 105.626 65.7424 105.791 65.7859C105.955 65.8294 106.128 65.8234 106.289 65.7686C106.45 65.7138 106.591 65.6127 106.695 65.478C106.799 65.3433 106.86 65.181 106.872 65.0114C106.883 64.8418 106.845 64.6726 106.761 64.5249C106.676 64.3773 106.55 64.2578 106.399 64.1815C106.247 64.1051 106.076 64.0754 105.907 64.0959C105.679 64.1264 105.471 64.2461 105.331 64.4288C105.19 64.6115 105.128 64.8423 105.157 65.0709Z" fill="#1C155B"/>
<path d="M112.864 71.9885C112.864 71.9885 116.25 71.4413 117.387 71.9239C118.112 72.2298 119.032 78.3385 119.032 78.3385C119.032 78.3385 119.07 84.5169 119.492 86.2579C120.927 92.1652 122.932 97.3362 122.707 97.6272C121.235 98.8335 115.075 99.9503 114.605 99.3683C109.434 93.0382 112.864 71.9885 112.864 71.9885Z" fill="#4838D1"/>
<path d="M118.517 78.2514C118.517 78.2514 115.124 88.6803 113.642 89.7722C112.159 90.8641 105.484 80.6342 105.484 80.6342C105.484 80.6342 102.532 78.9652 102.322 78.9478C101.484 78.8782 104.072 78.4504 104.072 78.4504L104.389 75.7891C104.389 75.7891 104.517 75.809 105.289 76.672C106.332 77.841 107.237 79.6567 107.664 79.9576L112.132 83.3253L114.407 76.1124L118.517 78.2514Z" fill="#FBC6B6"/>
<path d="M90.2269 75.3434L91.6294 75.2065L97.6469 90.1039L96.0994 89.7134L90.2269 75.3434Z" fill="#6E62DB"/>
<path d="M103.607 71.7124L107.227 89.2532C107.241 89.3213 107.24 89.3915 107.223 89.4591C107.207 89.5266 107.176 89.5899 107.133 89.6443C107.09 89.6988 107.035 89.7432 106.973 89.7744C106.91 89.8057 106.842 89.8231 106.772 89.8253L97.6469 90.1039L91.6294 75.2071L102.982 71.3592C103.046 71.3373 103.114 71.3293 103.182 71.3356C103.25 71.3419 103.315 71.3624 103.374 71.3958C103.433 71.4292 103.485 71.4747 103.525 71.5293C103.565 71.5838 103.593 71.6463 103.607 71.7124Z" fill="#BAB4EE"/>
<path d="M107.282 79.3232L106.124 81.8454C106.124 81.8454 111.812 91.1554 113.567 90.6405C115.322 90.1257 118.637 80.0371 119.155 77.2587C119.672 74.4804 118.597 72.1746 117.155 71.8189C115.712 71.4632 114.6 73.8834 114.155 74.9156C113.71 75.9479 112.119 83.3328 112.119 83.3328L107.282 79.3232Z" fill="#6E62DB"/>
<path d="M87.0618 79.4696C86.9517 79.2766 86.8572 79.0752 86.7793 78.8671C86.7118 78.6371 88.1118 77.8446 88.6668 78.2046C89.2218 78.5646 87.7393 79.1196 87.0618 79.4696Z" fill="#FBC6B6"/>
<path d="M87.1194 80.3802C86.9478 80.2053 86.8059 80.0034 86.6994 79.7827C86.6319 79.5552 88.4944 78.6177 89.0494 78.9802C89.6044 79.3427 87.7994 80.0302 87.1194 80.3802Z" fill="#FBC6B6"/>
<path d="M87.7593 81.0168C87.5877 80.8419 87.4459 80.6401 87.3393 80.4194C87.2718 80.1894 88.6718 79.3944 89.2244 79.7569C89.7769 80.1194 88.4368 80.6643 87.7593 81.0168Z" fill="#FBC6B6"/>
<path d="M104.687 76.821H104.407C104.269 76.8206 104.132 76.8064 103.997 76.7787C103.459 76.6618 101.997 76.3707 101.877 76.6618C101.737 77.02 103.992 77.4379 103.992 77.4379C103.992 77.4379 101.517 77.1195 101.517 77.5374C101.517 77.9553 104.032 78.1717 104.032 78.1717C104.032 78.1717 101.837 78.0921 101.797 78.3309C101.757 78.5697 104.492 79.2438 104.492 79.2438C104.492 79.2438 102.277 78.7662 102.057 79.0448C101.837 79.3234 105.529 80.6642 105.529 80.6642L104.687 76.821Z" fill="#FBC6B6"/>
<path d="M87.7593 81.0125C87.7593 81.0125 88.9694 80.3275 89.2894 80.5425C89.6094 80.7575 88.2519 81.7775 88.2519 81.7775L88.4144 82.1525C88.4144 82.1525 87.5468 81.4825 87.7593 81.0125Z" fill="#FBC6B6"/>
</svg>
